<?xml version="1.0" encoding="utf-8"?>
<!-- Generator: Adobe Illustrator 19.1.0, SVG Export Plug-In . SVG Version: 6.00 Build 0)  -->
<svg version="1.1" xmlns="http://www.w3.org/2000/svg" xmlns:xlink="http://www.w3.org/1999/xlink" x="0px" y="0px"
	 viewBox="0 0 639 81" style="enable-background:new 0 0 639 81;" xml:space="preserve">
<style type="text/css">
	.st0{fill:url(#SVGID_1_);}
	.st1{fill:url(#SVGID_2_);}
	.st2{fill:url(#SVGID_3_);}
	.st3{fill:url(#SVGID_4_);}
	.st4{fill:url(#SVGID_5_);}
	.st5{fill:url(#SVGID_6_);}
	.st6{fill:url(#SVGID_7_);}
	.st7{fill:url(#SVGID_8_);}
	.st8{fill:#FFFFFF;}
	.st9{fill:url(#SVGID_9_);}
	.st10{fill:url(#SVGID_10_);}
	.st11{fill:url(#SVGID_11_);}
	.st12{fill:url(#SVGID_12_);}
	.st13{fill:url(#SVGID_13_);}
	.st14{fill:url(#SVGID_14_);}
	.st15{fill:url(#SVGID_15_);}
	.st16{fill:url(#SVGID_16_);}
	.st17{fill:url(#SVGID_17_);}
	.st18{fill:url(#SVGID_18_);}
	.st19{fill:url(#SVGID_19_);}
	.st20{fill:url(#SVGID_20_);}
</style>
<g id="Layer_3">
	<rect x="783" y="-531" width="1098" height="1025.5"/>
</g>
<g id="Layer_1">
	<g>
		
			<linearGradient id="SVGID_1_" gradientUnits="userSpaceOnUse" x1="838.5228" y1="101.7619" x2="838.5228" y2="50.2632" gradientTransform="matrix(0.9772 -0.2125 0.2125 0.9772 60.3767 234.9461)">
			<stop  offset="0" style="stop-color:#2B3990"/>
			<stop  offset="1" style="stop-color:#1C75BC"/>
		</linearGradient>
		<path class="st0" d="M910,133.5c-4.7-7.2-16.6-13.2-17-28.1c-8.1,7-10.3,28.4-9.2,38.2c0,0.1,0,0.1,0,0.2c0,0,0,0,0,0.1
			c0.1,0.4,0.1,0.9,0.2,1.3c1.7,7.8,9.4,12.8,17.3,11.1s12.8-9.4,11.1-17.3C912,136.9,911.2,135,910,133.5z"/>
		
			<linearGradient id="SVGID_2_" gradientUnits="userSpaceOnUse" x1="1331.8904" y1="169.9801" x2="1331.8904" y2="112.5047" gradientTransform="matrix(-1.2498 -0.1067 -0.1031 1.2081 2584.6572 98.008)">
			<stop  offset="0" style="stop-color:#262262"/>
			<stop  offset="1" style="stop-color:#1C75BC"/>
		</linearGradient>
		<path class="st1" d="M886.4,132.2c5.3-10.5,20.6-20.6,18.4-40.6c12.6,8.1,19.5,36.4,19.8,49.8c0,0.1,0,0.1,0,0.2c0,0,0,0.1,0,0.1
			c0,0.6,0,1.2-0.1,1.8c-0.9,10.8-10.7,18.8-21.9,17.9c-11.2-1-19.5-10.5-18.6-21.3C884.2,137.1,885,134.5,886.4,132.2z"/>
		<linearGradient id="SVGID_3_" gradientUnits="userSpaceOnUse" x1="904.1912" y1="128.3919" x2="904.1912" y2="161.3499">
			<stop  offset="0" style="stop-color:#00A79D"/>
			<stop  offset="1" style="stop-color:#1C75BC"/>
		</linearGradient>
		<path class="st2" d="M915,144.8c-2.5-6.5-13-4.5-10.8-16.4c-7.7,4.2-10.9,11.9-11.7,19.9c0,0,0,0.1,0,0.1c0,0,0,0,0,0
			c0,0.4-0.1,0.7-0.1,1.1c0,6.5,5.3,11.8,11.8,11.8s11.8-5.3,11.8-11.8C916,147.9,915.6,146.2,915,144.8z"/>
		
			<linearGradient id="SVGID_4_" gradientUnits="userSpaceOnUse" x1="1363.8088" y1="161.3499" x2="1363.8088" y2="138.4066" gradientTransform="matrix(-1 0 0 1 2268 0)">
			<stop  offset="0" style="stop-color:#D1D3D4"/>
			<stop  offset="1" style="stop-color:#FFFFFF"/>
		</linearGradient>
		<path class="st3" d="M896.7,149.8c1.8-4.5,9.1-3.1,7.5-11.4c5.3,2.9,7.6,8.3,8.2,13.9c0,0,0,0.1,0,0.1c0,0,0,0,0,0
			c0,0.2,0,0.5,0,0.8c0,4.5-3.7,8.2-8.2,8.2c-4.5,0-8.2-3.7-8.2-8.2C896,152,896.2,150.8,896.7,149.8z"/>
	</g>
	<g>
		
			<linearGradient id="SVGID_5_" gradientUnits="userSpaceOnUse" x1="796.4471" y1="318.913" x2="796.4471" y2="233.4692" gradientTransform="matrix(0.9772 -0.2125 0.2125 0.9772 60.3767 234.9461)">
			<stop  offset="0" style="stop-color:#2B3990"/>
			<stop  offset="1" style="stop-color:#1C75BC"/>
		</linearGradient>
		<path class="st4" d="M920.7,339.6c-7.9-11.9-27.5-21.9-28.2-46.6c-13.5,11.7-17.1,47.1-15.2,63.4c0,0.1,0,0.2,0,0.3
			c0,0,0,0.1,0,0.1c0.1,0.7,0.2,1.5,0.4,2.2c2.8,13,15.7,21.3,28.7,18.4c13-2.8,21.3-15.7,18.4-28.7
			C924.1,345.3,922.7,342.2,920.7,339.6z"/>
		
			<linearGradient id="SVGID_6_" gradientUnits="userSpaceOnUse" x1="1312.084" y1="354.0209" x2="1312.084" y2="258.6607" gradientTransform="matrix(-1.2498 -0.1067 -0.1031 1.2081 2584.6572 98.008)">
			<stop  offset="0" style="stop-color:#262262"/>
			<stop  offset="1" style="stop-color:#1C75BC"/>
		</linearGradient>
		<path class="st5" d="M881.5,337.4c8.7-17.4,34.2-34.2,30.5-67.4c20.9,13.4,32.4,60.3,32.8,82.6c0,0.1,0,0.2,0,0.4c0,0,0,0.1,0,0.1
			c0,1,0,2-0.1,3c-1.5,17.9-17.8,31.2-36.4,29.6c-18.6-1.6-32.4-17.4-30.8-35.4C877.9,345.7,879.3,341.3,881.5,337.4z"/>
		<linearGradient id="SVGID_7_" gradientUnits="userSpaceOnUse" x1="911.0676" y1="331.174" x2="911.0676" y2="385.856">
			<stop  offset="0" style="stop-color:#00A79D"/>
			<stop  offset="1" style="stop-color:#1C75BC"/>
		</linearGradient>
		<path class="st6" d="M928.9,358.4c-4.2-10.8-21.6-7.5-17.9-27.2c-12.7,6.9-18.2,19.7-19.4,33c0,0.1,0,0.1,0,0.2c0,0,0,0,0,0.1
			c-0.1,0.6-0.1,1.2-0.1,1.8c0,10.8,8.8,19.6,19.6,19.6s19.6-8.8,19.6-19.6C930.6,363.5,930,360.8,928.9,358.4z"/>
		
			<linearGradient id="SVGID_8_" gradientUnits="userSpaceOnUse" x1="1356.9324" y1="385.856" x2="1356.9324" y2="347.7898" gradientTransform="matrix(-1 0 0 1 2268 0)">
			<stop  offset="0" style="stop-color:#D1D3D4"/>
			<stop  offset="1" style="stop-color:#FFFFFF"/>
		</linearGradient>
		<path class="st7" d="M898.6,366.7c2.9-7.5,15-5.2,12.4-18.9c8.9,4.8,12.6,13.7,13.5,23c0,0.1,0,0.1,0,0.2c0,0,0,0,0,0.1
			c0,0.4,0.1,0.8,0.1,1.3c0,7.5-6.1,13.6-13.6,13.6s-13.6-6.1-13.6-13.6C897.5,370.3,897.9,368.4,898.6,366.7z"/>
	</g>
	<g>
		<path class="st8" d="M974,101.4l-17.2,50.1h-13.1l-17.2-50.1h13.1l10.9,33.9l10.9-33.9H974z"/>
		<path class="st8" d="M1023.4,126.5c0,4.7-1,8.8-3.1,12.5c-2,3.7-4.6,6.5-7.7,8.5c-2.6,1.7-5.4,2.8-8.5,3.2
			c-3.1,0.5-6.3,0.7-9.8,0.7h-15.7v-50.1h15.5c3.5,0,6.8,0.2,9.9,0.7c3.1,0.4,6,1.5,8.6,3.3c3.3,2.1,5.9,5,7.8,8.5
			C1022.5,117.4,1023.4,121.6,1023.4,126.5z M1010.5,126.4c0-3.3-0.6-6.1-1.7-8.5c-1.1-2.3-2.9-4.2-5.2-5.5
			c-1.7-0.9-3.5-1.5-5.4-1.5c-1.9-0.1-4.1-0.1-6.7-0.1h-0.2v31.4h0.2c2.8,0,5.2-0.1,7.1-0.2c1.9-0.1,3.8-0.7,5.5-1.8
			c2.1-1.3,3.6-3.1,4.7-5.4C1010,132.5,1010.5,129.7,1010.5,126.4z"/>
		<path class="st8" d="M1077.2,151.5h-15.3l-14-18.4h-4.5v18.4h-12.5v-50.1h20.1c2.8,0,5.2,0.2,7.3,0.5c2.1,0.3,4,1.1,5.7,2.2
			c1.8,1.1,3.2,2.6,4.3,4.4c1.1,1.8,1.6,4,1.6,6.7c0,3.8-0.9,6.9-2.6,9.3c-1.7,2.4-4,4.3-6.9,5.7L1077.2,151.5z M1056.9,116.7
			c0-1.3-0.2-2.3-0.7-3.2c-0.5-0.9-1.3-1.6-2.4-2.1c-0.8-0.3-1.7-0.5-2.6-0.6c-1-0.1-2.2-0.1-3.6-0.1h-4.2v13.5h3.6
			c1.7,0,3.2-0.1,4.5-0.3c1.2-0.2,2.3-0.7,3.1-1.4c0.8-0.6,1.4-1.4,1.8-2.3C1056.7,119.3,1056.9,118.1,1056.9,116.7z"/>
	</g>
	<text transform="matrix(1 0 0 1 936 180)" class="st8" style="font-family:'MSReferenceSansSerif'; font-size:11.4421px;">Passieve Brandprevents |  Wanden en Plafonds | Thermisch en Akoestische Insulatie</text>
	<g>
		
			<linearGradient id="SVGID_9_" gradientUnits="userSpaceOnUse" x1="946.0746" y1="-323.7067" x2="946.0746" y2="-448.2178" gradientTransform="matrix(0.9772 -0.2125 0.2125 0.9772 60.3767 234.9461)">
			<stop  offset="0" style="stop-color:#2B3990"/>
			<stop  offset="1" style="stop-color:#1C75BC"/>
		</linearGradient>
		<path class="st9" d="M937-337.4c-11.5-17.4-40.1-32-41.1-68c-19.7,17-25,68.6-22.2,92.4c0,0.1,0,0.3,0,0.4c0,0,0,0.1,0,0.1
			c0.1,1.1,0.3,2.1,0.5,3.2c4.1,19,22.8,31,41.8,26.9c19-4.1,31-22.8,26.9-41.8C941.9-329.1,939.8-333.6,937-337.4z"/>
		
			<linearGradient id="SVGID_10_" gradientUnits="userSpaceOnUse" x1="1348.179" y1="-185.7164" x2="1348.179" y2="-324.6779" gradientTransform="matrix(-1.2498 -0.1067 -0.1031 1.2081 2584.6572 98.008)">
			<stop  offset="0" style="stop-color:#262262"/>
			<stop  offset="1" style="stop-color:#1C75BC"/>
		</linearGradient>
		<path class="st10" d="M879.7-340.6c12.7-25.3,49.8-49.8,44.5-98.2c30.4,19.5,47.3,87.9,47.8,120.4c0,0.2,0,0.4,0,0.5
			c0,0.1,0,0.1,0,0.2c0,1.4,0,2.9-0.2,4.4c-2.2,26.2-26,45.5-53,43.2c-27.1-2.3-47.2-25.4-44.9-51.5
			C874.5-328.6,876.5-334.9,879.7-340.6z"/>
		<linearGradient id="SVGID_11_" gradientUnits="userSpaceOnUse" x1="922.8836" y1="-349.6842" x2="922.8836" y2="-270">
			<stop  offset="0" style="stop-color:#00A79D"/>
			<stop  offset="1" style="stop-color:#1C75BC"/>
		</linearGradient>
		<path class="st11" d="M948.9-310.1c-6.1-15.8-31.5-10.9-26.1-39.6c-18.5,10.1-26.5,28.8-28.3,48.1c0,0.1,0,0.2,0,0.3
			c0,0,0,0.1,0,0.1c-0.1,0.9-0.1,1.7-0.1,2.6c0,15.7,12.8,28.5,28.5,28.5s28.5-12.8,28.5-28.5C951.4-302.6,950.5-306.5,948.9-310.1z
			"/>
		
			<linearGradient id="SVGID_12_" gradientUnits="userSpaceOnUse" x1="1345.1163" y1="-270" x2="1345.1163" y2="-325.4712" gradientTransform="matrix(-1 0 0 1 2268 0)">
			<stop  offset="0" style="stop-color:#D1D3D4"/>
			<stop  offset="1" style="stop-color:#FFFFFF"/>
		</linearGradient>
		<path class="st12" d="M904.7-297.9c4.2-11,21.9-7.6,18.1-27.6c12.9,7,18.4,20,19.7,33.5c0,0.1,0,0.1,0,0.2c0,0,0,0.1,0,0.1
			c0.1,0.6,0.1,1.2,0.1,1.8c0,11-8.9,19.8-19.8,19.8s-19.8-8.9-19.8-19.8C903-292.7,903.6-295.4,904.7-297.9z"/>
	</g>
	<text transform="matrix(1 0 0 1 981 -324)" class="st8" style="font-family:'Tahoma-Bold'; font-size:148.8401px;">VDR </text>
	
		<text transform="matrix(1 0 0 1 872.9999 -243.0002)" class="st8" style="font-family:'MSReferenceSansSerif'; font-size:11.4421px;">Passieve Brandprevents |  Wanden en Plafonds | Thermisch en Akoestische Insulatie</text>
	<g>
		
			<linearGradient id="SVGID_13_" gradientUnits="userSpaceOnUse" x1="877.7581" y1="-85.1579" x2="877.7581" y2="-163.2065" gradientTransform="matrix(0.9772 -0.2125 0.2125 0.9772 60.3767 234.9461)">
			<stop  offset="0" style="stop-color:#2B3990"/>
			<stop  offset="1" style="stop-color:#1C75BC"/>
		</linearGradient>
		<path class="st13" d="M913.1-69.3c-7.2-10.9-25.2-20-25.8-42.6c-12.3,10.7-15.6,43-13.9,58c0,0.1,0,0.2,0,0.2c0,0,0,0.1,0,0.1
			c0.1,0.7,0.2,1.3,0.3,2c2.6,11.9,14.3,19.4,26.2,16.8s19.4-14.3,16.8-26.2C916.2-64.1,914.9-66.9,913.1-69.3z"/>
		
			<linearGradient id="SVGID_14_" gradientUnits="userSpaceOnUse" x1="1345.2865" y1="15.226" x2="1345.2865" y2="-71.8807" gradientTransform="matrix(-1.2498 -0.1067 -0.1031 1.2081 2584.6572 98.008)">
			<stop  offset="0" style="stop-color:#262262"/>
			<stop  offset="1" style="stop-color:#1C75BC"/>
		</linearGradient>
		<path class="st14" d="M877.2-71.2c8-15.9,31.2-31.2,27.9-61.6c19.1,12.2,29.6,55.1,29.9,75.5c0,0.1,0,0.2,0,0.3c0,0,0,0.1,0,0.1
			c0,0.9,0,1.8-0.1,2.7c-1.4,16.4-16.3,28.5-33.2,27.1c-17-1.4-29.6-15.9-28.2-32.3C873.9-63.7,875.2-67.7,877.2-71.2z"/>
		<linearGradient id="SVGID_15_" gradientUnits="userSpaceOnUse" x1="904.2691" y1="-76.9493" x2="904.2691" y2="-27">
			<stop  offset="0" style="stop-color:#00A79D"/>
			<stop  offset="1" style="stop-color:#1C75BC"/>
		</linearGradient>
		<path class="st15" d="M920.6-52.1c-3.8-9.9-19.7-6.8-16.3-24.8c-11.6,6.3-16.6,18-17.8,30.2c0,0.1,0,0.1,0,0.2c0,0,0,0,0,0.1
			c0,0.5-0.1,1.1-0.1,1.6c0,9.9,8,17.9,17.9,17.9c9.9,0,17.9-8,17.9-17.9C922.1-47.5,921.6-49.9,920.6-52.1z"/>
		
			<linearGradient id="SVGID_16_" gradientUnits="userSpaceOnUse" x1="1363.731" y1="-27" x2="1363.731" y2="-61.7716" gradientTransform="matrix(-1 0 0 1 2268 0)">
			<stop  offset="0" style="stop-color:#D1D3D4"/>
			<stop  offset="1" style="stop-color:#FFFFFF"/>
		</linearGradient>
		<path class="st16" d="M892.9-44.5c2.7-6.9,13.7-4.8,11.4-17.3c8.1,4.4,11.5,12.5,12.4,21c0,0,0,0.1,0,0.1c0,0,0,0,0,0
			c0,0.4,0.1,0.8,0.1,1.1c0,6.9-5.6,12.4-12.4,12.4c-6.9,0-12.4-5.6-12.4-12.4C891.8-41.2,892.2-42.9,892.9-44.5z"/>
	</g>
	<g>
		<path class="st8" d="M975.7-117.4L959.8-71h-12.1l-15.9-46.3h12.1L953.8-86l10.1-31.4H975.7z"/>
		<path class="st8" d="M1021.4-94.1c0,4.3-0.9,8.2-2.8,11.6c-1.9,3.4-4.3,6-7.2,7.9c-2.4,1.6-5,2.6-7.9,3c-2.8,0.4-5.8,0.7-9,0.7
			H980v-46.3h14.4c3.3,0,6.3,0.2,9.1,0.6s5.5,1.4,8,3c3,2,5.5,4.6,7.2,7.9C1020.5-102.5,1021.4-98.6,1021.4-94.1z M1009.4-94.2
			c0-3-0.5-5.7-1.6-7.8c-1-2.2-2.7-3.9-4.8-5.1c-1.6-0.9-3.2-1.3-5-1.4c-1.7-0.1-3.8-0.1-6.2-0.1h-0.2v29h0.2c2.6,0,4.8,0,6.6-0.1
			c1.8-0.1,3.5-0.6,5.1-1.7c1.9-1.2,3.4-2.9,4.4-5C1008.9-88.6,1009.4-91.2,1009.4-94.2z"/>
		<path class="st8" d="M1071.1-71h-14.2L1044-88h-4.2v17h-11.6v-46.3h18.6c2.6,0,4.8,0.2,6.7,0.5c1.9,0.3,3.7,1,5.3,2
			c1.7,1.1,3,2.4,4,4s1.5,3.7,1.5,6.2c0,3.5-0.8,6.4-2.4,8.6c-1.6,2.2-3.7,4-6.4,5.3L1071.1-71z M1052.4-103.2c0-1.2-0.2-2.2-0.7-3
			c-0.4-0.8-1.2-1.5-2.2-1.9c-0.7-0.3-1.5-0.5-2.4-0.6c-0.9-0.1-2-0.1-3.3-0.1h-3.9v12.5h3.3c1.6,0,3-0.1,4.1-0.3
			c1.1-0.2,2.1-0.6,2.9-1.3c0.7-0.6,1.3-1.3,1.7-2.1C1052.2-100.8,1052.4-101.9,1052.4-103.2z"/>
		<path class="st8" d="M1113.2-70.1c-7,0-12.5-2.1-16.6-6.3c-4.1-4.2-6.1-10.1-6.1-17.7c0-7.3,2-13.2,6.1-17.6
			c4.1-4.4,9.6-6.6,16.6-6.6c1.8,0,3.5,0.1,5,0.3c1.5,0.2,2.9,0.5,4.2,0.9c1.1,0.3,2.2,0.7,3.5,1.3s2.3,1,3,1.4v11h-1.2
			c-0.6-0.5-1.3-1.1-2.1-1.8c-0.9-0.7-1.8-1.4-2.9-2c-1.1-0.7-2.3-1.2-3.6-1.7c-1.3-0.5-2.7-0.7-4.1-0.7c-1.7,0-3.2,0.3-4.6,0.8
			c-1.4,0.5-2.7,1.4-4,2.8c-1.2,1.2-2.1,2.8-2.8,4.8c-0.7,2-1.1,4.4-1.1,7.1c0,2.9,0.4,5.3,1.2,7.3c0.8,2,1.8,3.5,3,4.7
			c1.2,1.2,2.5,2,4,2.5c1.5,0.5,3,0.8,4.4,0.8c1.5,0,3-0.3,4.4-0.8c1.4-0.5,2.6-1.1,3.5-1.7c1-0.6,1.9-1.3,2.7-2
			c0.8-0.7,1.5-1.3,2.1-1.8h1.1v10.9c-0.9,0.4-1.8,0.8-3,1.4c-1.1,0.5-2.3,0.9-3.5,1.3c-1.5,0.4-2.8,0.8-4.1,1
			C1117.1-70.2,1115.4-70.1,1113.2-70.1z"/>
		<path class="st8" d="M1168.7-88.5c0,5.7-1.6,10.3-4.7,13.6c-3.1,3.3-7.6,5-13.3,5c-5.7,0-10.1-1.7-13.3-5
			c-3.2-3.3-4.7-7.8-4.7-13.6c0-5.8,1.6-10.4,4.7-13.6c3.2-3.3,7.6-4.9,13.3-4.9c5.7,0,10.2,1.7,13.3,5
			C1167.1-98.8,1168.7-94.2,1168.7-88.5z M1157.5-88.4c0-2.1-0.2-3.8-0.5-5.2c-0.3-1.4-0.8-2.5-1.4-3.3c-0.6-0.9-1.4-1.5-2.2-1.8
			c-0.8-0.3-1.7-0.5-2.8-0.5c-1,0-1.9,0.2-2.6,0.5c-0.8,0.3-1.5,0.9-2.2,1.7c-0.6,0.8-1.1,1.9-1.5,3.3c-0.4,1.4-0.6,3.2-0.6,5.3
			c0,2.1,0.2,3.9,0.5,5.2c0.4,1.3,0.8,2.4,1.4,3.2c0.6,0.8,1.3,1.4,2.2,1.8c0.9,0.4,1.8,0.6,2.9,0.6c0.9,0,1.8-0.2,2.7-0.6
			c0.9-0.4,1.6-0.9,2.2-1.7c0.6-0.9,1.1-2,1.5-3.2C1157.3-84.5,1157.5-86.2,1157.5-88.4z"/>
		<path class="st8" d="M1207.2-71h-11v-17.3c0-1.4-0.1-2.8-0.2-4.2s-0.3-2.4-0.6-3.1c-0.4-0.8-0.9-1.4-1.6-1.7
			c-0.7-0.3-1.6-0.5-2.8-0.5c-0.9,0-1.8,0.2-2.7,0.5c-0.9,0.3-1.9,0.9-2.9,1.6V-71h-10.9V-106h10.9v3.9c1.8-1.5,3.5-2.7,5.2-3.5
			c1.7-0.9,3.6-1.3,5.6-1.3c3.6,0,6.3,1.1,8.2,3.4c1.9,2.3,2.8,5.5,2.8,9.8V-71z"/>
		<path class="st8" d="M1225.9-70.1c-2.6,0-5-0.3-7.3-0.8s-4.2-1.2-5.7-2v-9.2h0.9c0.5,0.4,1.1,0.8,1.8,1.3s1.6,1,2.8,1.5
			c1,0.5,2.2,0.9,3.4,1.2c1.3,0.3,2.7,0.5,4.2,0.5c1.5,0,2.9-0.2,4.1-0.7c1.2-0.5,1.8-1.2,1.8-2.3c0-0.8-0.3-1.4-0.8-1.8
			c-0.5-0.4-1.6-0.8-3.1-1.2c-0.8-0.2-1.9-0.4-3.1-0.7c-1.3-0.2-2.4-0.5-3.4-0.8c-2.7-0.9-4.8-2.1-6.2-3.8c-1.4-1.7-2.1-3.9-2.1-6.6
			c0-1.6,0.4-3,1.1-4.4c0.7-1.4,1.8-2.6,3.2-3.7c1.4-1.1,3.1-1.9,5.2-2.5c2-0.6,4.4-0.9,6.9-0.9c2.4,0,4.7,0.2,6.8,0.7
			c2.1,0.5,3.8,1.1,5.2,1.8v8.8h-0.9c-0.4-0.3-1-0.7-1.8-1.2c-0.8-0.5-1.6-0.9-2.4-1.3c-0.9-0.4-1.9-0.8-3.1-1
			c-1.1-0.3-2.3-0.4-3.5-0.4c-1.6,0-2.9,0.3-4,0.8c-1.1,0.5-1.6,1.3-1.6,2.1c0,0.8,0.3,1.4,0.8,1.9c0.5,0.5,1.7,0.9,3.5,1.3
			c0.9,0.2,2,0.5,3.2,0.7c1.2,0.2,2.4,0.5,3.5,0.9c2.5,0.8,4.4,2,5.7,3.6c1.3,1.6,1.9,3.6,1.9,6.2c0,1.6-0.4,3.2-1.2,4.7
			c-0.8,1.5-1.9,2.7-3.3,3.8c-1.5,1.1-3.3,2-5.3,2.6C1231.1-70.4,1228.7-70.1,1225.9-70.1z"/>
		<path class="st8" d="M1261.4-70.3c-4.4,0-7.7-0.9-9.7-2.7c-2-1.8-3-4.8-3-9v-16.3h-4.2v-7.6h4.2v-10h10.9v10h10.5v7.6h-10.5V-86
			c0,1.2,0,2.3,0,3.2c0,0.9,0.2,1.7,0.5,2.5c0.3,0.7,0.8,1.3,1.5,1.7s1.8,0.6,3.2,0.6c0.6,0,1.3-0.1,2.3-0.4c0.9-0.2,1.6-0.5,2-0.7
			h0.9v7.7c-1.2,0.3-2.4,0.6-3.8,0.7C1265-70.4,1263.3-70.3,1261.4-70.3z"/>
		<path class="st8" d="M1298-95.7h-0.9c-0.4-0.1-1-0.3-1.8-0.3c-0.8-0.1-1.7-0.1-2.6-0.1c-1.1,0-2.3,0.2-3.6,0.5
			c-1.3,0.3-2.5,0.7-3.7,1.2V-71h-10.9V-106h10.9v5c0.5-0.5,1.2-1,2.1-1.7c0.9-0.7,1.7-1.2,2.4-1.7c0.8-0.5,1.7-0.9,2.8-1.2
			s2-0.5,3-0.5c0.4,0,0.7,0,1.2,0c0.4,0,0.8,0.1,1.2,0.1V-95.7z"/>
		<path class="st8" d="M1334.6-71h-10.9v-3.9c-1.9,1.6-3.6,2.8-5.2,3.6c-1.6,0.8-3.5,1.2-5.6,1.2c-3.5,0-6.2-1.1-8.1-3.3
			c-1.9-2.2-2.9-5.5-2.9-9.9V-106h11v17.3c0,1.8,0,3.3,0.1,4.4s0.3,2.1,0.7,2.9c0.3,0.7,0.8,1.3,1.5,1.6s1.7,0.6,2.9,0.6
			c0.8,0,1.7-0.2,2.7-0.6c1-0.4,2-0.9,2.9-1.5V-106h10.9V-71z"/>
		<path class="st8" d="M1360.1-70.1c-2.9,0-5.5-0.4-7.9-1.1c-2.4-0.7-4.5-1.8-6.2-3.4c-1.7-1.5-3.1-3.4-4.1-5.7
			c-1-2.3-1.5-5-1.5-8.1c0-3.3,0.5-6.2,1.6-8.5c1.1-2.3,2.5-4.3,4.3-5.8c1.7-1.5,3.8-2.5,6.1-3.2c2.4-0.7,4.8-1,7.4-1
			c1.9,0,3.9,0.2,5.8,0.7c1.9,0.4,3.9,1.2,5.8,2.1v9.3h-1.4c-0.4-0.4-1-0.9-1.6-1.4c-0.6-0.5-1.3-1-2.1-1.4
			c-0.8-0.4-1.7-0.8-2.7-1.1s-2.1-0.5-3.3-0.5c-2.8,0-4.9,1-6.5,2.9c-1.5,1.9-2.3,4.5-2.3,7.8c0,3.5,0.8,6.1,2.4,7.8
			c1.6,1.7,3.8,2.6,6.5,2.6c1.4,0,2.6-0.2,3.6-0.5s1.9-0.7,2.7-1.1c0.7-0.4,1.3-0.9,1.9-1.4c0.5-0.5,1-0.9,1.3-1.3h1.4v9.3
			c-0.6,0.3-1.3,0.6-2.2,0.9c-0.8,0.4-1.7,0.6-2.5,0.9c-1.1,0.3-2,0.5-3,0.7C1362.8-70.2,1361.6-70.1,1360.1-70.1z"/>
		<path class="st8" d="M1389.9-70.3c-4.4,0-7.7-0.9-9.7-2.7c-2-1.8-3-4.8-3-9v-16.3h-4.2v-7.6h4.2v-10h10.9v10h10.5v7.6h-10.5V-86
			c0,1.2,0,2.3,0,3.2c0,0.9,0.2,1.7,0.5,2.5c0.3,0.7,0.8,1.3,1.5,1.7s1.8,0.6,3.2,0.6c0.6,0,1.3-0.1,2.3-0.4c0.9-0.2,1.6-0.5,2-0.7
			h0.9v7.7c-1.2,0.3-2.4,0.6-3.8,0.7C1393.5-70.4,1391.9-70.3,1389.9-70.3z"/>
		<path class="st8" d="M1414.2-110.9h-11.5v-8.5h11.5V-110.9z M1413.9-71H1403V-106h10.9V-71z"/>
		<path class="st8" d="M1455.8-88.5c0,5.7-1.6,10.3-4.7,13.6c-3.1,3.3-7.6,5-13.3,5c-5.7,0-10.1-1.7-13.3-5
			c-3.2-3.3-4.7-7.8-4.7-13.6c0-5.8,1.6-10.4,4.7-13.6c3.2-3.3,7.6-4.9,13.3-4.9c5.7,0,10.2,1.7,13.3,5S1455.8-94.2,1455.8-88.5z
			 M1444.6-88.4c0-2.1-0.2-3.8-0.5-5.2c-0.3-1.4-0.8-2.5-1.4-3.3c-0.6-0.9-1.4-1.5-2.2-1.8c-0.8-0.3-1.7-0.5-2.8-0.5
			c-1,0-1.9,0.2-2.6,0.5c-0.8,0.3-1.5,0.9-2.2,1.7c-0.6,0.8-1.1,1.9-1.5,3.3c-0.4,1.4-0.6,3.2-0.6,5.3c0,2.1,0.2,3.9,0.5,5.2
			c0.4,1.3,0.8,2.4,1.4,3.2c0.6,0.8,1.3,1.4,2.2,1.8s1.8,0.6,2.9,0.6c0.9,0,1.8-0.2,2.7-0.6s1.6-0.9,2.2-1.7c0.6-0.9,1.1-2,1.5-3.2
			C1444.5-84.5,1444.6-86.2,1444.6-88.4z"/>
		<path class="st8" d="M1494.3-71h-11v-17.3c0-1.4-0.1-2.8-0.2-4.2s-0.3-2.4-0.6-3.1c-0.4-0.8-0.9-1.4-1.6-1.7
			c-0.7-0.3-1.6-0.5-2.8-0.5c-0.9,0-1.8,0.2-2.7,0.5c-0.9,0.3-1.9,0.9-2.9,1.6V-71h-10.9V-106h10.9v3.9c1.8-1.5,3.5-2.7,5.2-3.5
			c1.7-0.9,3.6-1.3,5.6-1.3c3.6,0,6.3,1.1,8.2,3.4c1.9,2.3,2.8,5.5,2.8,9.8V-71z"/>
		<path class="st8" d="M1513-70.1c-2.6,0-5-0.3-7.3-0.8s-4.2-1.2-5.7-2v-9.2h0.9c0.5,0.4,1.1,0.8,1.8,1.3s1.6,1,2.8,1.5
			c1,0.5,2.2,0.9,3.4,1.2c1.3,0.3,2.7,0.5,4.2,0.5c1.5,0,2.9-0.2,4.1-0.7c1.2-0.5,1.8-1.2,1.8-2.3c0-0.8-0.3-1.4-0.8-1.8
			c-0.5-0.4-1.6-0.8-3.1-1.2c-0.8-0.2-1.9-0.4-3.1-0.7c-1.3-0.2-2.4-0.5-3.4-0.8c-2.7-0.9-4.8-2.1-6.2-3.8c-1.4-1.7-2.1-3.9-2.1-6.6
			c0-1.6,0.4-3,1.1-4.4c0.7-1.4,1.8-2.6,3.2-3.7c1.4-1.1,3.1-1.9,5.2-2.5c2-0.6,4.4-0.9,6.9-0.9c2.4,0,4.7,0.2,6.8,0.7
			c2.1,0.5,3.8,1.1,5.2,1.8v8.8h-0.9c-0.4-0.3-1-0.7-1.8-1.2c-0.8-0.5-1.6-0.9-2.4-1.3c-0.9-0.4-1.9-0.8-3.1-1
			c-1.1-0.3-2.3-0.4-3.5-0.4c-1.6,0-2.9,0.3-4,0.8c-1.1,0.5-1.6,1.3-1.6,2.1c0,0.8,0.3,1.4,0.8,1.9c0.5,0.5,1.7,0.9,3.5,1.3
			c0.9,0.2,2,0.5,3.2,0.7c1.2,0.2,2.4,0.5,3.5,0.9c2.5,0.8,4.4,2,5.7,3.6c1.3,1.6,1.9,3.6,1.9,6.2c0,1.6-0.4,3.2-1.2,4.7
			c-0.8,1.5-1.9,2.7-3.3,3.8c-1.5,1.1-3.3,2-5.3,2.6C1518.3-70.4,1515.9-70.1,1513-70.1z"/>
	</g>
	<text transform="matrix(1 0 0 1 945 -44.9999)" class="st8" style="font-family:'Tahoma'; font-size:20.5065px;">The Fire Techs.</text>
	<text transform="matrix(1 0 0 1 954 404.9999)" class="st8" style="font-family:'Tahoma'; font-size:15.1343px;">The Fire Techs.</text>
	<text transform="matrix(1 0 0 1 981 -270)" class="st8" style="font-family:'Tahoma-Bold'; font-size:54.8556px;">Constructions</text>
	<g>
		<path class="st8" d="M1108.6,151.4c-2.6,0-5-0.4-7.2-1.3c-2.2-0.9-4.1-2.2-5.7-3.9c-1.6-1.7-2.8-3.9-3.7-6.5s-1.3-5.6-1.3-8.9
			c0-3.3,0.4-6.3,1.3-8.7c0.8-2.5,2.1-4.6,3.7-6.5c1.6-1.8,3.5-3.1,5.7-4.1c2.2-0.9,4.6-1.4,7.3-1.4c1.3,0,2.6,0.1,3.8,0.3
			c1.2,0.2,2.3,0.4,3.3,0.8c0.9,0.3,1.7,0.6,2.6,1c0.9,0.4,1.8,0.8,2.7,1.3v6.4h-0.4c-0.5-0.4-1.1-0.9-1.8-1.6
			c-0.7-0.6-1.6-1.2-2.7-1.8c-1-0.6-2.1-1-3.3-1.4c-1.2-0.4-2.6-0.5-4.2-0.5c-1.7,0-3.3,0.3-4.8,1c-1.5,0.7-2.8,1.7-4,3.1
			c-1.1,1.4-2,3.1-2.6,5.1c-0.6,2.1-0.9,4.4-0.9,6.9c0,2.7,0.3,5.1,1,7.1c0.7,2,1.6,3.6,2.7,5c1.1,1.3,2.4,2.3,3.9,3s3.1,1,4.8,1
			c1.5,0,3-0.2,4.3-0.6c1.3-0.4,2.5-0.8,3.5-1.4c1-0.6,1.8-1.1,2.5-1.7c0.7-0.6,1.3-1.1,1.7-1.5h0.4v6.3c-0.9,0.4-1.7,0.8-2.5,1.2
			s-1.7,0.7-2.8,1.1c-1.2,0.4-2.2,0.7-3.2,0.9C1111.5,151.3,1110.2,151.4,1108.6,151.4z"/>
		<path class="st8" d="M1150.2,135.7c0,5-1.2,8.9-3.6,11.7c-2.4,2.7-5.7,4.1-9.7,4.1c-4.2,0-7.4-1.4-9.8-4.2s-3.6-6.7-3.6-11.5
			c0-5,1.2-8.9,3.7-11.7c2.5-2.8,5.7-4.2,9.7-4.2c4,0,7.3,1.4,9.7,4.1C1149,126.8,1150.2,130.7,1150.2,135.7z M1145,135.7
			c0-3.9-0.7-6.8-2.1-8.6s-3.4-2.8-6-2.8c-2.6,0-4.6,0.9-6.1,2.8c-1.4,1.9-2.1,4.8-2.1,8.6c0,3.8,0.7,6.6,2.1,8.5
			c1.4,1.9,3.4,2.9,6.1,2.9c2.6,0,4.6-1,6-2.9C1144.3,142.4,1145,139.5,1145,135.7z"/>
		<path class="st8" d="M1178.9,150.6h-5v-17c0-1.4-0.1-2.7-0.2-3.8s-0.4-2.1-0.8-2.9c-0.4-0.8-1-1.3-1.7-1.7c-0.7-0.4-1.7-0.5-3-0.5
			c-1.3,0-2.5,0.3-3.9,1c-1.3,0.7-2.6,1.5-3.9,2.6v22.3h-5v-29.9h5v3.3c1.5-1.3,3-2.4,4.4-3.1c1.5-0.7,3-1.1,4.6-1.1
			c2.9,0,5.2,1,6.9,2.9s2.5,4.7,2.5,8.4V150.6z"/>
		<path class="st8" d="M1194,151.4c-2,0-3.9-0.3-5.6-0.8c-1.7-0.5-3.2-1.1-4.3-1.7v-5.7h0.3c0.4,0.3,0.9,0.7,1.5,1.1
			c0.6,0.4,1.4,0.8,2.3,1.3c0.9,0.4,1.8,0.7,2.8,1c1,0.3,2.1,0.5,3.2,0.5c0.8,0,1.7-0.1,2.6-0.3c0.9-0.2,1.6-0.4,2-0.7
			c0.6-0.4,1.1-0.8,1.4-1.3c0.3-0.5,0.4-1.2,0.4-2.1c0-1.2-0.3-2.1-1-2.7c-0.7-0.6-1.8-1.1-3.5-1.5c-0.6-0.2-1.5-0.3-2.5-0.6
			c-1-0.2-2-0.4-2.9-0.7c-2.3-0.7-3.9-1.7-5-3.1c-1-1.4-1.6-3.1-1.6-5c0-2.7,1-4.9,3.1-6.6c2-1.7,4.7-2.5,8.1-2.5
			c1.7,0,3.3,0.2,5,0.6c1.7,0.4,3.1,0.9,4.2,1.6v5.4h-0.3c-1.3-1-2.7-1.8-4.3-2.4c-1.6-0.6-3.2-0.9-4.8-0.9c-1.7,0-3.1,0.3-4.2,1
			s-1.7,1.8-1.7,3.2c0,1.3,0.3,2.2,1,2.8s1.8,1.1,3.3,1.5c0.8,0.2,1.6,0.4,2.5,0.6c0.9,0.2,1.9,0.4,2.9,0.7c2.2,0.6,3.9,1.5,5,2.8
			c1.1,1.3,1.7,3,1.7,5.3c0,1.3-0.3,2.5-0.8,3.7c-0.5,1.2-1.3,2.1-2.2,3c-1.1,0.9-2.3,1.6-3.6,2
			C1197.8,151.1,1196.1,151.4,1194,151.4z"/>
		<path class="st8" d="M1219.5,151.2c-2.8,0-4.9-0.8-6.4-2.3c-1.5-1.6-2.3-4-2.3-7.4v-16.6h-3.4v-4.2h3.4v-8.6h5v8.6h9.3v4.2h-9.3
			v14.2c0,1.5,0,2.7,0.1,3.5s0.3,1.6,0.6,2.3c0.3,0.6,0.8,1.1,1.5,1.4s1.6,0.5,2.8,0.5c0.8,0,1.6-0.1,2.4-0.4
			c0.8-0.2,1.3-0.4,1.7-0.6h0.3v4.5c-0.9,0.3-1.9,0.5-2.9,0.6S1220.3,151.2,1219.5,151.2z"/>
		<path class="st8" d="M1244.6,126.1h-0.3c-0.4-0.1-0.8-0.2-1.2-0.2c-0.4,0-0.9,0-1.5,0c-1.4,0-2.7,0.3-4,0.9
			c-1.3,0.6-2.6,1.5-3.8,2.6v21.2h-5v-29.9h5v4.4c1.8-1.6,3.4-2.8,4.8-3.4c1.4-0.7,2.7-1,4-1c0.5,0,0.9,0,1.2,0
			c0.3,0,0.5,0.1,0.9,0.1V126.1z"/>
		<path class="st8" d="M1271.9,150.6h-5v-3.3c-1.6,1.4-3,2.4-4.4,3.1c-1.4,0.7-2.9,1.1-4.7,1.1c-1.3,0-2.5-0.2-3.7-0.6
			c-1.2-0.4-2.2-1.1-3-2c-0.9-0.9-1.5-2.1-2-3.5c-0.5-1.4-0.7-3.1-0.7-5.1v-19.4h5v17c0,1.6,0.1,2.9,0.2,4s0.4,2,0.8,2.7
			c0.4,0.8,1,1.3,1.7,1.7c0.7,0.4,1.7,0.5,3,0.5c1.2,0,2.5-0.3,3.9-1s2.7-1.6,3.8-2.6v-22.3h5V150.6z"/>
		<path class="st8" d="M1291,151.3c-2.1,0-3.9-0.3-5.7-1c-1.7-0.6-3.2-1.6-4.4-2.9c-1.2-1.3-2.2-2.9-2.9-4.9c-0.7-2-1-4.3-1-6.9
			c0-2.6,0.4-4.9,1.1-6.8c0.7-1.9,1.6-3.5,2.8-4.8c1.2-1.3,2.6-2.3,4.4-3c1.8-0.7,3.6-1.1,5.7-1.1c1.6,0,3.2,0.2,4.8,0.7
			c1.5,0.5,2.9,1,4.1,1.6v5.7h-0.3c-0.4-0.3-0.8-0.7-1.4-1c-0.6-0.4-1.2-0.8-2-1.2c-0.7-0.4-1.5-0.7-2.5-0.9s-1.9-0.4-2.7-0.4
			c-2.6,0-4.7,1-6.3,3c-1.6,2-2.4,4.8-2.4,8.4c0,3.5,0.8,6.3,2.3,8.3c1.5,2,3.6,3,6.4,3c1.6,0,3.2-0.3,4.7-1
			c1.5-0.7,2.8-1.6,3.9-2.6h0.3v5.7c-0.5,0.2-1.1,0.5-1.9,0.8c-0.8,0.3-1.4,0.6-2,0.7c-0.9,0.3-1.6,0.4-2.3,0.6
			S1292.1,151.3,1291,151.3z"/>
		<path class="st8" d="M1313.5,151.2c-2.8,0-4.9-0.8-6.4-2.3c-1.5-1.6-2.3-4-2.3-7.4v-16.6h-3.4v-4.2h3.4v-8.6h5v8.6h9.3v4.2h-9.3
			v14.2c0,1.5,0,2.7,0.1,3.5s0.3,1.6,0.6,2.3c0.3,0.6,0.8,1.1,1.5,1.4s1.6,0.5,2.8,0.5c0.8,0,1.6-0.1,2.4-0.4
			c0.8-0.2,1.3-0.4,1.7-0.6h0.3v4.5c-0.9,0.3-1.9,0.5-2.9,0.6S1314.3,151.2,1313.5,151.2z"/>
		<path class="st8" d="M1328.3,115.7h-5.7v-5.2h5.7V115.7z M1327.9,150.6h-5v-29.9h5V150.6z"/>
		<path class="st8" d="M1360,135.7c0,5-1.2,8.9-3.6,11.7s-5.7,4.1-9.7,4.1c-4.2,0-7.4-1.4-9.8-4.2s-3.6-6.7-3.6-11.5
			c0-5,1.2-8.9,3.7-11.7c2.5-2.8,5.7-4.2,9.7-4.2c4,0,7.3,1.4,9.7,4.1C1358.7,126.8,1360,130.7,1360,135.7z M1354.8,135.7
			c0-3.9-0.7-6.8-2.1-8.6c-1.4-1.9-3.4-2.8-6-2.8c-2.6,0-4.6,0.9-6.1,2.8s-2.1,4.8-2.1,8.6c0,3.8,0.7,6.6,2.1,8.5s3.4,2.9,6.1,2.9
			c2.6,0,4.6-1,6-2.9C1354,142.4,1354.8,139.5,1354.8,135.7z"/>
		<path class="st8" d="M1388.6,150.6h-5v-17c0-1.4-0.1-2.7-0.2-3.8s-0.4-2.1-0.8-2.9c-0.4-0.8-1-1.3-1.7-1.7c-0.7-0.4-1.7-0.5-3-0.5
			c-1.3,0-2.5,0.3-3.9,1s-2.6,1.5-3.9,2.6v22.3h-5v-29.9h5v3.3c1.5-1.3,3-2.4,4.4-3.1c1.5-0.7,3-1.1,4.6-1.1c2.9,0,5.2,1,6.9,2.9
			s2.5,4.7,2.5,8.4V150.6z"/>
		<path class="st8" d="M1403.8,151.4c-2,0-3.9-0.3-5.6-0.8c-1.7-0.5-3.2-1.1-4.3-1.7v-5.7h0.3c0.4,0.3,0.9,0.7,1.5,1.1
			c0.6,0.4,1.4,0.8,2.3,1.3c0.9,0.4,1.8,0.7,2.8,1c1,0.3,2.1,0.5,3.2,0.5c0.8,0,1.7-0.1,2.6-0.3c0.9-0.2,1.6-0.4,2-0.7
			c0.6-0.4,1.1-0.8,1.4-1.3c0.3-0.5,0.4-1.2,0.4-2.1c0-1.2-0.3-2.1-1-2.7c-0.7-0.6-1.8-1.1-3.5-1.5c-0.6-0.2-1.5-0.3-2.5-0.6
			c-1-0.2-2-0.4-2.9-0.7c-2.3-0.7-3.9-1.7-5-3.1c-1-1.4-1.6-3.1-1.6-5c0-2.7,1-4.9,3.1-6.6c2-1.7,4.7-2.5,8.1-2.5
			c1.7,0,3.3,0.2,5,0.6c1.7,0.4,3.1,0.9,4.2,1.6v5.4h-0.3c-1.3-1-2.7-1.8-4.3-2.4c-1.6-0.6-3.2-0.9-4.8-0.9c-1.7,0-3.1,0.3-4.2,1
			s-1.7,1.8-1.7,3.2c0,1.3,0.3,2.2,1,2.8s1.8,1.1,3.3,1.5c0.8,0.2,1.6,0.4,2.5,0.6c0.9,0.2,1.9,0.4,2.9,0.7c2.2,0.6,3.9,1.5,5,2.8
			c1.1,1.3,1.7,3,1.7,5.3c0,1.3-0.3,2.5-0.8,3.7c-0.5,1.2-1.3,2.1-2.2,3c-1.1,0.9-2.3,1.6-3.6,2
			C1407.5,151.1,1405.8,151.4,1403.8,151.4z"/>
	</g>
	<g>
		
			<linearGradient id="SVGID_17_" gradientUnits="userSpaceOnUse" x1="17.7543" y1="-170.1673" x2="17.7543" y2="-215.0284" gradientTransform="matrix(0.9772 -0.2125 0.2125 0.9772 60.3767 234.9461)">
			<stop  offset="0" style="stop-color:#2B3990"/>
			<stop  offset="1" style="stop-color:#1C75BC"/>
		</linearGradient>
		<path class="st17" d="M49.1,45.1C45,38.8,34.6,33.5,34.3,20.6c-7.1,6.1-9,24.7-8,33.3c0,0,0,0.1,0,0.1c0,0,0,0,0,0
			c0,0.4,0.1,0.8,0.2,1.2c1.5,6.8,8.2,11.2,15.1,9.7c6.8-1.5,11.2-8.2,9.7-15.1C50.9,48.1,50.1,46.4,49.1,45.1z"/>
		
			<linearGradient id="SVGID_18_" gradientUnits="userSpaceOnUse" x1="2021.2173" y1="154.7083" x2="2021.2173" y2="104.6407" gradientTransform="matrix(-1.2498 -0.1067 -0.1031 1.2081 2584.6572 98.008)">
			<stop  offset="0" style="stop-color:#262262"/>
			<stop  offset="1" style="stop-color:#1C75BC"/>
		</linearGradient>
		<path class="st18" d="M28.5,43.9c4.6-9.1,17.9-17.9,16-35.4c11,7,17,31.7,17.2,43.4c0,0.1,0,0.1,0,0.2c0,0,0,0,0,0.1
			c0,0.5,0,1-0.1,1.6c-0.8,9.4-9.4,16.4-19.1,15.6c-9.7-0.8-17-9.1-16.2-18.6C26.6,48.2,27.3,46,28.5,43.9z"/>
		<linearGradient id="SVGID_19_" gradientUnits="userSpaceOnUse" x1="44.0241" y1="40.6398" x2="44.0241" y2="69.3499">
			<stop  offset="0" style="stop-color:#00A79D"/>
			<stop  offset="1" style="stop-color:#1C75BC"/>
		</linearGradient>
		<path class="st19" d="M53.4,54.9C51.2,49.2,42.1,51,44,40.6C37.3,44.3,34.5,51,33.8,58c0,0,0,0.1,0,0.1c0,0,0,0,0,0
			c0,0.3,0,0.6,0,0.9c0,5.7,4.6,10.3,10.3,10.3s10.3-4.6,10.3-10.3C54.3,57.6,54,56.2,53.4,54.9z"/>
		
			<linearGradient id="SVGID_20_" gradientUnits="userSpaceOnUse" x1="2223.9758" y1="69.3499" x2="2223.9758" y2="49.3637" gradientTransform="matrix(-1 0 0 1 2268 0)">
			<stop  offset="0" style="stop-color:#D1D3D4"/>
			<stop  offset="1" style="stop-color:#FFFFFF"/>
		</linearGradient>
		<path class="st20" d="M37.5,59.3c1.5-4,7.9-2.7,6.5-9.9c4.7,2.5,6.6,7.2,7.1,12.1c0,0,0,0.1,0,0.1c0,0,0,0,0,0c0,0.2,0,0.4,0,0.7
			c0,3.9-3.2,7.1-7.1,7.1s-7.1-3.2-7.1-7.1C36.9,61.2,37.1,60.2,37.5,59.3z"/>
	</g>
	<g>
		<path class="st8" d="M119.6,16.2l-17.2,50.1H89.2L72,16.2h13.1L96,50.2l10.9-33.9H119.6z"/>
		<path class="st8" d="M168.9,41.3c0,4.7-1,8.8-3.1,12.5c-2,3.7-4.6,6.5-7.7,8.5c-2.6,1.7-5.4,2.8-8.5,3.2c-3.1,0.5-6.3,0.7-9.8,0.7
			h-15.7V16.2h15.5c3.5,0,6.8,0.2,9.9,0.7c3.1,0.4,6,1.5,8.6,3.3c3.3,2.1,5.9,5,7.8,8.5C168,32.3,168.9,36.5,168.9,41.3z M156,41.2
			c0-3.3-0.6-6.1-1.7-8.5c-1.1-2.3-2.9-4.2-5.2-5.5c-1.7-0.9-3.5-1.5-5.4-1.5c-1.9-0.1-4.1-0.1-6.7-0.1h-0.2v31.4h0.2
			c2.8,0,5.2-0.1,7.1-0.2c1.9-0.1,3.8-0.7,5.5-1.8c2.1-1.3,3.6-3.1,4.7-5.4C155.5,47.3,156,44.5,156,41.2z"/>
		<path class="st8" d="M222.7,66.3h-15.3l-14-18.4h-4.5v18.4h-12.5V16.2h20.1c2.8,0,5.2,0.2,7.3,0.5c2.1,0.3,4,1.1,5.7,2.2
			c1.8,1.1,3.2,2.6,4.3,4.4c1.1,1.8,1.6,4,1.6,6.7c0,3.8-0.9,6.9-2.6,9.3c-1.7,2.4-4,4.3-6.9,5.7L222.7,66.3z M202.4,31.6
			c0-1.3-0.2-2.3-0.7-3.2c-0.5-0.9-1.3-1.6-2.4-2.1c-0.8-0.3-1.7-0.5-2.6-0.6c-1-0.1-2.2-0.1-3.6-0.1h-4.2v13.5h3.6
			c1.7,0,3.2-0.1,4.5-0.3c1.2-0.2,2.3-0.7,3.1-1.4c0.8-0.6,1.4-1.4,1.8-2.3C202.3,34.1,202.4,33,202.4,31.6z"/>
	</g>
	<g>
		<path class="st8" d="M255.1,66.2c-3.2,0-6.1-0.5-8.8-1.6c-2.7-1.1-5-2.7-6.9-4.8c-1.9-2.1-3.4-4.8-4.5-7.9s-1.6-6.8-1.6-10.9
			c0-4.1,0.5-7.6,1.6-10.7c1-3,2.5-5.7,4.5-7.9c1.9-2.2,4.2-3.8,6.9-5c2.7-1.1,5.6-1.7,8.9-1.7c1.6,0,3.2,0.1,4.6,0.4
			c1.4,0.2,2.8,0.5,4,0.9c1,0.3,2.1,0.7,3.2,1.2c1.1,0.5,2.2,1,3.3,1.6v7.8h-0.5c-0.6-0.5-1.3-1.2-2.2-1.9c-0.9-0.7-2-1.5-3.3-2.2
			c-1.2-0.7-2.6-1.2-4.1-1.7c-1.5-0.4-3.2-0.7-5.1-0.7c-2.1,0-4,0.4-5.9,1.3c-1.9,0.9-3.5,2.1-4.9,3.8c-1.4,1.7-2.4,3.7-3.2,6.2
			c-0.8,2.5-1.1,5.3-1.1,8.5c0,3.3,0.4,6.2,1.2,8.6c0.8,2.4,1.9,4.4,3.3,6.1c1.4,1.6,2.9,2.8,4.8,3.6c1.8,0.8,3.8,1.2,5.8,1.2
			c1.9,0,3.6-0.2,5.2-0.7c1.6-0.5,3-1,4.3-1.7c1.2-0.7,2.2-1.4,3.1-2.1c0.9-0.7,1.6-1.3,2.1-1.8h0.5V62c-1.1,0.5-2.1,1-3,1.4
			c-0.9,0.5-2.1,0.9-3.5,1.3c-1.4,0.5-2.7,0.8-3.9,1C258.6,66.1,257,66.2,255.1,66.2z"/>
		<path class="st8" d="M305.9,47.1c0,6.2-1.5,10.9-4.5,14.3c-3,3.3-6.9,5-11.8,5c-5.1,0-9.1-1.7-12-5.2c-2.9-3.5-4.4-8.2-4.4-14.1
			c0-6.1,1.5-10.9,4.5-14.2c3-3.4,7-5.1,11.9-5.1c4.9,0,8.9,1.7,11.8,5.1C304.4,36.2,305.9,40.9,305.9,47.1z M299.5,47.1
			c0-4.7-0.9-8.3-2.6-10.6c-1.7-2.3-4.2-3.5-7.4-3.5c-3.2,0-5.7,1.2-7.4,3.5c-1.7,2.3-2.6,5.8-2.6,10.6c0,4.6,0.9,8.1,2.6,10.4
			c1.7,2.4,4.2,3.6,7.4,3.6c3.2,0,5.6-1.2,7.3-3.5C298.7,55.2,299.5,51.7,299.5,47.1z"/>
		<path class="st8" d="M340.9,65.3h-6.2V44.5c0-1.7-0.1-3.2-0.2-4.7c-0.2-1.5-0.5-2.6-0.9-3.5c-0.5-0.9-1.2-1.6-2.1-2
			c-0.9-0.4-2.1-0.7-3.7-0.7c-1.5,0-3.1,0.4-4.7,1.2c-1.6,0.8-3.2,1.9-4.8,3.2v27.3h-6.2V28.8h6.2v4.1c1.8-1.6,3.6-2.9,5.4-3.8
			c1.8-0.9,3.7-1.3,5.7-1.3c3.6,0,6.4,1.2,8.4,3.6c2,2.4,3,5.8,3,10.3V65.3z"/>
		<path class="st8" d="M359.4,66.2c-2.4,0-4.7-0.3-6.9-1c-2.1-0.7-3.9-1.4-5.3-2.1v-6.9h0.3c0.5,0.4,1.1,0.9,1.8,1.4
			c0.7,0.5,1.7,1,2.8,1.6c1,0.5,2.2,0.9,3.5,1.3c1.3,0.4,2.6,0.6,3.9,0.6c1,0,2-0.1,3.1-0.3c1.1-0.2,1.9-0.5,2.5-0.9
			c0.8-0.5,1.3-1,1.7-1.6c0.3-0.6,0.5-1.4,0.5-2.6c0-1.5-0.4-2.6-1.2-3.3c-0.8-0.7-2.2-1.4-4.2-1.9c-0.8-0.2-1.8-0.4-3.1-0.7
			c-1.3-0.3-2.4-0.5-3.5-0.9c-2.8-0.8-4.8-2.1-6.1-3.7c-1.3-1.7-1.9-3.7-1.9-6.1c0-3.3,1.2-6,3.7-8c2.5-2.1,5.8-3.1,9.9-3.1
			c2,0,4.1,0.3,6.1,0.8c2.1,0.5,3.8,1.1,5.2,1.9v6.6h-0.3c-1.6-1.2-3.3-2.2-5.3-2.9c-1.9-0.7-3.9-1.1-5.8-1.1c-2,0-3.7,0.4-5.1,1.3
			s-2.1,2.1-2.1,3.9c0,1.5,0.4,2.7,1.2,3.4c0.8,0.8,2.2,1.4,4,1.8c0.9,0.2,1.9,0.5,3.1,0.7c1.1,0.2,2.3,0.5,3.6,0.8
			c2.7,0.7,4.7,1.8,6.1,3.4c1.4,1.6,2,3.7,2,6.4c0,1.6-0.3,3.1-0.9,4.5c-0.6,1.4-1.5,2.6-2.7,3.6c-1.3,1.1-2.8,1.9-4.4,2.5
			C364,65.9,361.9,66.2,359.4,66.2z"/>
		<path class="st8" d="M390.5,66c-3.4,0-6-1-7.9-2.9c-1.9-1.9-2.8-4.9-2.8-9V33.9h-4.2v-5.1h4.2V18.3h6.2v10.5h11.3v5.1H386v17.4
			c0,1.9,0,3.3,0.1,4.3c0.1,1,0.3,1.9,0.8,2.8c0.4,0.8,1,1.3,1.8,1.7s2,0.6,3.4,0.6c1,0,2-0.1,2.9-0.4c0.9-0.3,1.6-0.5,2-0.7h0.4V65
			c-1.2,0.3-2.3,0.6-3.5,0.8C392.6,65.9,391.5,66,390.5,66z"/>
		<path class="st8" d="M421.3,35.4h-0.3c-0.5-0.1-0.9-0.2-1.5-0.2c-0.5,0-1.1,0-1.8,0c-1.7,0-3.3,0.4-4.9,1.1
			c-1.6,0.7-3.2,1.8-4.6,3.2v25.9h-6.2V28.8h6.2v5.4c2.2-2,4.2-3.4,5.9-4.2c1.7-0.8,3.3-1.2,4.9-1.2c0.6,0,1.1,0,1.4,0
			c0.3,0,0.7,0.1,1.1,0.1V35.4z"/>
		<path class="st8" d="M454.5,65.3h-6.2v-4.1c-1.9,1.7-3.7,2.9-5.4,3.8c-1.7,0.9-3.6,1.3-5.7,1.3c-1.6,0-3.1-0.3-4.5-0.8
			c-1.4-0.5-2.6-1.4-3.7-2.5c-1-1.1-1.9-2.6-2.4-4.3c-0.6-1.7-0.9-3.8-0.9-6.3V28.8h6.2v20.8c0,1.9,0.1,3.6,0.2,4.8
			c0.1,1.3,0.5,2.4,1,3.4c0.5,0.9,1.2,1.6,2,2.1c0.9,0.4,2.1,0.7,3.7,0.7c1.5,0,3.1-0.4,4.8-1.3c1.7-0.9,3.3-1.9,4.7-3.1V28.8h6.2
			V65.3z"/>
		<path class="st8" d="M477.9,66.1c-2.5,0-4.8-0.4-6.9-1.2c-2.1-0.8-3.9-1.9-5.4-3.5c-1.5-1.6-2.7-3.6-3.5-5.9
			c-0.8-2.4-1.2-5.2-1.2-8.4c0-3.2,0.4-6,1.3-8.3c0.9-2.3,2-4.3,3.5-5.9c1.4-1.6,3.2-2.8,5.4-3.7c2.1-0.9,4.5-1.3,6.9-1.3
			c2,0,3.9,0.3,5.8,0.9c1.9,0.6,3.5,1.2,5,2v6.9h-0.4c-0.4-0.4-1-0.8-1.7-1.3c-0.7-0.5-1.5-1-2.5-1.5c-0.9-0.4-1.9-0.8-3-1.1
			s-2.3-0.5-3.3-0.5c-3.2,0-5.7,1.2-7.7,3.6c-1.9,2.4-2.9,5.8-2.9,10.2c0,4.3,0.9,7.7,2.8,10.1c1.9,2.4,4.5,3.6,7.8,3.6
			c2,0,3.9-0.4,5.7-1.2c1.8-0.8,3.4-1.9,4.8-3.2h0.4v6.9c-0.6,0.3-1.4,0.6-2.3,1c-0.9,0.4-1.7,0.7-2.5,0.9c-1,0.3-2,0.5-2.8,0.7
			S479.2,66.1,477.9,66.1z"/>
		<path class="st8" d="M505.4,66c-3.4,0-6-1-7.9-2.9c-1.9-1.9-2.8-4.9-2.8-9V33.9h-4.2v-5.1h4.2V18.3h6.2v10.5h11.3v5.1h-11.3v17.4
			c0,1.9,0,3.3,0.1,4.3c0.1,1,0.3,1.9,0.8,2.8c0.4,0.8,1,1.3,1.8,1.7s2,0.6,3.4,0.6c1,0,2-0.1,2.9-0.4c0.9-0.3,1.6-0.5,2-0.7h0.4V65
			c-1.2,0.3-2.3,0.6-3.5,0.8C507.5,65.9,506.4,66,505.4,66z"/>
		<path class="st8" d="M523.5,22.6h-7v-6.4h7V22.6z M523,65.3h-6.2V28.8h6.2V65.3z"/>
		<path class="st8" d="M562.1,47.1c0,6.2-1.5,10.9-4.5,14.3c-3,3.3-6.9,5-11.8,5c-5.1,0-9.1-1.7-12-5.2c-2.9-3.5-4.4-8.2-4.4-14.1
			c0-6.1,1.5-10.9,4.5-14.2c3-3.4,7-5.1,11.9-5.1c4.9,0,8.9,1.7,11.8,5.1C560.6,36.2,562.1,40.9,562.1,47.1z M555.8,47.1
			c0-4.7-0.9-8.3-2.6-10.6c-1.7-2.3-4.2-3.5-7.4-3.5c-3.2,0-5.7,1.2-7.4,3.5c-1.7,2.3-2.6,5.8-2.6,10.6c0,4.6,0.9,8.1,2.6,10.4
			s4.2,3.6,7.4,3.6c3.2,0,5.6-1.2,7.3-3.5C554.9,55.2,555.8,51.7,555.8,47.1z"/>
		<path class="st8" d="M597.2,65.3H591V44.5c0-1.7-0.1-3.2-0.2-4.7c-0.2-1.5-0.5-2.6-0.9-3.5c-0.5-0.9-1.2-1.6-2.1-2
			c-0.9-0.4-2.1-0.7-3.7-0.7c-1.5,0-3.1,0.4-4.7,1.2s-3.2,1.9-4.8,3.2v27.3h-6.2V28.8h6.2v4.1c1.8-1.6,3.6-2.9,5.4-3.8
			c1.8-0.9,3.7-1.3,5.7-1.3c3.6,0,6.4,1.2,8.4,3.6c2,2.4,3,5.8,3,10.3V65.3z"/>
		<path class="st8" d="M615.7,66.2c-2.4,0-4.7-0.3-6.9-1c-2.1-0.7-3.9-1.4-5.3-2.1v-6.9h0.3c0.5,0.4,1.1,0.9,1.8,1.4
			c0.7,0.5,1.7,1,2.8,1.6c1,0.5,2.2,0.9,3.5,1.3c1.3,0.4,2.6,0.6,3.9,0.6c1,0,2-0.1,3.1-0.3c1.1-0.2,1.9-0.5,2.5-0.9
			c0.8-0.5,1.3-1,1.7-1.6c0.3-0.6,0.5-1.4,0.5-2.6c0-1.5-0.4-2.6-1.2-3.3c-0.8-0.7-2.2-1.4-4.2-1.9c-0.8-0.2-1.8-0.4-3.1-0.7
			c-1.3-0.3-2.4-0.5-3.5-0.9c-2.8-0.8-4.8-2.1-6.1-3.7c-1.3-1.7-1.9-3.7-1.9-6.1c0-3.3,1.2-6,3.7-8c2.5-2.1,5.8-3.1,9.9-3.1
			c2,0,4.1,0.3,6.1,0.8c2.1,0.5,3.8,1.1,5.2,1.9v6.6h-0.3c-1.6-1.2-3.3-2.2-5.3-2.9c-1.9-0.7-3.9-1.1-5.8-1.1c-2,0-3.7,0.4-5.1,1.3
			c-1.4,0.9-2.1,2.1-2.1,3.9c0,1.5,0.4,2.7,1.2,3.4c0.8,0.8,2.2,1.4,4,1.8c0.9,0.2,1.9,0.5,3.1,0.7c1.1,0.2,2.3,0.5,3.6,0.8
			c2.7,0.7,4.7,1.8,6.1,3.4c1.4,1.6,2,3.7,2,6.4c0,1.6-0.3,3.1-0.9,4.5c-0.6,1.4-1.5,2.6-2.7,3.6c-1.3,1.1-2.8,1.9-4.4,2.5
			C620.3,65.9,618.2,66.2,615.7,66.2z"/>
	</g>
	<g>
		<path class="st8" d="M994.1,270.1l-20.3,59.1h-15.5L938,270.1h15.4l12.9,40l12.9-40H994.1z"/>
		<path class="st8" d="M1052.4,299.8c0,5.5-1.2,10.4-3.6,14.8c-2.4,4.4-5.5,7.7-9.1,10c-3.1,2-6.4,3.3-10,3.8
			c-3.6,0.6-7.5,0.9-11.5,0.9h-18.5v-59.1h18.3c4.2,0,8,0.3,11.7,0.8c3.6,0.5,7,1.8,10.2,3.8c3.9,2.5,7,5.8,9.2,10.1
			C1051.3,289.1,1052.4,294,1052.4,299.8z M1037.1,299.6c0-3.9-0.7-7.2-2-10c-1.3-2.8-3.4-4.9-6.2-6.5c-2-1.1-4.1-1.7-6.3-1.8
			c-2.2-0.1-4.8-0.2-7.9-0.2h-0.3v37h0.3c3.3,0,6.1-0.1,8.4-0.2c2.3-0.1,4.5-0.8,6.5-2.1c2.4-1.5,4.3-3.7,5.6-6.3
			C1036.5,306.8,1037.1,303.5,1037.1,299.6z"/>
		<path class="st8" d="M1115.8,329.2h-18.1l-16.5-21.7h-5.3v21.7h-14.8v-59.1h23.8c3.3,0,6.1,0.2,8.6,0.6c2.4,0.4,4.7,1.3,6.7,2.6
			c2.1,1.3,3.8,3.1,5,5.1c1.2,2.1,1.9,4.7,1.9,7.9c0,4.5-1,8.2-3.1,11c-2,2.8-4.8,5.1-8.2,6.7L1115.8,329.2z M1091.9,288.2
			c0-1.5-0.3-2.8-0.9-3.8c-0.6-1.1-1.5-1.9-2.8-2.5c-0.9-0.4-2-0.6-3.1-0.8c-1.1-0.1-2.6-0.2-4.2-0.2h-5v15.9h4.2
			c2.1,0,3.8-0.1,5.3-0.4c1.4-0.3,2.7-0.8,3.7-1.6c1-0.7,1.7-1.6,2.1-2.7C1091.7,291.3,1091.9,289.9,1091.9,288.2z"/>
	</g>
	<g>
		<path class="st8" d="M971.1,378.7c-2.6,0-5-0.4-7.2-1.3c-2.2-0.9-4.1-2.2-5.7-3.9c-1.6-1.7-2.8-3.9-3.7-6.5s-1.3-5.6-1.3-8.9
			c0-3.3,0.4-6.3,1.3-8.7c0.8-2.5,2.1-4.6,3.7-6.5c1.6-1.8,3.5-3.1,5.7-4.1c2.2-0.9,4.6-1.4,7.3-1.4c1.3,0,2.6,0.1,3.8,0.3
			c1.2,0.2,2.3,0.4,3.3,0.8c0.9,0.3,1.7,0.6,2.6,1c0.9,0.4,1.8,0.8,2.7,1.3v6.4h-0.4c-0.5-0.4-1.1-0.9-1.8-1.6
			c-0.7-0.6-1.6-1.2-2.7-1.8c-1-0.6-2.1-1-3.3-1.4c-1.2-0.4-2.6-0.5-4.2-0.5c-1.7,0-3.3,0.3-4.8,1c-1.5,0.7-2.8,1.7-4,3.1
			c-1.1,1.4-2,3.1-2.6,5.1c-0.6,2.1-0.9,4.4-0.9,6.9c0,2.7,0.3,5.1,1,7.1c0.7,2,1.6,3.6,2.7,5c1.1,1.3,2.4,2.3,3.9,3s3.1,1,4.8,1
			c1.5,0,3-0.2,4.3-0.6c1.3-0.4,2.5-0.8,3.5-1.4c1-0.6,1.8-1.1,2.5-1.7c0.7-0.6,1.3-1.1,1.7-1.5h0.4v6.3c-0.9,0.4-1.7,0.8-2.5,1.2
			s-1.7,0.7-2.8,1.1c-1.2,0.4-2.2,0.7-3.2,0.9C974,378.6,972.7,378.7,971.1,378.7z"/>
		<path class="st8" d="M1012.7,363.1c0,5-1.2,8.9-3.6,11.7c-2.4,2.7-5.7,4.1-9.7,4.1c-4.2,0-7.4-1.4-9.8-4.2s-3.6-6.7-3.6-11.5
			c0-5,1.2-8.9,3.7-11.7c2.5-2.8,5.7-4.2,9.7-4.2c4,0,7.3,1.4,9.7,4.1C1011.5,354.1,1012.7,358,1012.7,363.1z M1007.5,363.1
			c0-3.9-0.7-6.8-2.1-8.6s-3.4-2.8-6-2.8c-2.6,0-4.6,0.9-6.1,2.8c-1.4,1.9-2.1,4.8-2.1,8.6c0,3.8,0.7,6.6,2.1,8.5
			c1.4,1.9,3.4,2.9,6.1,2.9c2.6,0,4.6-1,6-2.9C1006.8,369.7,1007.5,366.9,1007.5,363.1z"/>
		<path class="st8" d="M1041.4,378h-5v-17c0-1.4-0.1-2.7-0.2-3.8s-0.4-2.1-0.8-2.9c-0.4-0.8-1-1.3-1.7-1.7c-0.7-0.4-1.7-0.5-3-0.5
			c-1.3,0-2.5,0.3-3.9,1c-1.3,0.7-2.6,1.5-3.9,2.6V378h-5v-29.9h5v3.3c1.5-1.3,3-2.4,4.4-3.1c1.5-0.7,3-1.1,4.6-1.1
			c2.9,0,5.2,1,6.9,2.9s2.5,4.7,2.5,8.4V378z"/>
		<path class="st8" d="M1056.5,378.7c-2,0-3.9-0.3-5.6-0.8c-1.7-0.5-3.2-1.1-4.3-1.7v-5.7h0.3c0.4,0.3,0.9,0.7,1.5,1.1
			c0.6,0.4,1.4,0.8,2.3,1.3c0.9,0.4,1.8,0.7,2.8,1c1,0.3,2.1,0.5,3.2,0.5c0.8,0,1.7-0.1,2.6-0.3c0.9-0.2,1.6-0.4,2-0.7
			c0.6-0.4,1.1-0.8,1.4-1.3c0.3-0.5,0.4-1.2,0.4-2.1c0-1.2-0.3-2.1-1-2.7c-0.7-0.6-1.8-1.1-3.5-1.5c-0.6-0.2-1.5-0.3-2.5-0.6
			c-1-0.2-2-0.4-2.9-0.7c-2.3-0.7-3.9-1.7-5-3.1c-1-1.4-1.6-3.1-1.6-5c0-2.7,1-4.9,3.1-6.6c2-1.7,4.7-2.5,8.1-2.5
			c1.7,0,3.3,0.2,5,0.6c1.7,0.4,3.1,0.9,4.2,1.6v5.4h-0.3c-1.3-1-2.7-1.8-4.3-2.4c-1.6-0.6-3.2-0.9-4.8-0.9c-1.7,0-3.1,0.3-4.2,1
			s-1.7,1.8-1.7,3.2c0,1.3,0.3,2.2,1,2.8s1.8,1.1,3.3,1.5c0.8,0.2,1.6,0.4,2.5,0.6c0.9,0.2,1.9,0.4,2.9,0.7c2.2,0.6,3.9,1.5,5,2.8
			c1.1,1.3,1.7,3,1.7,5.3c0,1.3-0.3,2.5-0.8,3.7c-0.5,1.2-1.3,2.1-2.2,3c-1.1,0.9-2.3,1.6-3.6,2
			C1060.3,378.5,1058.6,378.7,1056.5,378.7z"/>
		<path class="st8" d="M1082,378.6c-2.8,0-4.9-0.8-6.4-2.3c-1.5-1.6-2.3-4-2.3-7.4v-16.6h-3.4v-4.2h3.4v-8.6h5v8.6h9.3v4.2h-9.3
			v14.2c0,1.5,0,2.7,0.1,3.5s0.3,1.6,0.6,2.3c0.3,0.6,0.8,1.1,1.5,1.4s1.6,0.5,2.8,0.5c0.8,0,1.6-0.1,2.4-0.4
			c0.8-0.2,1.3-0.4,1.7-0.6h0.3v4.5c-0.9,0.3-1.9,0.5-2.9,0.6S1082.8,378.6,1082,378.6z"/>
		<path class="st8" d="M1107.1,353.5h-0.3c-0.4-0.1-0.8-0.2-1.2-0.2c-0.4,0-0.9,0-1.5,0c-1.4,0-2.7,0.3-4,0.9
			c-1.3,0.6-2.6,1.5-3.8,2.6V378h-5v-29.9h5v4.4c1.8-1.6,3.4-2.8,4.8-3.4c1.4-0.7,2.7-1,4-1c0.5,0,0.9,0,1.2,0
			c0.3,0,0.5,0.1,0.9,0.1V353.5z"/>
		<path class="st8" d="M1134.4,378h-5v-3.3c-1.6,1.4-3,2.4-4.4,3.1c-1.4,0.7-2.9,1.1-4.7,1.1c-1.3,0-2.5-0.2-3.7-0.6
			c-1.2-0.4-2.2-1.1-3-2c-0.9-0.9-1.5-2.1-2-3.5c-0.5-1.4-0.7-3.1-0.7-5.1v-19.4h5v17c0,1.6,0.1,2.9,0.2,4s0.4,2,0.8,2.7
			c0.4,0.8,1,1.3,1.7,1.7c0.7,0.4,1.7,0.5,3,0.5c1.2,0,2.5-0.3,3.9-1s2.7-1.6,3.8-2.6v-22.3h5V378z"/>
		<path class="st8" d="M1153.5,378.7c-2.1,0-3.9-0.3-5.7-1c-1.7-0.6-3.2-1.6-4.4-2.9c-1.2-1.3-2.2-2.9-2.9-4.9c-0.7-2-1-4.3-1-6.9
			c0-2.6,0.4-4.9,1.1-6.8c0.7-1.9,1.6-3.5,2.8-4.8c1.2-1.3,2.6-2.3,4.4-3c1.8-0.7,3.6-1.1,5.7-1.1c1.6,0,3.2,0.2,4.8,0.7
			c1.5,0.5,2.9,1,4.1,1.6v5.7h-0.3c-0.4-0.3-0.8-0.7-1.4-1c-0.6-0.4-1.2-0.8-2-1.2c-0.7-0.4-1.5-0.7-2.5-0.9s-1.9-0.4-2.7-0.4
			c-2.6,0-4.7,1-6.3,3c-1.6,2-2.4,4.8-2.4,8.4c0,3.5,0.8,6.3,2.3,8.3c1.5,2,3.6,3,6.4,3c1.6,0,3.2-0.3,4.7-1
			c1.5-0.7,2.8-1.6,3.9-2.6h0.3v5.7c-0.5,0.2-1.1,0.5-1.9,0.8c-0.8,0.3-1.4,0.6-2,0.7c-0.9,0.3-1.6,0.4-2.3,0.6
			S1154.6,378.7,1153.5,378.7z"/>
		<path class="st8" d="M1176,378.6c-2.8,0-4.9-0.8-6.4-2.3c-1.5-1.6-2.3-4-2.3-7.4v-16.6h-3.4v-4.2h3.4v-8.6h5v8.6h9.3v4.2h-9.3
			v14.2c0,1.5,0,2.7,0.1,3.5s0.3,1.6,0.6,2.3c0.3,0.6,0.8,1.1,1.5,1.4s1.6,0.5,2.8,0.5c0.8,0,1.6-0.1,2.4-0.4
			c0.8-0.2,1.3-0.4,1.7-0.6h0.3v4.5c-0.9,0.3-1.9,0.5-2.9,0.6S1176.8,378.6,1176,378.6z"/>
		<path class="st8" d="M1190.8,343.1h-5.7v-5.2h5.7V343.1z M1190.4,378h-5v-29.9h5V378z"/>
		<path class="st8" d="M1222.4,363.1c0,5-1.2,8.9-3.6,11.7s-5.7,4.1-9.7,4.1c-4.2,0-7.4-1.4-9.8-4.2s-3.6-6.7-3.6-11.5
			c0-5,1.2-8.9,3.7-11.7c2.5-2.8,5.7-4.2,9.7-4.2c4,0,7.3,1.4,9.7,4.1C1221.2,354.1,1222.4,358,1222.4,363.1z M1217.3,363.1
			c0-3.9-0.7-6.8-2.1-8.6c-1.4-1.9-3.4-2.8-6-2.8c-2.6,0-4.6,0.9-6.1,2.8s-2.1,4.8-2.1,8.6c0,3.8,0.7,6.6,2.1,8.5s3.4,2.9,6.1,2.9
			c2.6,0,4.6-1,6-2.9C1216.5,369.7,1217.3,366.9,1217.3,363.1z"/>
		<path class="st8" d="M1251.1,378h-5v-17c0-1.4-0.1-2.7-0.2-3.8s-0.4-2.1-0.8-2.9c-0.4-0.8-1-1.3-1.7-1.7c-0.7-0.4-1.7-0.5-3-0.5
			c-1.3,0-2.5,0.3-3.9,1s-2.6,1.5-3.9,2.6V378h-5v-29.9h5v3.3c1.5-1.3,3-2.4,4.4-3.1c1.5-0.7,3-1.1,4.6-1.1c2.9,0,5.2,1,6.9,2.9
			s2.5,4.7,2.5,8.4V378z"/>
		<path class="st8" d="M1266.3,378.7c-2,0-3.9-0.3-5.6-0.8c-1.7-0.5-3.2-1.1-4.3-1.7v-5.7h0.3c0.4,0.3,0.9,0.7,1.5,1.1
			c0.6,0.4,1.4,0.8,2.3,1.3c0.9,0.4,1.8,0.7,2.8,1c1,0.3,2.1,0.5,3.2,0.5c0.8,0,1.7-0.1,2.6-0.3c0.9-0.2,1.6-0.4,2-0.7
			c0.6-0.4,1.1-0.8,1.4-1.3c0.3-0.5,0.4-1.2,0.4-2.1c0-1.2-0.3-2.1-1-2.7c-0.7-0.6-1.8-1.1-3.5-1.5c-0.6-0.2-1.5-0.3-2.5-0.6
			c-1-0.2-2-0.4-2.9-0.7c-2.3-0.7-3.9-1.7-5-3.1c-1-1.4-1.6-3.1-1.6-5c0-2.7,1-4.9,3.1-6.6c2-1.7,4.7-2.5,8.1-2.5
			c1.7,0,3.3,0.2,5,0.6c1.7,0.4,3.1,0.9,4.2,1.6v5.4h-0.3c-1.3-1-2.7-1.8-4.3-2.4c-1.6-0.6-3.2-0.9-4.8-0.9c-1.7,0-3.1,0.3-4.2,1
			s-1.7,1.8-1.7,3.2c0,1.3,0.3,2.2,1,2.8s1.8,1.1,3.3,1.5c0.8,0.2,1.6,0.4,2.5,0.6c0.9,0.2,1.9,0.4,2.9,0.7c2.2,0.6,3.9,1.5,5,2.8
			c1.1,1.3,1.7,3,1.7,5.3c0,1.3-0.3,2.5-0.8,3.7c-0.5,1.2-1.3,2.1-2.2,3c-1.1,0.9-2.3,1.6-3.6,2
			C1270,378.5,1268.3,378.7,1266.3,378.7z"/>
	</g>
</g>
<g id="Layer_2">
</g>
</svg>
