<?xml version="1.0" encoding="utf-8"?>
<!-- Generator: Adobe Illustrator 19.1.0, SVG Export Plug-In . SVG Version: 6.00 Build 0)  -->
<svg version="1.1" xmlns="http://www.w3.org/2000/svg" xmlns:xlink="http://www.w3.org/1999/xlink" x="0px" y="0px"
	 viewBox="0 0 572.2 199.9" style="enable-background:new 0 0 572.2 199.9;" xml:space="preserve">
<style type="text/css">
	.st0{fill:#FFFFFF;}
	.st1{fill:url(#SVGID_1_);}
	.st2{fill:url(#SVGID_2_);}
	.st3{fill:url(#SVGID_3_);}
	.st4{fill:url(#SVGID_4_);}
	.st5{fill:url(#SVGID_5_);}
	.st6{fill:url(#SVGID_6_);}
	.st7{fill:url(#SVGID_7_);}
	.st8{fill:url(#SVGID_8_);}
	.st9{fill:url(#SVGID_9_);}
	.st10{fill:url(#SVGID_10_);}
	.st11{fill:url(#SVGID_11_);}
	.st12{fill:url(#SVGID_12_);}
	.st13{fill:url(#SVGID_13_);}
	.st14{fill:url(#SVGID_14_);}
	.st15{fill:url(#SVGID_15_);}
	.st16{fill:url(#SVGID_16_);}
	.st17{fill:url(#SVGID_17_);}
	.st18{fill:url(#SVGID_18_);}
	.st19{fill:url(#SVGID_19_);}
	.st20{fill:url(#SVGID_20_);}
	.st21{fill:url(#SVGID_21_);}
	.st22{fill:url(#SVGID_22_);}
	.st23{fill:url(#SVGID_23_);}
	.st24{fill:url(#SVGID_24_);}
	.st25{fill:url(#SVGID_25_);}
	.st26{fill:url(#SVGID_26_);}
	.st27{fill:url(#SVGID_27_);}
	.st28{fill:url(#SVGID_28_);}
	.st29{fill:url(#SVGID_29_);}
	.st30{fill:url(#SVGID_30_);}
	.st31{fill:url(#SVGID_31_);}
	.st32{fill:url(#SVGID_32_);}
	.st33{fill:url(#SVGID_33_);}
	.st34{fill:url(#SVGID_34_);}
	.st35{fill:url(#SVGID_35_);}
	.st36{fill:url(#SVGID_36_);}
</style>
<g id="Layer_3">
	<rect x="1010.7" y="-2071.1" width="1098" height="1025.5"/>
</g>
<g id="Layer_1">
	<path class="st0" d="M1868.1-1460.1l-46.2,134.3h-35.2l-46.2-134.3h35l29.2,91l29.2-91H1868.1z"/>
	<path class="st0" d="M1985.7-1392.8c0,12.5-2.7,23.7-8.2,33.6c-5.5,9.9-12.4,17.5-20.8,22.8c-7,4.5-14.6,7.4-22.8,8.7
		c-8.2,1.3-16.9,1.9-26.2,1.9h-42v-134.3h41.7c9.4,0,18.3,0.6,26.5,1.8c8.2,1.2,16,4.1,23.2,8.8c8.8,5.7,15.8,13.3,20.9,22.9
		C1983.2-1417.1,1985.7-1405.8,1985.7-1392.8z M1951.1-1393.1c0-8.8-1.5-16.4-4.6-22.7c-3-6.3-7.7-11.2-14-14.8
		c-4.6-2.5-9.4-3.9-14.4-4.2c-5-0.2-11-0.4-18-0.4c0,0-0.5,0-0.6,0c-18.6,0-17.3,84.1,0,84.1c0.2,0,0.6,0,0.6,0
		c7.6,0,14-0.1,19.2-0.4c5.2-0.3,10.1-1.9,14.8-4.8c5.5-3.5,9.7-8.3,12.6-14.4C1949.6-1376.7,1951.1-1384.2,1951.1-1393.1z"/>
	<path class="st0" d="M2107-1324.7h-41.1l-37.4-49.3h-12.1v49.3h-33.6v-134.3h54c7.5,0,14,0.5,19.5,1.4c5.5,0.9,10.6,2.9,15.3,5.8
		c4.8,3.1,8.6,7,11.5,11.7c2.8,4.7,4.2,10.7,4.2,18c0,10.3-2.3,18.6-6.9,25c-4.6,6.4-10.8,11.5-18.6,15.3L2107-1324.7z
		 M2052.6-1417.9c0-3.4-0.6-6.3-1.9-8.7c-1.3-2.4-3.4-4.3-6.5-5.6c-2.1-0.9-4.5-1.5-7-1.7c-2.6-0.2-5.8-0.4-9.7-0.4h-11.3v36.2h9.7
		c4.7,0,8.7-0.3,12-0.9c3.3-0.6,6.1-1.8,8.3-3.7c2.2-1.7,3.8-3.7,4.8-6C2052.1-1411.1,2052.6-1414.1,2052.6-1417.9z"/>
	<g>
		
			<linearGradient id="SVGID_1_" gradientUnits="userSpaceOnUse" x1="1827.3196" y1="-1244.4857" x2="1827.3196" y2="-1305.9108" gradientTransform="matrix(0.9772 -0.2125 0.2125 0.9772 392.7807 248.1669)">
			<stop  offset="0" style="stop-color:#2B3990"/>
			<stop  offset="1" style="stop-color:#1C75BC"/>
		</linearGradient>
		<path class="st1" d="M1910.2-1355.7c-7.9,0-14.8-6-16.4-14.2c-0.1-0.5-0.2-1.1-0.3-1.6l0-0.3c-1.1-9.8,0.7-32.6,9.5-40.8l5.7-5.3
			l0.2,7.8c0.2,9.2,5,14.4,9.7,19.4c2,2.2,3.9,4.3,5.4,6.6c1.3,2,2.3,4.2,2.8,6.7c1.9,9.6-3.8,19.1-12.8,21.2
			C1912.6-1355.8,1911.4-1355.7,1910.2-1355.7C1910.2-1355.7,1910.2-1355.7,1910.2-1355.7z"/>
		
			<linearGradient id="SVGID_2_" gradientUnits="userSpaceOnUse" x1="1827.3195" y1="-1247.9916" x2="1827.3195" y2="-1298.9076" gradientTransform="matrix(0.9772 -0.2125 0.2125 0.9772 392.7807 248.1669)">
			<stop  offset="0" style="stop-color:#2B3990"/>
			<stop  offset="1" style="stop-color:#1C75BC"/>
		</linearGradient>
		<path class="st2" d="M1920.9-1382.1c-4.4-7.1-15.2-13.1-15.6-27.9c-7.5,7-9.5,28.1-8.4,37.9c0,0.1,0,0.1,0,0.2c0,0,0,0,0,0.1
			c0,0.4,0.1,0.9,0.2,1.3c1.6,7.8,8.7,12.7,15.8,11c7.2-1.7,11.8-9.4,10.2-17.1C1922.8-1378.7,1922-1380.5,1920.9-1382.1z"/>
		
			<linearGradient id="SVGID_3_" gradientUnits="userSpaceOnUse" x1="935.4411" y1="-1402.2335" x2="935.4411" y2="-1467.7036" gradientTransform="matrix(-1.2498 -0.1067 -0.1031 1.2081 2938.1611 442.8134)">
			<stop  offset="0" style="stop-color:#262262"/>
			<stop  offset="1" style="stop-color:#1C75BC"/>
		</linearGradient>
		<path class="st3" d="M1915.7-1350.9c-0.7,0-1.3,0-2-0.1c-12.1-1.1-21.2-12.3-20.2-24.9c0.3-3.2,1.1-6.2,2.6-9
			c1.5-3.3,3.8-6.4,6.2-9.7c5.7-7.8,11.6-15.9,10.3-28.7l-0.8-7.6l6.2,4.3c13.3,9.2,19.4,39,19.6,52.2l0,0.3c0,0.7,0,1.4-0.1,2.1
			C1936.7-1360.2,1927.1-1350.9,1915.7-1350.9z"/>
		
			<linearGradient id="SVGID_4_" gradientUnits="userSpaceOnUse" x1="935.4412" y1="-1405.1248" x2="935.4412" y2="-1462.0835" gradientTransform="matrix(-1.2498 -0.1067 -0.1031 1.2081 2938.1611 442.8134)">
			<stop  offset="0" style="stop-color:#262262"/>
			<stop  offset="1" style="stop-color:#1C75BC"/>
		</linearGradient>
		<path class="st4" d="M1899.2-1383.4c4.8-10.4,18.9-20.4,16.9-40.3c11.5,8,17.9,36,18.1,49.3c0,0.1,0,0.1,0,0.2c0,0,0,0,0,0.1
			c0,0.6,0,1.2-0.1,1.8c-0.8,10.7-9.9,18.6-20.1,17.7c-10.3-0.9-17.9-10.4-17-21.1C1897.2-1378.5,1898-1381.1,1899.2-1383.4z"/>
		<linearGradient id="SVGID_5_" gradientUnits="userSpaceOnUse" x1="1915.5695" y1="-1394.1165" x2="1915.5695" y2="-1350.9409">
			<stop  offset="0" style="stop-color:#00A79D"/>
			<stop  offset="1" style="stop-color:#1C75BC"/>
		</linearGradient>
		<path class="st5" d="M1928.6-1372.7c-3.1-8.5-15.8-5.9-13.1-21.5c-9.3,5.5-13.3,15.6-14.2,26.1c0,0.1,0,0.1,0,0.2c0,0,0,0,0,0.1
			c0,0.5-0.1,0.9-0.1,1.4c0,8.5,6.4,15.4,14.3,15.4s14.3-6.9,14.3-15.4C1929.9-1368.6,1929.4-1370.7,1928.6-1372.7z"/>
		
			<linearGradient id="SVGID_6_" gradientUnits="userSpaceOnUse" x1="807.8409" y1="-1350.9408" x2="807.8409" y2="-1384.0569" gradientTransform="matrix(-1 0 0 1 2723.4377 0)">
			<stop  offset="0" style="stop-color:#D1D3D4"/>
			<stop  offset="1" style="stop-color:#FFFFFF"/>
		</linearGradient>
		<path class="st6" d="M1915.6-1350.9c-6.1,0-11-5.2-11-11.6c0-1.6,0.3-3.1,0.9-4.6c1-2.8,3.2-4.2,4.7-5.1c2-1.2,2.4-1.5,2-4.3
			l-1.3-7.5l6.5,3.8c5.3,3.1,8.5,8.8,9.2,16.4l0,0.2c0,0.3,0,0.7,0,1C1926.6-1356.2,1921.7-1350.9,1915.6-1350.9z"/>
		
			<linearGradient id="SVGID_7_" gradientUnits="userSpaceOnUse" x1="807.8406" y1="-1354.4467" x2="807.8406" y2="-1377.1882" gradientTransform="matrix(-1 0 0 1 2723.4377 0)">
			<stop  offset="0" style="stop-color:#D1D3D4"/>
			<stop  offset="1" style="stop-color:#FFFFFF"/>
		</linearGradient>
		<path class="st7" d="M1908.7-1365.9c1.6-4.5,8.3-3.1,6.9-11.3c4.9,2.9,7,8.2,7.5,13.7c0,0,0,0.1,0,0.1c0,0,0,0,0,0
			c0,0.2,0,0.5,0,0.7c0,4.5-3.4,8.1-7.5,8.1c-4.2,0-7.5-3.6-7.5-8.1C1908.1-1363.8,1908.3-1364.9,1908.7-1365.9z"/>
	</g>
	<g>
		
			<linearGradient id="SVGID_8_" gradientUnits="userSpaceOnUse" x1="1173.7935" y1="-1863.785" x2="1173.7935" y2="-1988.296" gradientTransform="matrix(0.9772 -0.2125 0.2125 0.9772 392.7807 248.1669)">
			<stop  offset="0" style="stop-color:#2B3990"/>
			<stop  offset="1" style="stop-color:#1C75BC"/>
		</linearGradient>
		<path class="st8" d="M1164.7-1877.5c-11.5-17.4-40.1-32-41.1-68c-19.7,17-25,68.6-22.2,92.4c0,0.1,0,0.3,0,0.4c0,0,0,0.1,0,0.1
			c0.1,1.1,0.3,2.1,0.5,3.2c4.1,19,22.8,31,41.8,26.9c19-4.1,31-22.8,26.9-41.8C1169.6-1869.2,1167.5-1873.7,1164.7-1877.5z"/>
		
			<linearGradient id="SVGID_9_" gradientUnits="userSpaceOnUse" x1="1575.8978" y1="-1725.7947" x2="1575.8978" y2="-1864.7562" gradientTransform="matrix(-1.2498 -0.1067 -0.1031 1.2081 2938.1611 442.8134)">
			<stop  offset="0" style="stop-color:#262262"/>
			<stop  offset="1" style="stop-color:#1C75BC"/>
		</linearGradient>
		<path class="st9" d="M1107.5-1880.7c12.7-25.3,49.8-49.8,44.5-98.2c30.4,19.5,47.3,87.9,47.8,120.4c0,0.2,0,0.4,0,0.5
			c0,0.1,0,0.1,0,0.2c0,1.4,0,2.9-0.2,4.4c-2.2,26.2-26,45.5-53,43.2c-27.1-2.3-47.2-25.4-44.9-51.5
			C1102.2-1868.6,1104.3-1875,1107.5-1880.7z"/>
		<linearGradient id="SVGID_10_" gradientUnits="userSpaceOnUse" x1="1150.6025" y1="-1889.7625" x2="1150.6025" y2="-1810.0782">
			<stop  offset="0" style="stop-color:#00A79D"/>
			<stop  offset="1" style="stop-color:#1C75BC"/>
		</linearGradient>
		<path class="st10" d="M1176.7-1850.2c-6.1-15.8-31.5-10.9-26.1-39.6c-18.5,10.1-26.5,28.8-28.3,48.1c0,0.1,0,0.2,0,0.3
			c0,0,0,0.1,0,0.1c-0.1,0.9-0.1,1.7-0.1,2.6c0,15.7,12.8,28.5,28.5,28.5c15.7,0,28.5-12.8,28.5-28.5
			C1179.1-1842.7,1178.2-1846.6,1176.7-1850.2z"/>
		
			<linearGradient id="SVGID_11_" gradientUnits="userSpaceOnUse" x1="1572.8352" y1="-1810.0782" x2="1572.8352" y2="-1865.5496" gradientTransform="matrix(-1 0 0 1 2723.4377 0)">
			<stop  offset="0" style="stop-color:#D1D3D4"/>
			<stop  offset="1" style="stop-color:#FFFFFF"/>
		</linearGradient>
		<path class="st11" d="M1132.5-1838c4.2-11,21.9-7.6,18.1-27.6c12.9,7,18.4,20,19.7,33.5c0,0.1,0,0.1,0,0.2c0,0,0,0.1,0,0.1
			c0.1,0.6,0.1,1.2,0.1,1.8c0,11-8.9,19.8-19.8,19.8c-11,0-19.8-8.9-19.8-19.8C1130.8-1832.8,1131.4-1835.5,1132.5-1838z"/>
	</g>
	<text transform="matrix(1 0 0 1 1208.7189 -1864.0782)" class="st0" style="font-family:'Tahoma-Bold'; font-size:148.8401px;">VDR </text>
	
		<text transform="matrix(1 0 0 1 1100.7188 -1783.0785)" class="st0" style="font-family:'MSReferenceSansSerif'; font-size:11.4421px;">Passieve Brandprevents |  Wanden en Plafonds | Thermisch en Akoestische Insulatie</text>
	<g>
		
			<linearGradient id="SVGID_12_" gradientUnits="userSpaceOnUse" x1="1445.5037" y1="-1567.7373" x2="1445.5037" y2="-1645.786" gradientTransform="matrix(0.9772 -0.2125 0.2125 0.9772 392.7807 248.1669)">
			<stop  offset="0" style="stop-color:#2B3990"/>
			<stop  offset="1" style="stop-color:#1C75BC"/>
		</linearGradient>
		<path class="st12" d="M1485.3-1625.4c-7.2-10.9-25.2-20-25.8-42.6c-12.3,10.7-15.6,43-13.9,58c0,0.1,0,0.2,0,0.2c0,0,0,0.1,0,0.1
			c0.1,0.7,0.2,1.3,0.3,2c2.6,11.9,14.3,19.4,26.2,16.8s19.4-14.3,16.8-26.2C1488.4-1620.2,1487.1-1623,1485.3-1625.4z"/>
		
			<linearGradient id="SVGID_13_" gradientUnits="userSpaceOnUse" x1="1300.4615" y1="-1562.2097" x2="1300.4615" y2="-1649.3164" gradientTransform="matrix(-1.2498 -0.1067 -0.1031 1.2081 2938.1611 442.8134)">
			<stop  offset="0" style="stop-color:#262262"/>
			<stop  offset="1" style="stop-color:#1C75BC"/>
		</linearGradient>
		<path class="st13" d="M1449.4-1627.4c8-15.9,31.2-31.2,27.9-61.6c19.1,12.2,29.6,55.1,29.9,75.5c0,0.1,0,0.2,0,0.3
			c0,0,0,0.1,0,0.1c0,0.9,0,1.8-0.1,2.7c-1.4,16.4-16.3,28.5-33.2,27.1c-17-1.4-29.6-15.9-28.2-32.3
			C1446.1-1619.8,1447.4-1623.8,1449.4-1627.4z"/>
		<linearGradient id="SVGID_14_" gradientUnits="userSpaceOnUse" x1="1476.468" y1="-1633.0836" x2="1476.468" y2="-1583.1343">
			<stop  offset="0" style="stop-color:#00A79D"/>
			<stop  offset="1" style="stop-color:#1C75BC"/>
		</linearGradient>
		<path class="st14" d="M1492.8-1608.3c-3.8-9.9-19.7-6.8-16.3-24.8c-11.6,6.3-16.6,18-17.8,30.2c0,0.1,0,0.1,0,0.2c0,0,0,0,0,0.1
			c0,0.5-0.1,1.1-0.1,1.6c0,9.9,8,17.9,17.9,17.9c9.9,0,17.9-8,17.9-17.9C1494.3-1603.6,1493.8-1606,1492.8-1608.3z"/>
		
			<linearGradient id="SVGID_15_" gradientUnits="userSpaceOnUse" x1="1246.9697" y1="-1583.1343" x2="1246.9697" y2="-1617.9059" gradientTransform="matrix(-1 0 0 1 2723.4377 0)">
			<stop  offset="0" style="stop-color:#D1D3D4"/>
			<stop  offset="1" style="stop-color:#FFFFFF"/>
		</linearGradient>
		<path class="st15" d="M1465.1-1600.6c2.7-6.9,13.7-4.8,11.4-17.3c8.1,4.4,11.5,12.5,12.4,21c0,0,0,0.1,0,0.1c0,0,0,0,0,0
			c0,0.4,0.1,0.8,0.1,1.1c0,6.9-5.6,12.4-12.4,12.4c-6.9,0-12.4-5.6-12.4-12.4C1464-1597.4,1464.4-1599.1,1465.1-1600.6z"/>
	</g>
	<text transform="matrix(1 0 0 1 1829.7189 -1576.0782)" class="st0" style="font-family:'Tahoma'; font-size:20.5065px;">The Fire Techs.</text>
	<text transform="matrix(1 0 0 1 1761.0002 -1162.0781)" class="st0" style="font-family:'Tahoma'; font-size:34.408px;">The Fire Techs.</text>
	<text transform="matrix(1 0 0 1 1208.7189 -1810.0782)" class="st0" style="font-family:'Tahoma-Bold'; font-size:54.8556px;">Constructions</text>
	<g>
		
			<linearGradient id="SVGID_16_" gradientUnits="userSpaceOnUse" x1="1666.7484" y1="-1758.8268" x2="1666.7484" y2="-1883.3379" gradientTransform="matrix(0.9772 -0.2125 0.2125 0.9772 392.7807 248.1669)">
			<stop  offset="0" style="stop-color:#2B3990"/>
			<stop  offset="1" style="stop-color:#1C75BC"/>
		</linearGradient>
		<path class="st16" d="M1668.7-1879.7c-11.5-17.4-40.1-32-41.1-68c-19.7,17-25,68.6-22.2,92.4c0,0.1,0,0.3,0,0.4c0,0,0,0.1,0,0.1
			c0.1,1.1,0.3,2.1,0.5,3.2c4.1,19,22.8,31,41.8,26.9s31-22.8,26.9-41.8C1673.6-1871.4,1671.5-1875.8,1668.7-1879.7z"/>
		
			<linearGradient id="SVGID_17_" gradientUnits="userSpaceOnUse" x1="1175.7003" y1="-1762.9318" x2="1175.7003" y2="-1901.8932" gradientTransform="matrix(-1.2498 -0.1067 -0.1031 1.2081 2938.1611 442.8134)">
			<stop  offset="0" style="stop-color:#262262"/>
			<stop  offset="1" style="stop-color:#1C75BC"/>
		</linearGradient>
		<path class="st17" d="M1611.5-1882.8c12.7-25.3,49.8-49.8,44.5-98.2c30.4,19.5,47.3,87.9,47.8,120.4c0,0.2,0,0.4,0,0.5
			c0,0.1,0,0.1,0,0.2c0,1.4,0,2.9-0.2,4.4c-2.2,26.2-26,45.5-53,43.2c-27.1-2.3-47.2-25.4-44.9-51.5
			C1606.2-1870.8,1608.3-1877.2,1611.5-1882.8z"/>
		<linearGradient id="SVGID_18_" gradientUnits="userSpaceOnUse" x1="1654.6025" y1="-1891.9338" x2="1654.6025" y2="-1812.2495">
			<stop  offset="0" style="stop-color:#00A79D"/>
			<stop  offset="1" style="stop-color:#1C75BC"/>
		</linearGradient>
		<path class="st18" d="M1680.7-1852.3c-6.1-15.8-31.5-10.9-26.1-39.6c-18.5,10.1-26.5,28.8-28.3,48.1c0,0.1,0,0.2,0,0.3
			c0,0,0,0.1,0,0.1c-0.1,0.9-0.1,1.7-0.1,2.6c0,15.7,12.8,28.5,28.5,28.5c15.7,0,28.5-12.8,28.5-28.5
			C1683.1-1844.9,1682.2-1848.8,1680.7-1852.3z"/>
		
			<linearGradient id="SVGID_19_" gradientUnits="userSpaceOnUse" x1="1068.8352" y1="-1812.2495" x2="1068.8352" y2="-1867.7208" gradientTransform="matrix(-1 0 0 1 2723.4377 0)">
			<stop  offset="0" style="stop-color:#D1D3D4"/>
			<stop  offset="1" style="stop-color:#FFFFFF"/>
		</linearGradient>
		<path class="st19" d="M1636.5-1840.1c4.2-11,21.9-7.6,18.1-27.6c12.9,7,18.4,20,19.7,33.5c0,0.1,0,0.1,0,0.2c0,0,0,0.1,0,0.1
			c0.1,0.6,0.1,1.2,0.1,1.8c0,11-8.9,19.8-19.8,19.8c-11,0-19.8-8.9-19.8-19.8C1634.8-1835,1635.4-1837.7,1636.5-1840.1z"/>
	</g>
	<text transform="matrix(1 0 0 1 1712.7189 -1866.2496)" class="st0" style="font-family:'Tahoma-Bold'; font-size:148.8401px;">VDR </text>
	
		<text transform="matrix(1 0 0 1 1604.7189 -1785.2498)" class="st0" style="font-family:'MSReferenceSansSerif'; font-size:11.4421px;">Passieve Brandprevents |  Wanden en Plafonds | Thermisch en Akoestische Insulatie</text>
	<text transform="matrix(1 0 0 1 1712.7189 -1812.2495)" class="st0" style="font-family:'Tahoma-Bold'; font-size:54.8556px;">Constructions</text>
	<g>
		
			<linearGradient id="SVGID_20_" gradientUnits="userSpaceOnUse" x1="245.4731" y1="-1710.2456" x2="245.4731" y2="-1755.1067" gradientTransform="matrix(0.9772 -0.2125 0.2125 0.9772 392.7807 248.1669)">
			<stop  offset="0" style="stop-color:#2B3990"/>
			<stop  offset="1" style="stop-color:#1C75BC"/>
		</linearGradient>
		<path class="st20" d="M276.8-1495c-4.1-6.3-14.5-11.5-14.8-24.5c-7.1,6.1-9,24.7-8,33.3c0,0,0,0.1,0,0.1c0,0,0,0,0,0
			c0,0.4,0.1,0.8,0.2,1.2c1.5,6.8,8.2,11.2,15.1,9.7c6.8-1.5,11.2-8.2,9.7-15.1C278.6-1492,277.8-1493.6,276.8-1495z"/>
		
			<linearGradient id="SVGID_21_" gradientUnits="userSpaceOnUse" x1="2248.936" y1="-1385.37" x2="2248.936" y2="-1435.4376" gradientTransform="matrix(-1.2498 -0.1067 -0.1031 1.2081 2938.1611 442.8134)">
			<stop  offset="0" style="stop-color:#262262"/>
			<stop  offset="1" style="stop-color:#1C75BC"/>
		</linearGradient>
		<path class="st21" d="M256.2-1496.2c4.6-9.1,17.9-17.9,16-35.4c11,7,17,31.7,17.2,43.4c0,0.1,0,0.1,0,0.2c0,0,0,0,0,0.1
			c0,0.5,0,1-0.1,1.6c-0.8,9.4-9.4,16.4-19.1,15.6s-17-9.1-16.2-18.6C254.3-1491.8,255-1494.1,256.2-1496.2z"/>
		<linearGradient id="SVGID_22_" gradientUnits="userSpaceOnUse" x1="271.743" y1="-1499.4385" x2="271.743" y2="-1470.7284">
			<stop  offset="0" style="stop-color:#00A79D"/>
			<stop  offset="1" style="stop-color:#1C75BC"/>
		</linearGradient>
		<path class="st22" d="M281.1-1485.2c-2.2-5.7-11.3-3.9-9.4-14.3c-6.7,3.6-9.5,10.4-10.2,17.3c0,0,0,0.1,0,0.1c0,0,0,0,0,0
			c0,0.3,0,0.6,0,0.9c0,5.7,4.6,10.3,10.3,10.3s10.3-4.6,10.3-10.3C282-1482.5,281.7-1483.9,281.1-1485.2z"/>
		
			<linearGradient id="SVGID_23_" gradientUnits="userSpaceOnUse" x1="2451.6948" y1="-1470.7284" x2="2451.6948" y2="-1490.7146" gradientTransform="matrix(-1 0 0 1 2723.4377 0)">
			<stop  offset="0" style="stop-color:#D1D3D4"/>
			<stop  offset="1" style="stop-color:#FFFFFF"/>
		</linearGradient>
		<path class="st23" d="M265.2-1480.8c1.5-4,7.9-2.7,6.5-9.9c4.7,2.5,6.6,7.2,7.1,12.1c0,0,0,0.1,0,0.1c0,0,0,0,0,0
			c0,0.2,0,0.4,0,0.7c0,3.9-3.2,7.1-7.1,7.1s-7.1-3.2-7.1-7.1C264.6-1478.9,264.8-1479.9,265.2-1480.8z"/>
	</g>
	<g>
		<path class="st0" d="M347.3-1523.8l-17.2,50.1h-13.1l-17.2-50.1h13.1l10.9,33.9l10.9-33.9H347.3z"/>
		<path class="st0" d="M396.7-1498.7c0,4.7-1,8.8-3.1,12.5c-2,3.7-4.6,6.5-7.7,8.5c-2.6,1.7-5.4,2.8-8.5,3.2
			c-3.1,0.5-6.3,0.7-9.8,0.7h-15.7v-50.1h15.5c3.5,0,6.8,0.2,9.9,0.7c3.1,0.4,6,1.5,8.6,3.3c3.3,2.1,5.9,5,7.8,8.5
			C395.7-1507.8,396.7-1503.6,396.7-1498.7z M383.7-1498.8c0-3.3-0.6-6.1-1.7-8.5c-1.1-2.3-2.9-4.2-5.2-5.5
			c-1.7-0.9-3.5-1.5-5.4-1.5c-1.9-0.1-4.1-0.1-6.7-0.1h-0.2v31.4h0.2c2.8,0,5.2-0.1,7.1-0.2c1.9-0.1,3.8-0.7,5.5-1.8
			c2.1-1.3,3.6-3.1,4.7-5.4C383.2-1492.8,383.7-1495.5,383.7-1498.8z"/>
		<path class="st0" d="M450.4-1473.8h-15.3l-14-18.4h-4.5v18.4h-12.5v-50.1h20.1c2.8,0,5.2,0.2,7.3,0.5c2.1,0.3,4,1.1,5.7,2.2
			c1.8,1.1,3.2,2.6,4.3,4.4c1.1,1.8,1.6,4,1.6,6.7c0,3.8-0.9,6.9-2.6,9.3c-1.7,2.4-4,4.3-6.9,5.7L450.4-1473.8z M430.2-1508.5
			c0-1.3-0.2-2.3-0.7-3.2c-0.5-0.9-1.3-1.6-2.4-2.1c-0.8-0.3-1.7-0.5-2.6-0.6c-1-0.1-2.2-0.1-3.6-0.1h-4.2v13.5h3.6
			c1.7,0,3.2-0.1,4.5-0.3c1.2-0.2,2.3-0.7,3.1-1.4c0.8-0.6,1.4-1.4,1.8-2.3C430-1505.9,430.2-1507.1,430.2-1508.5z"/>
	</g>
	<g>
		<path class="st0" d="M482.8-1473.9c-3.2,0-6.1-0.5-8.8-1.6c-2.7-1.1-5-2.7-6.9-4.8c-1.9-2.1-3.4-4.8-4.5-7.9s-1.6-6.8-1.6-10.9
			c0-4.1,0.5-7.6,1.6-10.7c1-3,2.5-5.7,4.5-7.9c1.9-2.2,4.2-3.8,6.9-5c2.7-1.1,5.6-1.7,8.9-1.7c1.6,0,3.2,0.1,4.6,0.4
			c1.4,0.2,2.8,0.5,4,0.9c1,0.3,2.1,0.7,3.2,1.2c1.1,0.5,2.2,1,3.3,1.6v7.8h-0.5c-0.6-0.5-1.3-1.2-2.2-1.9c-0.9-0.7-2-1.5-3.3-2.2
			c-1.2-0.7-2.6-1.2-4.1-1.7c-1.5-0.4-3.2-0.7-5.1-0.7c-2.1,0-4,0.4-5.9,1.3c-1.9,0.9-3.5,2.1-4.9,3.8c-1.4,1.7-2.4,3.7-3.2,6.2
			c-0.8,2.5-1.1,5.3-1.1,8.5c0,3.3,0.4,6.2,1.2,8.6c0.8,2.4,1.9,4.4,3.3,6.1c1.4,1.6,2.9,2.8,4.8,3.6c1.8,0.8,3.8,1.2,5.8,1.2
			c1.9,0,3.6-0.2,5.2-0.7c1.6-0.5,3-1,4.3-1.7c1.2-0.7,2.2-1.4,3.1-2.1c0.9-0.7,1.6-1.3,2.1-1.8h0.5v7.7c-1.1,0.5-2.1,1-3,1.4
			c-0.9,0.5-2.1,0.9-3.5,1.3c-1.4,0.5-2.7,0.8-3.9,1C486.3-1474,484.7-1473.9,482.8-1473.9z"/>
		<path class="st0" d="M533.6-1493c0,6.2-1.5,10.9-4.5,14.3c-3,3.3-6.9,5-11.8,5c-5.1,0-9.1-1.7-12-5.2c-2.9-3.5-4.4-8.2-4.4-14.1
			c0-6.1,1.5-10.9,4.5-14.2c3-3.4,7-5.1,11.9-5.1c4.9,0,8.9,1.7,11.8,5.1C532.1-1503.9,533.6-1499.2,533.6-1493z M527.2-1493
			c0-4.7-0.9-8.3-2.6-10.6c-1.7-2.3-4.2-3.5-7.4-3.5c-3.2,0-5.7,1.2-7.4,3.5c-1.7,2.3-2.6,5.8-2.6,10.6c0,4.6,0.9,8.1,2.6,10.4
			c1.7,2.4,4.2,3.6,7.4,3.6c3.2,0,5.6-1.2,7.3-3.5C526.4-1484.9,527.2-1488.4,527.2-1493z"/>
		<path class="st0" d="M568.6-1474.8h-6.2v-20.8c0-1.7-0.1-3.2-0.2-4.7c-0.2-1.5-0.5-2.6-0.9-3.5c-0.5-0.9-1.2-1.6-2.1-2
			c-0.9-0.4-2.1-0.7-3.7-0.7c-1.5,0-3.1,0.4-4.7,1.2c-1.6,0.8-3.2,1.9-4.8,3.2v27.3h-6.2v-36.6h6.2v4.1c1.8-1.6,3.6-2.9,5.4-3.8
			c1.8-0.9,3.7-1.3,5.7-1.3c3.6,0,6.4,1.2,8.4,3.6c2,2.4,3,5.8,3,10.3V-1474.8z"/>
		<path class="st0" d="M587.2-1473.9c-2.4,0-4.7-0.3-6.9-1c-2.1-0.7-3.9-1.4-5.3-2.1v-6.9h0.3c0.5,0.4,1.1,0.9,1.8,1.4
			c0.7,0.5,1.7,1,2.8,1.6c1,0.5,2.2,0.9,3.5,1.3c1.3,0.4,2.6,0.6,3.9,0.6c1,0,2-0.1,3.1-0.3c1.1-0.2,1.9-0.5,2.5-0.9
			c0.8-0.5,1.3-1,1.7-1.6c0.3-0.6,0.5-1.4,0.5-2.6c0-1.5-0.4-2.6-1.2-3.3c-0.8-0.7-2.2-1.4-4.2-1.9c-0.8-0.2-1.8-0.4-3.1-0.7
			c-1.3-0.3-2.4-0.5-3.5-0.9c-2.8-0.8-4.8-2.1-6.1-3.7c-1.3-1.7-1.9-3.7-1.9-6.1c0-3.3,1.2-6,3.7-8c2.5-2.1,5.8-3.1,9.9-3.1
			c2,0,4.1,0.3,6.1,0.8c2.1,0.5,3.8,1.1,5.2,1.9v6.6h-0.3c-1.6-1.2-3.3-2.2-5.3-2.9c-1.9-0.7-3.9-1.1-5.8-1.1c-2,0-3.7,0.4-5.1,1.3
			c-1.4,0.9-2.1,2.1-2.1,3.9c0,1.5,0.4,2.7,1.2,3.4c0.8,0.8,2.2,1.4,4,1.8c0.9,0.2,1.9,0.5,3.1,0.7c1.1,0.2,2.3,0.5,3.6,0.8
			c2.7,0.7,4.7,1.8,6.1,3.4c1.4,1.6,2,3.7,2,6.4c0,1.6-0.3,3.1-0.9,4.5c-0.6,1.4-1.5,2.6-2.7,3.6c-1.3,1.1-2.8,1.9-4.4,2.5
			C591.7-1474.2,589.6-1473.9,587.2-1473.9z"/>
		<path class="st0" d="M618.2-1474c-3.4,0-6-1-7.9-2.9c-1.9-1.9-2.8-4.9-2.8-9v-20.3h-4.2v-5.1h4.2v-10.5h6.2v10.5h11.3v5.1h-11.3
			v17.4c0,1.9,0,3.3,0.1,4.3c0.1,1,0.3,1.9,0.8,2.8c0.4,0.8,1,1.3,1.8,1.7c0.8,0.4,2,0.6,3.4,0.6c1,0,2-0.1,2.9-0.4
			c0.9-0.3,1.6-0.5,2-0.7h0.4v5.5c-1.2,0.3-2.3,0.6-3.5,0.8C620.3-1474.1,619.3-1474,618.2-1474z"/>
		<path class="st0" d="M649-1504.7h-0.3c-0.5-0.1-0.9-0.2-1.5-0.2c-0.5,0-1.1,0-1.8,0c-1.7,0-3.3,0.4-4.9,1.1
			c-1.6,0.7-3.2,1.8-4.6,3.2v25.9h-6.2v-36.6h6.2v5.4c2.2-2,4.2-3.4,5.9-4.2c1.7-0.8,3.3-1.2,4.9-1.2c0.6,0,1.1,0,1.4,0
			c0.3,0,0.7,0.1,1.1,0.1V-1504.7z"/>
		<path class="st0" d="M682.2-1474.8h-6.2v-4.1c-1.9,1.7-3.7,2.9-5.4,3.8c-1.7,0.9-3.6,1.3-5.7,1.3c-1.6,0-3.1-0.3-4.5-0.8
			c-1.4-0.5-2.6-1.4-3.7-2.5c-1-1.1-1.9-2.6-2.4-4.3c-0.6-1.7-0.9-3.8-0.9-6.3v-23.7h6.2v20.8c0,1.9,0.1,3.6,0.2,4.8
			c0.1,1.3,0.5,2.4,1,3.4c0.5,0.9,1.2,1.6,2,2.1c0.9,0.4,2.1,0.7,3.7,0.7c1.5,0,3.1-0.4,4.8-1.3c1.7-0.9,3.3-1.9,4.7-3.1v-27.3h6.2
			V-1474.8z"/>
		<path class="st0" d="M705.7-1473.9c-2.5,0-4.8-0.4-6.9-1.2c-2.1-0.8-3.9-1.9-5.4-3.5c-1.5-1.6-2.7-3.6-3.5-5.9
			c-0.8-2.4-1.2-5.2-1.2-8.4c0-3.2,0.4-6,1.3-8.3c0.9-2.3,2-4.3,3.5-5.9c1.4-1.6,3.2-2.8,5.4-3.7c2.1-0.9,4.5-1.3,6.9-1.3
			c2,0,3.9,0.3,5.8,0.9c1.9,0.6,3.5,1.2,5,2v6.9h-0.4c-0.4-0.4-1-0.8-1.7-1.3c-0.7-0.5-1.5-1-2.5-1.5c-0.9-0.4-1.9-0.8-3-1.1
			c-1.2-0.3-2.3-0.5-3.3-0.5c-3.2,0-5.7,1.2-7.7,3.6c-1.9,2.4-2.9,5.8-2.9,10.2c0,4.3,0.9,7.7,2.8,10.1c1.9,2.4,4.5,3.6,7.8,3.6
			c2,0,3.9-0.4,5.7-1.2c1.8-0.8,3.4-1.9,4.8-3.2h0.4v6.9c-0.6,0.3-1.4,0.6-2.3,1c-0.9,0.4-1.7,0.7-2.5,0.9c-1,0.3-2,0.5-2.8,0.7
			C708-1474,707-1473.9,705.7-1473.9z"/>
		<path class="st0" d="M733.1-1474c-3.4,0-6-1-7.9-2.9c-1.9-1.9-2.8-4.9-2.8-9v-20.3h-4.2v-5.1h4.2v-10.5h6.2v10.5h11.3v5.1h-11.3
			v17.4c0,1.9,0,3.3,0.1,4.3c0.1,1,0.3,1.9,0.8,2.8c0.4,0.8,1,1.3,1.8,1.7c0.8,0.4,2,0.6,3.4,0.6c1,0,2-0.1,2.9-0.4
			c0.9-0.3,1.6-0.5,2-0.7h0.4v5.5c-1.2,0.3-2.3,0.6-3.5,0.8S734.1-1474,733.1-1474z"/>
		<path class="st0" d="M751.2-1517.4h-7v-6.4h7V-1517.4z M750.7-1474.8h-6.2v-36.6h6.2V-1474.8z"/>
		<path class="st0" d="M789.9-1493c0,6.2-1.5,10.9-4.5,14.3c-3,3.3-6.9,5-11.8,5c-5.1,0-9.1-1.7-12-5.2c-2.9-3.5-4.4-8.2-4.4-14.1
			c0-6.1,1.5-10.9,4.5-14.2c3-3.4,7-5.1,11.9-5.1c4.9,0,8.9,1.7,11.8,5.1C788.4-1503.9,789.9-1499.2,789.9-1493z M783.5-1493
			c0-4.7-0.9-8.3-2.6-10.6c-1.7-2.3-4.2-3.5-7.4-3.5c-3.2,0-5.7,1.2-7.4,3.5c-1.7,2.3-2.6,5.8-2.6,10.6c0,4.6,0.9,8.1,2.6,10.4
			s4.2,3.6,7.4,3.6c3.2,0,5.6-1.2,7.3-3.5C782.6-1484.9,783.5-1488.4,783.5-1493z"/>
		<path class="st0" d="M824.9-1474.8h-6.2v-20.8c0-1.7-0.1-3.2-0.2-4.7c-0.2-1.5-0.5-2.6-0.9-3.5c-0.5-0.9-1.2-1.6-2.1-2
			c-0.9-0.4-2.1-0.7-3.7-0.7c-1.5,0-3.1,0.4-4.7,1.2s-3.2,1.9-4.8,3.2v27.3h-6.2v-36.6h6.2v4.1c1.8-1.6,3.6-2.9,5.4-3.8
			c1.8-0.9,3.7-1.3,5.7-1.3c3.6,0,6.4,1.2,8.4,3.6c2,2.4,3,5.8,3,10.3V-1474.8z"/>
		<path class="st0" d="M843.4-1473.9c-2.4,0-4.7-0.3-6.9-1c-2.1-0.7-3.9-1.4-5.3-2.1v-6.9h0.3c0.5,0.4,1.1,0.9,1.8,1.4
			c0.7,0.5,1.7,1,2.8,1.6c1,0.5,2.2,0.9,3.5,1.3c1.3,0.4,2.6,0.6,3.9,0.6c1,0,2-0.1,3.1-0.3c1.1-0.2,1.9-0.5,2.5-0.9
			c0.8-0.5,1.3-1,1.7-1.6c0.3-0.6,0.5-1.4,0.5-2.6c0-1.5-0.4-2.6-1.2-3.3c-0.8-0.7-2.2-1.4-4.2-1.9c-0.8-0.2-1.8-0.4-3.1-0.7
			c-1.3-0.3-2.4-0.5-3.5-0.9c-2.8-0.8-4.8-2.1-6.1-3.7c-1.3-1.7-1.9-3.7-1.9-6.1c0-3.3,1.2-6,3.7-8c2.5-2.1,5.8-3.1,9.9-3.1
			c2,0,4.1,0.3,6.1,0.8c2.1,0.5,3.8,1.1,5.2,1.9v6.6H856c-1.6-1.2-3.3-2.2-5.3-2.9c-1.9-0.7-3.9-1.1-5.8-1.1c-2,0-3.7,0.4-5.1,1.3
			c-1.4,0.9-2.1,2.1-2.1,3.9c0,1.5,0.4,2.7,1.2,3.4c0.8,0.8,2.2,1.4,4,1.8c0.9,0.2,1.9,0.5,3.1,0.7c1.1,0.2,2.3,0.5,3.6,0.8
			c2.7,0.7,4.7,1.8,6.1,3.4c1.4,1.6,2,3.7,2,6.4c0,1.6-0.3,3.1-0.9,4.5c-0.6,1.4-1.5,2.6-2.7,3.6c-1.3,1.1-2.8,1.9-4.4,2.5
			C848-1474.2,845.9-1473.9,843.4-1473.9z"/>
	</g>
	<g id="Layer_2">
		
			<radialGradient id="SVGID_24_" cx="1637.7888" cy="-1636.0486" r="56.9715" gradientTransform="matrix(1.4564 0 0 1 -909.1122 0)" gradientUnits="userSpaceOnUse">
			<stop  offset="0" style="stop-color:#262262"/>
			<stop  offset="0.1417" style="stop-color:#272866"/>
			<stop  offset="0.3741" style="stop-color:#273874"/>
			<stop  offset="0.6685" style="stop-color:#27528F"/>
			<stop  offset="1" style="stop-color:#1C75BC"/>
		</radialGradient>
		<path class="st24" d="M1476.5-1571.4c-34.7,0-62.8-28.9-62.8-64.7c0-35.7,28.1-64.7,62.8-64.7s62.8,28.9,62.8,64.7
			c0-37.5-28.2-68-63-68s-63,30.4-63,68c0,37.5,28.2,68,63,68s63-30.4,63-68C1539.2-1600.3,1511.1-1571.4,1476.5-1571.4z"/>
	</g>
	<rect x="-18.3" y="-333.1" width="598.5" height="262"/>
	<rect x="-50.3" y="-1263.1" width="833.8" height="682"/>
	<g>
		<path class="st0" d="M1546.4-1607.8c-7,0-12.5-2.1-16.6-6.3c-4.1-4.2-6.1-10.1-6.1-17.7c0-7.3,2-13.2,6.1-17.6
			c4.1-4.4,9.6-6.6,16.6-6.6c1.8,0,3.5,0.1,5,0.3c1.5,0.2,2.9,0.5,4.2,0.9c1.1,0.3,2.2,0.7,3.5,1.3s2.3,1,3,1.4v11h-1.2
			c-0.6-0.5-1.3-1.1-2.1-1.8c-0.9-0.7-1.8-1.4-2.9-2c-1.1-0.7-2.3-1.2-3.6-1.7c-1.3-0.5-2.7-0.7-4.1-0.7c-1.7,0-3.2,0.3-4.6,0.8
			c-1.4,0.5-2.7,1.4-4,2.8c-1.2,1.2-2.1,2.8-2.8,4.8c-0.7,2-1.1,4.4-1.1,7.1c0,2.9,0.4,5.3,1.2,7.3c0.8,2,1.8,3.5,3,4.7
			c1.2,1.2,2.5,2,4,2.5c1.5,0.5,3,0.8,4.4,0.8c1.5,0,3-0.3,4.4-0.8c1.4-0.5,2.6-1.1,3.5-1.7c1-0.6,1.9-1.3,2.7-2
			c0.8-0.7,1.5-1.3,2.1-1.8h1.1v10.9c-0.9,0.4-1.8,0.8-3,1.4c-1.1,0.5-2.3,0.9-3.5,1.3c-1.5,0.4-2.8,0.8-4.1,1
			C1550.4-1607.9,1548.6-1607.8,1546.4-1607.8z"/>
		<path class="st0" d="M1601.9-1626.1c0,5.7-1.6,10.3-4.7,13.6c-3.1,3.3-7.6,5-13.3,5c-5.7,0-10.1-1.7-13.3-5
			c-3.2-3.3-4.7-7.8-4.7-13.6c0-5.8,1.6-10.4,4.7-13.6c3.2-3.3,7.6-4.9,13.3-4.9c5.7,0,10.2,1.7,13.3,5
			C1600.3-1636.4,1601.9-1631.9,1601.9-1626.1z M1590.7-1626.1c0-2.1-0.2-3.8-0.5-5.2c-0.3-1.4-0.8-2.5-1.4-3.3
			c-0.6-0.9-1.4-1.5-2.2-1.8c-0.8-0.3-1.7-0.5-2.8-0.5c-1,0-1.9,0.2-2.6,0.5c-0.8,0.3-1.5,0.9-2.2,1.7c-0.6,0.8-1.1,1.9-1.5,3.3
			c-0.4,1.4-0.6,3.2-0.6,5.3c0,2.1,0.2,3.9,0.5,5.2c0.4,1.3,0.8,2.4,1.4,3.2c0.6,0.8,1.3,1.4,2.2,1.8c0.9,0.4,1.8,0.6,2.9,0.6
			c0.9,0,1.8-0.2,2.7-0.6c0.9-0.4,1.6-0.9,2.2-1.7c0.6-0.9,1.1-2,1.5-3.2C1590.6-1622.1,1590.7-1623.8,1590.7-1626.1z"/>
		<path class="st0" d="M1640.4-1608.7h-11v-17.3c0-1.4-0.1-2.8-0.2-4.2s-0.3-2.4-0.6-3.1c-0.4-0.8-0.9-1.4-1.6-1.7
			c-0.7-0.3-1.6-0.5-2.8-0.5c-0.9,0-1.8,0.2-2.7,0.5c-0.9,0.3-1.9,0.9-2.9,1.6v24.8h-10.9v-34.9h10.9v3.9c1.8-1.5,3.5-2.7,5.2-3.5
			c1.7-0.9,3.6-1.3,5.6-1.3c3.6,0,6.3,1.1,8.2,3.4c1.9,2.3,2.8,5.5,2.8,9.8V-1608.7z"/>
		<path class="st0" d="M1659.1-1607.7c-2.6,0-5-0.3-7.3-0.8s-4.2-1.2-5.7-2v-9.2h0.9c0.5,0.4,1.1,0.8,1.8,1.3s1.6,1,2.8,1.5
			c1,0.5,2.2,0.9,3.4,1.2c1.3,0.3,2.7,0.5,4.2,0.5c1.5,0,2.9-0.2,4.1-0.7c1.2-0.5,1.8-1.2,1.8-2.3c0-0.8-0.3-1.4-0.8-1.8
			c-0.5-0.4-1.6-0.8-3.1-1.2c-0.8-0.2-1.9-0.4-3.1-0.7c-1.3-0.2-2.4-0.5-3.4-0.8c-2.7-0.9-4.8-2.1-6.2-3.8c-1.4-1.7-2.1-3.9-2.1-6.6
			c0-1.6,0.4-3,1.1-4.4c0.7-1.4,1.8-2.6,3.2-3.7c1.4-1.1,3.1-1.9,5.2-2.5c2-0.6,4.4-0.9,6.9-0.9c2.4,0,4.7,0.2,6.8,0.7
			c2.1,0.5,3.8,1.1,5.2,1.8v8.8h-0.9c-0.4-0.3-1-0.7-1.8-1.2c-0.8-0.5-1.6-0.9-2.4-1.3c-0.9-0.4-1.9-0.8-3.1-1
			c-1.1-0.3-2.3-0.4-3.5-0.4c-1.6,0-2.9,0.3-4,0.8c-1.1,0.5-1.6,1.3-1.6,2.1c0,0.8,0.3,1.4,0.8,1.9c0.5,0.5,1.7,0.9,3.5,1.3
			c0.9,0.2,2,0.5,3.2,0.7c1.2,0.2,2.4,0.5,3.5,0.9c2.5,0.8,4.4,2,5.7,3.6c1.3,1.6,1.9,3.6,1.9,6.2c0,1.6-0.4,3.2-1.2,4.7
			c-0.8,1.5-1.9,2.7-3.3,3.8c-1.5,1.1-3.3,2-5.3,2.6C1664.4-1608,1661.9-1607.7,1659.1-1607.7z"/>
		<path class="st0" d="M1694.7-1608c-4.4,0-7.7-0.9-9.7-2.7c-2-1.8-3-4.8-3-9v-16.3h-4.2v-7.6h4.2v-10h10.9v10h10.5v7.6h-10.5v12.4
			c0,1.2,0,2.3,0,3.2c0,0.9,0.2,1.7,0.5,2.5c0.3,0.7,0.8,1.3,1.5,1.7s1.8,0.6,3.2,0.6c0.6,0,1.3-0.1,2.3-0.4c0.9-0.2,1.6-0.5,2-0.7
			h0.9v7.7c-1.2,0.3-2.4,0.6-3.8,0.7C1698.2-1608.1,1696.6-1608,1694.7-1608z"/>
		<path class="st0" d="M1731.2-1633.3h-0.9c-0.4-0.1-1-0.3-1.8-0.3c-0.8-0.1-1.7-0.1-2.6-0.1c-1.1,0-2.3,0.2-3.6,0.5
			c-1.3,0.3-2.5,0.7-3.7,1.2v23.4h-10.9v-34.9h10.9v5c0.5-0.5,1.2-1,2.1-1.7c0.9-0.7,1.7-1.2,2.4-1.7c0.8-0.5,1.7-0.9,2.8-1.2
			s2-0.5,3-0.5c0.4,0,0.7,0,1.2,0c0.4,0,0.8,0.1,1.2,0.1V-1633.3z"/>
		<path class="st0" d="M1767.8-1608.7h-10.9v-3.9c-1.9,1.6-3.6,2.8-5.2,3.6c-1.6,0.8-3.5,1.2-5.6,1.2c-3.5,0-6.2-1.1-8.1-3.3
			c-1.9-2.2-2.9-5.5-2.9-9.9v-22.7h11v17.3c0,1.8,0,3.3,0.1,4.4s0.3,2.1,0.7,2.9c0.3,0.7,0.8,1.3,1.5,1.6s1.7,0.6,2.9,0.6
			c0.8,0,1.7-0.2,2.7-0.6c1-0.4,2-0.9,2.9-1.5v-24.8h10.9V-1608.7z"/>
		<path class="st0" d="M1793.3-1607.7c-2.9,0-5.5-0.4-7.9-1.1c-2.4-0.7-4.5-1.8-6.2-3.4c-1.7-1.5-3.1-3.4-4.1-5.7
			c-1-2.3-1.5-5-1.5-8.1c0-3.3,0.5-6.2,1.6-8.5c1.1-2.3,2.5-4.3,4.3-5.8c1.7-1.5,3.8-2.5,6.1-3.2c2.4-0.7,4.8-1,7.4-1
			c1.9,0,3.9,0.2,5.8,0.7c1.9,0.4,3.9,1.2,5.8,2.1v9.3h-1.4c-0.4-0.4-1-0.9-1.6-1.4c-0.6-0.5-1.3-1-2.1-1.4
			c-0.8-0.4-1.7-0.8-2.7-1.1s-2.1-0.5-3.3-0.5c-2.8,0-4.9,1-6.5,2.9c-1.5,1.9-2.3,4.5-2.3,7.8c0,3.5,0.8,6.1,2.4,7.8
			c1.6,1.7,3.8,2.6,6.5,2.6c1.4,0,2.6-0.2,3.6-0.5s1.9-0.7,2.7-1.1c0.7-0.4,1.3-0.9,1.9-1.4c0.5-0.5,1-0.9,1.3-1.3h1.4v9.3
			c-0.6,0.3-1.3,0.6-2.2,0.9c-0.8,0.4-1.7,0.6-2.5,0.9c-1.1,0.3-2,0.5-3,0.7C1796.1-1607.8,1794.8-1607.7,1793.3-1607.7z"/>
		<path class="st0" d="M1823.2-1608c-4.4,0-7.7-0.9-9.7-2.7c-2-1.8-3-4.8-3-9v-16.3h-4.2v-7.6h4.2v-10h10.9v10h10.5v7.6h-10.5v12.4
			c0,1.2,0,2.3,0,3.2c0,0.9,0.2,1.7,0.5,2.5c0.3,0.7,0.8,1.3,1.5,1.7s1.8,0.6,3.2,0.6c0.6,0,1.3-0.1,2.3-0.4c0.9-0.2,1.6-0.5,2-0.7
			h0.9v7.7c-1.2,0.3-2.4,0.6-3.8,0.7C1826.7-1608.1,1825.1-1608,1823.2-1608z"/>
		<path class="st0" d="M1847.5-1648.6H1836v-8.5h11.5V-1648.6z M1847.2-1608.7h-10.9v-34.9h10.9V-1608.7z"/>
		<path class="st0" d="M1889-1626.1c0,5.7-1.6,10.3-4.7,13.6c-3.1,3.3-7.6,5-13.3,5c-5.7,0-10.1-1.7-13.3-5
			c-3.2-3.3-4.7-7.8-4.7-13.6c0-5.8,1.6-10.4,4.7-13.6c3.2-3.3,7.6-4.9,13.3-4.9c5.7,0,10.2,1.7,13.3,5S1889-1631.9,1889-1626.1z
			 M1877.9-1626.1c0-2.1-0.2-3.8-0.5-5.2c-0.3-1.4-0.8-2.5-1.4-3.3c-0.6-0.9-1.4-1.5-2.2-1.8c-0.8-0.3-1.7-0.5-2.8-0.5
			c-1,0-1.9,0.2-2.6,0.5c-0.8,0.3-1.5,0.9-2.2,1.7c-0.6,0.8-1.1,1.9-1.5,3.3c-0.4,1.4-0.6,3.2-0.6,5.3c0,2.1,0.2,3.9,0.5,5.2
			c0.4,1.3,0.8,2.4,1.4,3.2c0.6,0.8,1.3,1.4,2.2,1.8s1.8,0.6,2.9,0.6c0.9,0,1.8-0.2,2.7-0.6s1.6-0.9,2.2-1.7c0.6-0.9,1.1-2,1.5-3.2
			C1877.7-1622.1,1877.9-1623.8,1877.9-1626.1z"/>
		<path class="st0" d="M1927.6-1608.7h-11v-17.3c0-1.4-0.1-2.8-0.2-4.2s-0.3-2.4-0.6-3.1c-0.4-0.8-0.9-1.4-1.6-1.7
			c-0.7-0.3-1.6-0.5-2.8-0.5c-0.9,0-1.8,0.2-2.7,0.5c-0.9,0.3-1.9,0.9-2.9,1.6v24.8h-10.9v-34.9h10.9v3.9c1.8-1.5,3.5-2.7,5.2-3.5
			c1.7-0.9,3.6-1.3,5.6-1.3c3.6,0,6.3,1.1,8.2,3.4c1.9,2.3,2.8,5.5,2.8,9.8V-1608.7z"/>
		<path class="st0" d="M1946.3-1607.7c-2.6,0-5-0.3-7.3-0.8s-4.2-1.2-5.7-2v-9.2h0.9c0.5,0.4,1.1,0.8,1.8,1.3s1.6,1,2.8,1.5
			c1,0.5,2.2,0.9,3.4,1.2c1.3,0.3,2.7,0.5,4.2,0.5c1.5,0,2.9-0.2,4.1-0.7c1.2-0.5,1.8-1.2,1.8-2.3c0-0.8-0.3-1.4-0.8-1.8
			c-0.5-0.4-1.6-0.8-3.1-1.2c-0.8-0.2-1.9-0.4-3.1-0.7c-1.3-0.2-2.4-0.5-3.4-0.8c-2.7-0.9-4.8-2.1-6.2-3.8c-1.4-1.7-2.1-3.9-2.1-6.6
			c0-1.6,0.4-3,1.1-4.4c0.7-1.4,1.8-2.6,3.2-3.7c1.4-1.1,3.1-1.9,5.2-2.5c2-0.6,4.4-0.9,6.9-0.9c2.4,0,4.7,0.2,6.8,0.7
			c2.1,0.5,3.8,1.1,5.2,1.8v8.8h-0.9c-0.4-0.3-1-0.7-1.8-1.2c-0.8-0.5-1.6-0.9-2.4-1.3c-0.9-0.4-1.9-0.8-3.1-1
			c-1.1-0.3-2.3-0.4-3.5-0.4c-1.6,0-2.9,0.3-4,0.8c-1.1,0.5-1.6,1.3-1.6,2.1c0,0.8,0.3,1.4,0.8,1.9c0.5,0.5,1.7,0.9,3.5,1.3
			c0.9,0.2,2,0.5,3.2,0.7c1.2,0.2,2.4,0.5,3.5,0.9c2.5,0.8,4.4,2,5.7,3.6c1.3,1.6,1.9,3.6,1.9,6.2c0,1.6-0.4,3.2-1.2,4.7
			c-0.8,1.5-1.9,2.7-3.3,3.8c-1.5,1.1-3.3,2-5.3,2.6C1951.5-1608,1949.1-1607.7,1946.3-1607.7z"/>
	</g>
	<g>
		<path class="st0" d="M1347.3-1657.1l-15.9,46.3h-12.1l-15.9-46.3h12.1l10.1,31.4l10.1-31.4H1347.3z"/>
		<path class="st0" d="M1393-1633.9c0,4.3-0.9,8.2-2.8,11.6c-1.9,3.4-4.3,6-7.2,7.9c-2.4,1.6-5,2.6-7.9,3c-2.8,0.4-5.8,0.7-9,0.7
			h-14.5v-46.3h14.4c3.3,0,6.3,0.2,9.1,0.6s5.5,1.4,8,3c3,2,5.5,4.6,7.2,7.9C1392.1-1642.2,1393-1638.3,1393-1633.9z M1381-1634
			c0-3-0.5-5.7-1.6-7.8c-1-2.2-2.7-3.9-4.8-5.1c-1.6-0.9-3.2-1.3-5-1.4c-1.7-0.1-3.8-0.1-6.2-0.1h-0.2v29h0.2c2.6,0,4.8,0,6.6-0.1
			c1.8-0.1,3.5-0.6,5.1-1.7c1.9-1.2,3.4-2.9,4.4-5C1380.5-1628.3,1381-1630.9,1381-1634z"/>
		<path class="st0" d="M1442.7-1610.7h-14.2l-12.9-17h-4.2v17h-11.6v-46.3h18.6c2.6,0,4.8,0.2,6.7,0.5c1.9,0.3,3.7,1,5.3,2
			c1.7,1.1,3,2.4,4,4s1.5,3.7,1.5,6.2c0,3.5-0.8,6.4-2.4,8.6c-1.6,2.2-3.7,4-6.4,5.3L1442.7-1610.7z M1424-1642.9
			c0-1.2-0.2-2.2-0.7-3c-0.4-0.8-1.2-1.5-2.2-1.9c-0.7-0.3-1.5-0.5-2.4-0.6c-0.9-0.1-2-0.1-3.3-0.1h-3.9v12.5h3.3
			c1.6,0,3-0.1,4.1-0.3c1.1-0.2,2.1-0.6,2.9-1.3c0.7-0.6,1.3-1.3,1.7-2.1C1423.8-1640.5,1424-1641.6,1424-1642.9z"/>
	</g>
	
		<text transform="matrix(1.5799 0 0 1 1766.7191 -1288.0779)" class="st0" style="font-family:'MyriadPro-Cond'; font-size:39.4403px;">CONSTRUCTIONS</text>
	<path class="st0" d="M1865.7-1460.1"/>
	<path class="st0" d="M1865.7-1460.1"/>
	<g>
		
			<text transform="matrix(1 0 0 1 -6.6673 -779.2946)" class="st0" style="font-family:'MSReferenceSansSerif'; font-size:17.4713px;">Passieve Brandpreventie |  Wanden en Plafonds | Thermisch en Akoestische Insulatie</text>
		<g>
			<g>
				<g>
					
						<linearGradient id="SVGID_25_" gradientUnits="userSpaceOnUse" x1="-30.5037" y1="-1310.1846" x2="-30.5037" y2="-1445.3052" gradientTransform="matrix(0.9636 -0.2672 0.3029 1.0921 567.3393 573.916)">
						<stop  offset="0" style="stop-color:#2B3990"/>
						<stop  offset="1" style="stop-color:#1C75BC"/>
					</linearGradient>
					<path class="st25" d="M161-925.4c-16.2-23.5-67.8-28.1-30.4-79.5c-26.3,16.1-51.7,82.8-45.6,115.5c0,0.2,0.1,0.4,0.1,0.5
						c0,0.1,0,0.1,0,0.2c0.3,1.5,0.6,2.9,1,4.4c7.2,25.9,31.8,41.8,55,35.4c23.1-6.3,36-32.5,28.7-58.4
						C168.1-914.1,165-920.2,161-925.4z"/>
					
						<linearGradient id="SVGID_26_" gradientUnits="userSpaceOnUse" x1="2314.188" y1="-860.6381" x2="2314.188" y2="-1024.489" gradientTransform="matrix(-1.2498 -0.1067 -0.1031 1.2081 2938.1611 442.8134)">
						<stop  offset="0" style="stop-color:#262262"/>
						<stop  offset="1" style="stop-color:#1C75BC"/>
					</linearGradient>
					<path class="st26" d="M86.2-930c15.7-31,88.6-55.2,45.1-113.5c37.6,23.8,68.3,100.9,68.9,140.6c0,0.2,0,0.4,0,0.7
						c0,0.1,0,0.1,0,0.2c0,1.8,0,3.6-0.2,5.4c-2.8,32-32.1,55.7-65.6,52.8c-33.4-2.8-58.3-31.1-55.6-63.1
						C79.7-915.3,82.3-923.1,86.2-930z"/>
					<linearGradient id="SVGID_27_" gradientUnits="userSpaceOnUse" x1="139.5669" y1="-941.1163" x2="139.5669" y2="-843.5965">
						<stop  offset="0" style="stop-color:#00A79D"/>
						<stop  offset="1" style="stop-color:#1C75BC"/>
					</linearGradient>
					<path class="st27" d="M171.8-892.6c-7.5-19.3-38.9-13.3-32.2-48.5c-22.9,12.3-32.7,35.2-35,58.9c0,0.1,0,0.3,0,0.4
						c0,0,0,0.1,0,0.1c-0.1,1.1-0.2,2.1-0.2,3.2c0,19.3,15.8,34.9,35.2,34.9s35.2-15.6,35.2-34.9
						C174.8-883.5,173.7-888.3,171.8-892.6z"/>
					
						<linearGradient id="SVGID_28_" gradientUnits="userSpaceOnUse" x1="2583.8708" y1="-843.5965" x2="2583.8708" y2="-911.4838" gradientTransform="matrix(-1 0 0 1 2723.4377 0)">
						<stop  offset="0" style="stop-color:#D1D3D4"/>
						<stop  offset="1" style="stop-color:#FFFFFF"/>
					</linearGradient>
					<path class="st28" d="M117.1-877.7c5.3-13.4,27.1-9.3,22.4-33.7c16,8.6,22.8,24.5,24.4,41c0,0.1,0,0.2,0,0.3c0,0,0,0.1,0,0.1
						c0.1,0.7,0.1,1.5,0.1,2.2c0,13.4-11,24.3-24.5,24.3S115-854.5,115-867.9C115-871.4,115.8-874.7,117.1-877.7z"/>
				</g>
				<path class="st0" d="M590.9-929.1c10.3-5,18.6-11.8,24.7-20.3c6.2-8.5,9.2-19.6,9.2-33.3c0-9.7-1.9-17.7-5.6-23.9
					c-3.8-6.3-8.8-11.5-15.2-15.5c-6.2-3.9-13-6.5-20.4-7.7c-7.4-1.2-16-1.9-25.9-1.9h-71.8v31.4c1.7,2.6,3.4,5.3,4.9,8.2
					c7.6,14.2,11.4,31,11.4,50c0,18.4-4.1,35.1-12.2,49.8c-1.3,2.4-2.7,4.6-4.1,6.8v32.5h44.6v-65.5h16.1l49.8,65.5H651L590.9-929.1
					z M576.6-964.8c-1.4,3.1-3.5,5.8-6.4,8c-3,2.5-6.7,4.1-11.1,4.9c-4.4,0.8-9.7,1.1-15.9,1.1h-12.8v-48.1h15
					c5.1,0,9.4,0.2,12.8,0.5c3.4,0.3,6.6,1.1,9.4,2.3c4,1.8,6.9,4.3,8.6,7.5c1.7,3.2,2.6,7.1,2.6,11.6
					C578.7-972,578-967.9,576.6-964.8z"/>
				<path class="st0" d="M481.5-987.2c-6.8-12.8-16.1-22.9-27.8-30.4c-9.6-6.2-19.9-10-30.8-11.6c-11-1.6-22.7-2.4-35.3-2.4H356
					l-23.9,69.4v109.2H388c12.3,0,23.9-0.9,34.8-2.6c10.9-1.7,21-5.6,30.3-11.6c11.1-7,20.3-17.1,27.6-30.3
					c7.3-13.2,10.9-28,10.9-44.7C491.7-959.5,488.3-974.5,481.5-987.2z M439.8-912.7c-3.8,8.2-9.4,14.6-16.8,19.2
					c-6.2,3.9-12.8,6.1-19.7,6.4c-6.9,0.4-15.4,0.5-25.5,0.5H377v-111.8h0.8c9.3,0,17.3,0.2,23.9,0.5c6.7,0.3,13.1,2.2,19.1,5.5
					c8.4,4.7,14.6,11.3,18.7,19.6c4,8.4,6.1,18.4,6.1,30.2C445.6-930.8,443.7-920.9,439.8-912.7z"/>
				<path class="st0" d="M344.9-1031.7l-61.4,178.6h-46.8l-61.4-178.6h46.5l38.9,121l38.9-121H344.9z"/>
			</g>
			<g>
				<path class="st0" d="M112.9-811.2c-1.1,0.6-3.3,1.1-6.1,1.1c-6.5,0-11.4-4.1-11.4-11.7c0-7.2,4.9-12.1,12.1-12.1
					c2.9,0,4.7,0.6,5.5,1l-0.7,2.4c-1.1-0.6-2.7-1-4.7-1c-5.4,0-9,3.5-9,9.5c0,5.7,3.3,9.3,8.9,9.3c1.8,0,3.7-0.4,4.9-1L112.9-811.2
					z"/>
				<path class="st0" d="M163.1-822.3c0,8-4.8,12.2-10.7,12.2c-6.1,0-10.4-4.7-10.4-11.7c0-7.3,4.6-12.1,10.7-12.1
					C159-833.9,163.1-829.1,163.1-822.3z M145.1-821.9c0,4.9,2.7,9.4,7.4,9.4c4.7,0,7.4-4.4,7.4-9.6c0-4.6-2.4-9.4-7.4-9.4
					C147.6-831.5,145.1-826.9,145.1-821.9z"/>
				<path class="st0" d="M194.4-810.5v-23.1h3.3l7.4,11.7c1.7,2.7,3.1,5.1,4.1,7.5l0.1,0c-0.3-3.1-0.3-5.9-0.3-9.5v-9.7h2.8v23.1h-3
					l-7.3-11.7c-1.6-2.6-3.2-5.2-4.3-7.7l-0.1,0c0.2,2.9,0.2,5.7,0.2,9.5v9.9H194.4z"/>
				<path class="st0" d="M244-814.1c1.3,0.8,3.3,1.5,5.4,1.5c3.1,0,4.8-1.6,4.8-3.9c0-2.2-1.2-3.4-4.4-4.6c-3.8-1.3-6.1-3.3-6.1-6.6
					c0-3.6,3-6.3,7.5-6.3c2.4,0,4.1,0.5,5.1,1.1l-0.8,2.4c-0.8-0.4-2.3-1.1-4.4-1.1c-3.2,0-4.4,1.9-4.4,3.5c0,2.2,1.4,3.2,4.6,4.5
					c3.9,1.5,5.9,3.4,5.9,6.8c0,3.6-2.6,6.7-8.1,6.7c-2.2,0-4.7-0.7-5.9-1.5L244-814.1z"/>
				<path class="st0" d="M293.1-831h-7v-2.5h17.1v2.5h-7.1v20.6h-3V-831z"/>
				<path class="st0" d="M333.2-833.3c1.5-0.3,3.7-0.5,5.7-0.5c3.2,0,5.3,0.6,6.7,1.9c1.2,1,1.8,2.6,1.8,4.4c0,3-1.9,5.1-4.4,5.9
					v0.1c1.8,0.6,2.8,2.3,3.4,4.7c0.8,3.2,1.3,5.5,1.8,6.3h-3.1c-0.4-0.7-0.9-2.6-1.5-5.5c-0.7-3.2-1.9-4.4-4.6-4.5h-2.8v10h-3
					V-833.3z M336.2-822.7h3.1c3.2,0,5.2-1.8,5.2-4.4c0-3-2.2-4.3-5.3-4.3c-1.4,0-2.5,0.1-2.9,0.3V-822.7z"/>
				<path class="st0" d="M382.1-833.6v13.7c0,5.2,2.3,7.4,5.4,7.4c3.4,0,5.6-2.3,5.6-7.4v-13.7h3v13.5c0,7.1-3.7,10-8.7,10
					c-4.7,0-8.3-2.7-8.3-9.9v-13.6H382.1z"/>
				<path class="st0" d="M444.8-811.2c-1.1,0.6-3.3,1.1-6.1,1.1c-6.5,0-11.4-4.1-11.4-11.7c0-7.2,4.9-12.1,12.1-12.1
					c2.9,0,4.7,0.6,5.5,1l-0.7,2.4c-1.1-0.6-2.7-1-4.7-1c-5.4,0-9,3.5-9,9.5c0,5.7,3.3,9.3,8.9,9.3c1.8,0,3.7-0.4,4.9-1L444.8-811.2
					z"/>
				<path class="st0" d="M481.4-831h-7v-2.5h17.1v2.5h-7.1v20.6h-3V-831z"/>
				<path class="st0" d="M540.3-822.3c0,8-4.8,12.2-10.7,12.2c-6.1,0-10.4-4.7-10.4-11.7c0-7.3,4.6-12.1,10.7-12.1
					C536.2-833.9,540.3-829.1,540.3-822.3z M522.3-821.9c0,4.9,2.7,9.4,7.4,9.4c4.7,0,7.4-4.4,7.4-9.6c0-4.6-2.4-9.4-7.4-9.4
					C524.8-831.5,522.3-826.9,522.3-821.9z"/>
				<path class="st0" d="M571.6-810.5v-23.1h3.3l7.4,11.7c1.7,2.7,3.1,5.1,4.1,7.5l0.1,0c-0.3-3.1-0.3-5.9-0.3-9.5v-9.7h2.8v23.1h-3
					l-7.3-11.7c-1.6-2.6-3.2-5.2-4.3-7.7l-0.1,0c0.2,2.9,0.2,5.7,0.2,9.5v9.9H571.6z"/>
				<path class="st0" d="M621.2-814.1c1.3,0.8,3.3,1.5,5.4,1.5c3.1,0,4.8-1.6,4.8-3.9c0-2.2-1.2-3.4-4.4-4.6
					c-3.8-1.3-6.1-3.3-6.1-6.6c0-3.6,3-6.3,7.5-6.3c2.4,0,4.1,0.5,5.1,1.1l-0.8,2.4c-0.8-0.4-2.3-1.1-4.4-1.1
					c-3.2,0-4.4,1.9-4.4,3.5c0,2.2,1.4,3.2,4.6,4.5c3.9,1.5,5.9,3.4,5.9,6.8c0,3.6-2.6,6.7-8.1,6.7c-2.2,0-4.7-0.7-5.9-1.5
					L621.2-814.1z"/>
			</g>
		</g>
	</g>
	<g>
		<g>
			<g>
				
					<linearGradient id="SVGID_29_" gradientUnits="userSpaceOnUse" x1="-299.3783" y1="-714.8906" x2="-299.3783" y2="-850.0112" gradientTransform="matrix(0.9636 -0.2672 0.3029 1.0921 567.3393 573.916)">
					<stop  offset="0" style="stop-color:#2B3990"/>
					<stop  offset="1" style="stop-color:#1C75BC"/>
				</linearGradient>
				<path class="st29" d="M82.2-203.4c-16.2-23.5-67.8-28.1-30.4-79.5C25.6-266.7,0.2-200.1,6.3-167.4c0,0.2,0.1,0.4,0.1,0.5
					c0,0.1,0,0.1,0,0.2c0.3,1.5,0.6,2.9,1,4.4c7.2,25.9,31.8,41.8,55,35.4c23.1-6.3,36-32.5,28.7-58.4
					C89.3-192.1,86.2-198.2,82.2-203.4z"/>
				
					<linearGradient id="SVGID_30_" gradientUnits="userSpaceOnUse" x1="2327.8289" y1="-261.8077" x2="2327.8289" y2="-425.6587" gradientTransform="matrix(-1.2498 -0.1067 -0.1031 1.2081 2938.1611 442.8134)">
					<stop  offset="0" style="stop-color:#262262"/>
					<stop  offset="1" style="stop-color:#1C75BC"/>
				</linearGradient>
				<path class="st30" d="M7.4-208c15.7-31,88.6-55.2,45.1-113.5c37.6,23.8,68.3,100.9,68.9,140.6c0,0.2,0,0.4,0,0.7
					c0,0.1,0,0.1,0,0.2c0,1.8,0,3.6-0.2,5.4c-2.8,32-32.1,55.7-65.6,52.8c-33.4-2.8-58.3-31.1-55.6-63.1
					C0.9-193.3,3.5-201.1,7.4-208z"/>
				<linearGradient id="SVGID_31_" gradientUnits="userSpaceOnUse" x1="60.7645" y1="-219.1163" x2="60.7645" y2="-121.5965">
					<stop  offset="0" style="stop-color:#00A79D"/>
					<stop  offset="1" style="stop-color:#1C75BC"/>
				</linearGradient>
				<path class="st31" d="M93-170.6C85.4-189.9,54-184,60.8-219.1c-22.9,12.3-32.7,35.2-35,58.9c0,0.1,0,0.3,0,0.4c0,0,0,0.1,0,0.1
					c-0.1,1.1-0.2,2.1-0.2,3.2c0,19.3,15.8,34.9,35.2,34.9S96-137.2,96-156.5C96-161.5,94.9-166.3,93-170.6z"/>
				
					<linearGradient id="SVGID_32_" gradientUnits="userSpaceOnUse" x1="2662.6733" y1="-121.5965" x2="2662.6733" y2="-189.4837" gradientTransform="matrix(-1 0 0 1 2723.4377 0)">
					<stop  offset="0" style="stop-color:#D1D3D4"/>
					<stop  offset="1" style="stop-color:#FFFFFF"/>
				</linearGradient>
				<path class="st32" d="M38.3-155.7c5.3-13.4,27.1-9.3,22.4-33.7c16,8.6,22.8,24.5,24.4,41c0,0.1,0,0.2,0,0.3c0,0,0,0.1,0,0.1
					c0.1,0.7,0.1,1.5,0.1,2.2c0,13.4-11,24.3-24.5,24.3s-24.5-10.9-24.5-24.3C36.2-149.4,37-152.7,38.3-155.7z"/>
			</g>
			<path class="st0" d="M512.1-207.1c10.3-5,18.6-11.8,24.7-20.3c6.2-8.5,9.2-19.6,9.2-33.3c0-9.7-1.9-17.7-5.6-23.9
				c-3.8-6.3-8.8-11.5-15.2-15.5c-6.2-3.9-13-6.5-20.4-7.7c-7.4-1.2-16-1.9-25.9-1.9H407v31.4c1.7,2.6,3.4,5.3,4.9,8.2
				c7.6,14.2,11.4,31,11.4,50c0,18.4-4.1,35.1-12.2,49.8c-1.3,2.4-2.7,4.6-4.1,6.8v32.5h44.6v-65.5h16.1l49.8,65.5h54.7L512.1-207.1
				z M497.8-242.8c-1.4,3.1-3.5,5.8-6.4,8c-3,2.5-6.7,4.1-11.1,4.9c-4.4,0.8-9.7,1.1-15.9,1.1h-12.8v-48.1h15
				c5.1,0,9.4,0.2,12.8,0.5c3.4,0.3,6.6,1.1,9.4,2.3c4,1.8,6.9,4.3,8.6,7.5c1.7,3.2,2.6,7.1,2.6,11.6
				C499.9-250,499.2-245.9,497.8-242.8z"/>
			<path class="st0" d="M402.7-265.2c-6.8-12.8-16.1-22.9-27.8-30.4c-9.6-6.2-19.9-10-30.8-11.6c-11-1.6-22.7-2.4-35.3-2.4h-31.5
				l-23.9,69.4v109.2h55.9c12.3,0,23.9-0.9,34.8-2.6c10.9-1.7,21-5.6,30.3-11.6c11.1-7,20.3-17.1,27.6-30.3
				c7.3-13.2,10.9-28,10.9-44.7C412.9-237.5,409.5-252.5,402.7-265.2z M361-190.7c-3.8,8.2-9.4,14.6-16.8,19.2
				c-6.2,3.9-12.8,6.1-19.7,6.4c-6.9,0.4-15.4,0.5-25.5,0.5h-0.8v-111.8h0.8c9.3,0,17.3,0.2,23.9,0.5c6.7,0.3,13.1,2.2,19.1,5.5
				c8.4,4.7,14.6,11.3,18.7,19.6c4,8.4,6.1,18.4,6.1,30.2C366.8-208.8,364.9-198.9,361-190.7z"/>
			<path class="st0" d="M266.1-309.7l-61.4,178.6h-46.8L96.5-309.7H143l38.9,121l38.9-121H266.1z"/>
		</g>
		<g>
			<path class="st0" d="M34.1-89.2c-1.1,0.6-3.3,1.1-6.1,1.1c-6.5,0-11.4-4.1-11.4-11.7c0-7.2,4.9-12.1,12.1-12.1
				c2.9,0,4.7,0.6,5.5,1l-0.7,2.4c-1.1-0.6-2.7-1-4.7-1c-5.4,0-9,3.5-9,9.5c0,5.7,3.3,9.3,8.9,9.3c1.8,0,3.7-0.4,4.9-1L34.1-89.2z"
				/>
			<path class="st0" d="M84.3-100.3c0,8-4.8,12.2-10.7,12.2c-6.1,0-10.4-4.7-10.4-11.7c0-7.3,4.6-12.1,10.7-12.1
				C80.2-111.9,84.3-107.1,84.3-100.3z M66.3-99.9c0,4.9,2.7,9.4,7.4,9.4c4.7,0,7.4-4.4,7.4-9.6c0-4.6-2.4-9.4-7.4-9.4
				C68.8-109.5,66.3-104.9,66.3-99.9z"/>
			<path class="st0" d="M115.6-88.5v-23.1h3.3l7.4,11.7c1.7,2.7,3.1,5.1,4.1,7.5l0.1,0c-0.3-3.1-0.3-5.9-0.3-9.5v-9.7h2.8v23.1h-3
				l-7.3-11.7c-1.6-2.6-3.2-5.2-4.3-7.7l-0.1,0c0.2,2.9,0.2,5.7,0.2,9.5v9.9H115.6z"/>
			<path class="st0" d="M165.2-92.1c1.3,0.8,3.3,1.5,5.4,1.5c3.1,0,4.8-1.6,4.8-3.9c0-2.2-1.2-3.4-4.4-4.6c-3.8-1.3-6.1-3.3-6.1-6.6
				c0-3.6,3-6.3,7.5-6.3c2.4,0,4.1,0.5,5.1,1.1l-0.8,2.4c-0.8-0.4-2.3-1.1-4.4-1.1c-3.2,0-4.4,1.9-4.4,3.5c0,2.2,1.4,3.2,4.6,4.5
				c3.9,1.5,5.9,3.4,5.9,6.8c0,3.6-2.6,6.7-8.1,6.7c-2.2,0-4.7-0.7-5.9-1.5L165.2-92.1z"/>
			<path class="st0" d="M214.3-109h-7v-2.5h17.1v2.5h-7.1v20.6h-3V-109z"/>
			<path class="st0" d="M254.4-111.3c1.5-0.3,3.7-0.5,5.7-0.5c3.2,0,5.3,0.6,6.7,1.9c1.2,1,1.8,2.6,1.8,4.4c0,3-1.9,5.1-4.4,5.9v0.1
				c1.8,0.6,2.8,2.3,3.4,4.7c0.8,3.2,1.3,5.5,1.8,6.3h-3.1c-0.4-0.7-0.9-2.6-1.5-5.5c-0.7-3.2-1.9-4.4-4.6-4.5h-2.8v10h-3V-111.3z
				 M257.4-100.7h3.1c3.2,0,5.2-1.8,5.2-4.4c0-3-2.2-4.3-5.3-4.3c-1.4,0-2.5,0.1-2.9,0.3V-100.7z"/>
			<path class="st0" d="M303.3-111.6v13.7c0,5.2,2.3,7.4,5.4,7.4c3.4,0,5.6-2.3,5.6-7.4v-13.7h3v13.5c0,7.1-3.7,10-8.7,10
				c-4.7,0-8.3-2.7-8.3-9.9v-13.6H303.3z"/>
			<path class="st0" d="M366-89.2c-1.1,0.6-3.3,1.1-6.1,1.1c-6.5,0-11.4-4.1-11.4-11.7c0-7.2,4.9-12.1,12.1-12.1
				c2.9,0,4.7,0.6,5.5,1l-0.7,2.4c-1.1-0.6-2.7-1-4.7-1c-5.4,0-9,3.5-9,9.5c0,5.7,3.3,9.3,8.9,9.3c1.8,0,3.7-0.4,4.9-1L366-89.2z"/>
			<path class="st0" d="M402.6-109h-7v-2.5h17.1v2.5h-7.1v20.6h-3V-109z"/>
			<path class="st0" d="M461.5-100.3c0,8-4.8,12.2-10.7,12.2c-6.1,0-10.4-4.7-10.4-11.7c0-7.3,4.6-12.1,10.7-12.1
				C457.4-111.9,461.5-107.1,461.5-100.3z M443.5-99.9c0,4.9,2.7,9.4,7.4,9.4c4.7,0,7.4-4.4,7.4-9.6c0-4.6-2.4-9.4-7.4-9.4
				C446-109.5,443.5-104.9,443.5-99.9z"/>
			<path class="st0" d="M492.8-88.5v-23.1h3.3l7.4,11.7c1.7,2.7,3.1,5.1,4.1,7.5l0.1,0c-0.3-3.1-0.3-5.9-0.3-9.5v-9.7h2.8v23.1h-3
				l-7.3-11.7c-1.6-2.6-3.2-5.2-4.3-7.7l-0.1,0c0.2,2.9,0.2,5.7,0.2,9.5v9.9H492.8z"/>
			<path class="st0" d="M542.4-92.1c1.3,0.8,3.3,1.5,5.4,1.5c3.1,0,4.8-1.6,4.8-3.9c0-2.2-1.2-3.4-4.4-4.6c-3.8-1.3-6.1-3.3-6.1-6.6
				c0-3.6,3-6.3,7.5-6.3c2.4,0,4.1,0.5,5.1,1.1l-0.8,2.4c-0.8-0.4-2.3-1.1-4.4-1.1c-3.2,0-4.4,1.9-4.4,3.5c0,2.2,1.4,3.2,4.6,4.5
				c3.9,1.5,5.9,3.4,5.9,6.8c0,3.6-2.6,6.7-8.1,6.7c-2.2,0-4.7-0.7-5.9-1.5L542.4-92.1z"/>
		</g>
	</g>
	<g>
		<g>
			<g>
				
					<linearGradient id="SVGID_33_" gradientUnits="userSpaceOnUse" x1="-385.2892" y1="-441.5464" x2="-385.2892" y2="-576.6671" gradientTransform="matrix(0.9636 -0.2672 0.3029 1.0921 567.3393 573.916)">
					<stop  offset="0" style="stop-color:#2B3990"/>
					<stop  offset="1" style="stop-color:#1C75BC"/>
				</linearGradient>
				<path class="st33" d="M82.2,118.1C66,94.6,14.5,90,51.9,38.6C25.6,54.8,0.2,121.4,6.3,154.1c0,0.2,0.1,0.4,0.1,0.5
					c0,0.1,0,0.1,0,0.2c0.3,1.5,0.6,2.9,1,4.4c7.2,25.9,31.8,41.8,55,35.4c23.1-6.3,36-32.5,28.7-58.4
					C89.3,129.4,86.2,123.3,82.2,118.1z"/>
				
					<linearGradient id="SVGID_34_" gradientUnits="userSpaceOnUse" x1="2306.0303" y1="2.3765" x2="2306.0303" y2="-161.4745" gradientTransform="matrix(-1.2498 -0.1067 -0.1031 1.2081 2938.1611 442.8134)">
					<stop  offset="0" style="stop-color:#262262"/>
					<stop  offset="1" style="stop-color:#1C75BC"/>
				</linearGradient>
				<path class="st34" d="M7.4,113.5C23.2,82.5,96,58.3,52.6,0c37.6,23.8,68.3,100.9,68.9,140.6c0,0.2,0,0.4,0,0.7
					c0,0.1,0,0.1,0,0.2c0,1.8,0,3.6-0.2,5.4c-2.8,32-32.1,55.7-65.6,52.8c-33.4-2.8-58.3-31.1-55.6-63.1
					C0.9,128.2,3.5,120.4,7.4,113.5z"/>
				<linearGradient id="SVGID_35_" gradientUnits="userSpaceOnUse" x1="60.7645" y1="102.3737" x2="60.7645" y2="199.8935">
					<stop  offset="0" style="stop-color:#00A79D"/>
					<stop  offset="1" style="stop-color:#1C75BC"/>
				</linearGradient>
				<path class="st35" d="M93,150.8c-7.5-19.3-38.9-13.3-32.2-48.5c-22.9,12.3-32.7,35.2-35,58.9c0,0.1,0,0.3,0,0.4c0,0,0,0.1,0,0.1
					c-0.1,1.1-0.2,2.1-0.2,3.2c0,19.3,15.8,34.9,35.2,34.9S96,184.3,96,165C96,160,94.9,155.2,93,150.8z"/>
				
					<linearGradient id="SVGID_36_" gradientUnits="userSpaceOnUse" x1="2662.6733" y1="199.8935" x2="2662.6733" y2="132.0063" gradientTransform="matrix(-1 0 0 1 2723.4377 0)">
					<stop  offset="0" style="stop-color:#D1D3D4"/>
					<stop  offset="1" style="stop-color:#FFFFFF"/>
				</linearGradient>
				<path class="st36" d="M38.3,165.7c5.3-13.4,27.1-9.3,22.4-33.7c16,8.6,22.8,24.5,24.4,41c0,0.1,0,0.2,0,0.3c0,0,0,0.1,0,0.1
					c0.1,0.7,0.1,1.5,0.1,2.2c0,13.4-11,24.3-24.5,24.3S36.2,189,36.2,175.6C36.2,172.1,37,168.8,38.3,165.7z"/>
			</g>
			<path class="st0" d="M512.1,114.4c10.3-5,18.6-11.8,24.7-20.3c6.2-8.5,9.2-19.6,9.2-33.3c0-9.7-1.9-17.7-5.6-23.9
				c-3.8-6.3-8.8-11.5-15.2-15.5c-6.2-3.9-13-6.5-20.4-7.7c-7.4-1.2-16-1.9-25.9-1.9H407v31.4c1.7,2.6,3.4,5.3,4.9,8.2
				c7.6,14.2,11.4,31,11.4,50c0,18.4-4.1,35.1-12.2,49.8c-1.3,2.4-2.7,4.6-4.1,6.8v32.5h44.6v-65.5h16.1l49.8,65.5h54.7L512.1,114.4
				z M497.8,78.7c-1.4,3.1-3.5,5.8-6.4,8c-3,2.5-6.7,4.1-11.1,4.9c-4.4,0.8-9.7,1.1-15.9,1.1h-12.8V44.6h15c5.1,0,9.4,0.2,12.8,0.5
				c3.4,0.3,6.6,1.1,9.4,2.3c4,1.8,6.9,4.3,8.6,7.5c1.7,3.2,2.6,7.1,2.6,11.6C499.9,71.5,499.2,75.6,497.8,78.7z"/>
			<path class="st0" d="M402.7,56.2c-6.8-12.8-16.1-22.9-27.8-30.4c-9.6-6.2-19.9-10-30.8-11.6c-11-1.6-22.7-2.4-35.3-2.4h-31.5
				l-23.9,69.4v109.2h55.9c12.3,0,23.9-0.9,34.8-2.6c10.9-1.7,21-5.6,30.3-11.6c11.1-7,20.3-17.1,27.6-30.3
				c7.3-13.2,10.9-28,10.9-44.7C412.9,84,409.5,69,402.7,56.2z M361,130.8c-3.8,8.2-9.4,14.6-16.8,19.2c-6.2,3.9-12.8,6.1-19.7,6.4
				c-6.9,0.4-15.4,0.5-25.5,0.5h-0.8V45.1h0.8c9.3,0,17.3,0.2,23.9,0.5c6.7,0.3,13.1,2.2,19.1,5.5c8.4,4.7,14.6,11.3,18.7,19.6
				c4,8.4,6.1,18.4,6.1,30.2C366.8,112.7,364.9,122.6,361,130.8z"/>
			<path class="st0" d="M266.1,11.8l-61.4,178.6h-46.8L96.5,11.8H143l38.9,121l38.9-121H266.1z"/>
		</g>
	</g>
</g>
</svg>
