<?xml version="1.0" encoding="utf-8"?>
<!-- Generator: Adobe Illustrator 19.1.0, SVG Export Plug-In . SVG Version: 6.00 Build 0)  -->
<svg version="1.1" id="Layer_1" xmlns="http://www.w3.org/2000/svg" xmlns:xlink="http://www.w3.org/1999/xlink" x="0px" y="0px"
	 viewBox="-1149.1 565.6 572.4 208.4" style="enable-background:new -1149.1 565.6 572.4 208.4;" xml:space="preserve">
<style type="text/css">
	.st0{fill:#FFFFFF;}
	.st1{fill:url(#SVGID_1_);}
	.st2{fill:url(#SVGID_2_);}
	.st3{fill:url(#SVGID_3_);}
	.st4{fill:url(#SVGID_4_);}
	.st5{fill:url(#SVGID_5_);}
	.st6{fill:url(#SVGID_6_);}
	.st7{fill:url(#SVGID_7_);}
	.st8{fill:url(#SVGID_8_);}
	.st9{fill:url(#SVGID_9_);}
	.st10{fill:url(#SVGID_10_);}
	.st11{fill:url(#SVGID_11_);}
	.st12{fill:url(#SVGID_12_);}
	.st13{fill:url(#SVGID_13_);}
	.st14{fill:url(#SVGID_14_);}
	.st15{fill:url(#SVGID_15_);}
	.st16{fill:url(#SVGID_16_);}
	.st17{fill:url(#SVGID_17_);}
	.st18{fill:url(#SVGID_18_);}
	.st19{fill:url(#SVGID_19_);}
	.st20{fill:url(#SVGID_20_);}
	.st21{fill:url(#SVGID_21_);}
	.st22{fill:url(#SVGID_22_);}
	.st23{fill:url(#SVGID_23_);}
	.st24{fill:url(#SVGID_24_);}
	.st25{display:none;}
	.st26{fill:url(#SVGID_25_);}
	.st27{fill:url(#SVGID_26_);}
	.st28{fill:url(#SVGID_27_);}
	.st29{fill:url(#SVGID_28_);}
	.st30{fill:url(#SVGID_29_);}
	.st31{fill:url(#SVGID_30_);}
	.st32{fill:url(#SVGID_31_);}
	.st33{fill:url(#SVGID_32_);}
	.st34{fill:url(#SVGID_33_);}
	.st35{fill:url(#SVGID_34_);}
	.st36{fill:url(#SVGID_35_);}
	.st37{fill:url(#SVGID_36_);}
	.st38{fill:url(#SVGID_37_);}
	.st39{fill:url(#SVGID_38_);}
	.st40{fill:url(#SVGID_39_);}
	.st41{fill:url(#SVGID_40_);}
</style>
<g id="Layer_3">
	<rect x="-138.2" y="-1505.5" width="1098" height="1025.5"/>
</g>
<g id="Layer_1_1_">
	<path class="st0" d="M719.2-894.5L673-760.2h-35.2l-46.2-134.3h35l29.2,91l29.2-91H719.2z"/>
	<path class="st0" d="M836.8-827.2c0,12.5-2.7,23.7-8.2,33.6s-12.4,17.5-20.8,22.8c-7,4.5-14.6,7.4-22.8,8.7
		c-8.2,1.3-16.9,1.9-26.2,1.9h-42v-134.3h41.7c9.4,0,18.3,0.6,26.5,1.8c8.2,1.2,16,4.1,23.2,8.8c8.8,5.7,15.8,13.3,20.9,22.9
		C834.2-851.5,836.8-840.2,836.8-827.2z M802.2-827.5c0-8.8-1.5-16.4-4.6-22.7c-3-6.3-7.7-11.2-14-14.8c-4.6-2.5-9.4-3.9-14.4-4.2
		c-5-0.2-11-0.4-18-0.4c0,0-0.5,0-0.6,0c-18.6,0-17.3,84.1,0,84.1c0.2,0,0.6,0,0.6,0c7.6,0,14-0.1,19.2-0.4s10.1-1.9,14.8-4.8
		c5.5-3.5,9.7-8.3,12.6-14.4C800.7-811.2,802.2-818.7,802.2-827.5z"/>
	<path class="st0" d="M958-759.2h-41.1l-37.4-49.3h-12.1v49.3h-33.6v-134.3h54c7.5,0,14,0.5,19.5,1.4s10.6,2.9,15.3,5.8
		c4.8,3.1,8.6,7,11.5,11.7c2.8,4.7,4.2,10.7,4.2,18c0,10.3-2.3,18.6-6.9,25s-10.8,11.5-18.6,15.3L958-759.2z M903.7-852.4
		c0-3.4-0.6-6.3-1.9-8.7c-1.3-2.4-3.4-4.3-6.5-5.6c-2.1-0.9-4.5-1.5-7-1.7c-2.6-0.2-5.8-0.4-9.7-0.4h-11.3v36.2h9.7
		c4.7,0,8.7-0.3,12-0.9s6.1-1.8,8.3-3.7c2.2-1.7,3.8-3.7,4.8-6C903.2-845.5,903.7-848.6,903.7-852.4z"/>
	<g>
		
			<linearGradient id="SVGID_1_" gradientUnits="userSpaceOnUse" x1="617.0488" y1="1442.8032" x2="617.0488" y2="1504.2179" gradientTransform="matrix(0.9772 -0.2125 -0.2125 -0.9772 468.8051 750.4105)">
			<stop  offset="0" style="stop-color:#2B3990"/>
			<stop  offset="1" style="stop-color:#1C75BC"/>
		</linearGradient>
		<path class="st1" d="M761.3-790.1c-7.9,0-14.8-6-16.4-14.2c-0.1-0.5-0.2-1.1-0.3-1.6v-0.3c-1.1-9.8,0.7-32.6,9.5-40.8l5.7-5.3
			l0.2,7.8c0.2,9.2,5,14.4,9.7,19.4c2,2.2,3.9,4.3,5.4,6.6c1.3,2,2.3,4.2,2.8,6.7c1.9,9.6-3.8,19.1-12.8,21.2
			C763.7-790.3,762.5-790.1,761.3-790.1L761.3-790.1z"/>
		
			<linearGradient id="SVGID_2_" gradientUnits="userSpaceOnUse" x1="616.8469" y1="1446.3501" x2="616.8469" y2="1497.3126" gradientTransform="matrix(0.9772 -0.2125 -0.2125 -0.9772 468.8051 750.4105)">
			<stop  offset="0" style="stop-color:#2B3990"/>
			<stop  offset="1" style="stop-color:#1C75BC"/>
		</linearGradient>
		<path class="st2" d="M772-816.5c-4.4-7.1-15.2-13.1-15.6-27.9c-7.5,7-9.5,28.1-8.4,37.9c0,0.1,0,0.1,0,0.2c0,0,0,0,0,0.1
			c0,0.4,0.1,0.9,0.2,1.3c1.6,7.8,8.7,12.7,15.8,11c7.2-1.7,11.8-9.4,10.2-17.1C773.9-813.1,773.1-814.9,772-816.5z"/>
		
			<linearGradient id="SVGID_3_" gradientUnits="userSpaceOnUse" x1="-554.7106" y1="1693.4491" x2="-554.7106" y2="1758.9192" gradientTransform="matrix(-1.2498 -0.1067 0.1031 -1.2081 -103.224 1201.1694)">
			<stop  offset="0" style="stop-color:#262262"/>
			<stop  offset="1" style="stop-color:#1C75BC"/>
		</linearGradient>
		<path class="st3" d="M766.8-785.4c-0.7,0-1.3,0-2-0.1c-12.1-1.1-21.2-12.3-20.2-24.9c0.3-3.2,1.1-6.2,2.6-9
			c1.5-3.3,3.8-6.4,6.2-9.7c5.7-7.8,11.6-15.9,10.3-28.7l-0.8-7.6l6.2,4.3c13.3,9.2,19.4,39,19.6,52.2v0.3c0,0.7,0,1.4-0.1,2.1
			C787.8-794.6,778.2-785.4,766.8-785.4z"/>
		
			<linearGradient id="SVGID_4_" gradientUnits="userSpaceOnUse" x1="-554.7556" y1="1696.3582" x2="-554.7556" y2="1753.2891" gradientTransform="matrix(-1.2498 -0.1067 0.1031 -1.2081 -103.224 1201.1694)">
			<stop  offset="0" style="stop-color:#262262"/>
			<stop  offset="1" style="stop-color:#1C75BC"/>
		</linearGradient>
		<path class="st4" d="M750.3-817.8c4.8-10.4,18.9-20.4,16.9-40.3c11.5,8,17.9,36,18.1,49.3c0,0.1,0,0.1,0,0.2c0,0,0,0,0,0.1
			c0,0.6,0,1.2-0.1,1.8c-0.8,10.7-9.9,18.6-20.1,17.7c-10.3-0.9-17.9-10.4-17-21.1C748.3-812.9,749.1-815.5,750.3-817.8z"/>
		
			<linearGradient id="SVGID_5_" gradientUnits="userSpaceOnUse" x1="766.6" y1="1624.546" x2="766.6" y2="1581.3461" gradientTransform="matrix(1 0 0 -1 0 795.9999)">
			<stop  offset="0" style="stop-color:#00A79D"/>
			<stop  offset="1" style="stop-color:#1C75BC"/>
		</linearGradient>
		<path class="st5" d="M779.7-807.1c-3.1-8.5-15.8-5.9-13.1-21.5c-9.3,5.5-13.3,15.6-14.2,26.1c0,0.1,0,0.1,0,0.2c0,0,0,0,0,0.1
			c0,0.5-0.1,0.9-0.1,1.4c0,8.5,6.4,15.4,14.3,15.4s14.3-6.9,14.3-15.4C780.9-803,780.5-805.2,779.7-807.1z"/>
		
			<linearGradient id="SVGID_6_" gradientUnits="userSpaceOnUse" x1="-701.0895" y1="1581.4" x2="-701.0895" y2="1614.5" gradientTransform="matrix(-1 0 0 -1 65.6105 795.9999)">
			<stop  offset="0" style="stop-color:#D1D3D4"/>
			<stop  offset="1" style="stop-color:#FFFFFF"/>
		</linearGradient>
		<path class="st6" d="M766.7-785.4c-6.1,0-11-5.2-11-11.6c0-1.6,0.3-3.1,0.9-4.6c1-2.8,3.2-4.2,4.7-5.1c2-1.2,2.4-1.5,2-4.3
			l-1.3-7.5l6.5,3.8c5.3,3.1,8.5,8.8,9.2,16.4v0.2c0,0.3,0,0.7,0,1C777.7-790.6,772.8-785.4,766.7-785.4z"/>
		
			<linearGradient id="SVGID_7_" gradientUnits="userSpaceOnUse" x1="-701.0895" y1="1584.8763" x2="-701.0895" y2="1607.6178" gradientTransform="matrix(-1 0 0 -1 65.6105 795.9999)">
			<stop  offset="0" style="stop-color:#D1D3D4"/>
			<stop  offset="1" style="stop-color:#FFFFFF"/>
		</linearGradient>
		<path class="st7" d="M759.8-800.3c1.6-4.5,8.3-3.1,6.9-11.3c4.9,2.9,7,8.2,7.5,13.7v0.1l0,0c0,0.2,0,0.5,0,0.7
			c0,4.5-3.4,8.1-7.5,8.1c-4.2,0-7.5-3.6-7.5-8.1C759.2-798.2,759.4-799.3,759.8-800.3z"/>
	</g>
	<g>
		
			<linearGradient id="SVGID_8_" gradientUnits="userSpaceOnUse" x1="-36.6004" y1="2062.2107" x2="-36.6004" y2="2186.6682" gradientTransform="matrix(0.9772 -0.2125 -0.2125 -0.9772 468.8051 750.4105)">
			<stop  offset="0" style="stop-color:#2B3990"/>
			<stop  offset="1" style="stop-color:#1C75BC"/>
		</linearGradient>
		<path class="st8" d="M15.8-1312c-11.5-17.4-40.1-32-41.1-68c-19.7,17-25,68.6-22.2,92.4c0,0.1,0,0.3,0,0.4v0.1
			c0.1,1.1,0.3,2.1,0.5,3.2c4.1,19,22.8,31,41.8,26.9s31-22.8,26.9-41.8C20.7-1303.6,18.6-1308.1,15.8-1312z"/>
		
			<linearGradient id="SVGID_9_" gradientUnits="userSpaceOnUse" x1="85.6157" y1="2016.9132" x2="85.6157" y2="2155.9229" gradientTransform="matrix(-1.2498 -0.1067 0.1031 -1.2081 -103.224 1201.1694)">
			<stop  offset="0" style="stop-color:#262262"/>
			<stop  offset="1" style="stop-color:#1C75BC"/>
		</linearGradient>
		<path class="st9" d="M-41.4-1315.1c12.7-25.3,49.8-49.8,44.5-98.2c30.4,19.5,47.3,87.9,47.8,120.4c0,0.2,0,0.4,0,0.5s0,0.1,0,0.2
			c0,1.4,0,2.9-0.2,4.4c-2.2,26.2-26,45.5-53,43.2s-47.2-25.4-44.9-51.5C-46.7-1303.1-44.7-1309.4-41.4-1315.1z"/>
		
			<linearGradient id="SVGID_10_" gradientUnits="userSpaceOnUse" x1="1.7" y1="2120.2" x2="1.7" y2="2040.5157" gradientTransform="matrix(1 0 0 -1 0 795.9999)">
			<stop  offset="0" style="stop-color:#00A79D"/>
			<stop  offset="1" style="stop-color:#1C75BC"/>
		</linearGradient>
		<path class="st10" d="M27.7-1284.6c-6.1-15.8-31.5-10.9-26.1-39.6c-18.5,10.1-26.5,28.8-28.3,48.1c0,0.1,0,0.2,0,0.3v0.1
			c-0.1,0.9-0.1,1.7-0.1,2.6c0,15.7,12.8,28.5,28.5,28.5s28.5-12.8,28.5-28.5C30.2-1277.1,29.3-1281,27.7-1284.6z"/>
		
			<linearGradient id="SVGID_11_" gradientUnits="userSpaceOnUse" x1="63.9152" y1="2040.5079" x2="63.9152" y2="2095.979" gradientTransform="matrix(-1 0 0 -1 65.6105 795.9999)">
			<stop  offset="0" style="stop-color:#D1D3D4"/>
			<stop  offset="1" style="stop-color:#FFFFFF"/>
		</linearGradient>
		<path class="st11" d="M-16.4-1272.4c4.2-11,21.9-7.6,18.1-27.6c12.9,7,18.4,20,19.7,33.5c0,0.1,0,0.1,0,0.2v0.1
			c0.1,0.6,0.1,1.2,0.1,1.8c0,11-8.9,19.8-19.8,19.8c-11,0-19.8-8.9-19.8-19.8C-18.2-1267.2-17.5-1269.9-16.4-1272.4z"/>
	</g>
	<text transform="matrix(1 0 0 1 59.8052 -1298.5078)" class="st0" style="font-family:'Tahoma-Bold'; font-size:148.8401px;">VDR </text>
	
		<text transform="matrix(1 0 0 1 -48.1949 -1217.5083)" class="st0" style="font-family:'MSReferenceSansSerif'; font-size:11.4421px;">Passieve Brandprevents |  Wanden en Plafonds | Thermisch en Akoestische Insulatie</text>
	<g>
		
			<linearGradient id="SVGID_12_" gradientUnits="userSpaceOnUse" x1="235.014" y1="1766.0311" x2="235.014" y2="1844.0448" gradientTransform="matrix(0.9772 -0.2125 -0.2125 -0.9772 468.8051 750.4105)">
			<stop  offset="0" style="stop-color:#2B3990"/>
			<stop  offset="1" style="stop-color:#1C75BC"/>
		</linearGradient>
		<path class="st12" d="M336.4-1059.8c-7.2-10.9-25.2-20-25.8-42.6c-12.3,10.7-15.6,43-13.9,58c0,0.1,0,0.2,0,0.2v0.1
			c0.1,0.7,0.2,1.3,0.3,2c2.6,11.9,14.3,19.4,26.2,16.8c11.9-2.6,19.4-14.3,16.8-26.2C339.4-1054.6,338.1-1057.4,336.4-1059.8z"/>
		
			<linearGradient id="SVGID_13_" gradientUnits="userSpaceOnUse" x1="-189.7138" y1="1853.4183" x2="-189.7138" y2="1940.5168" gradientTransform="matrix(-1.2498 -0.1067 0.1031 -1.2081 -103.224 1201.1694)">
			<stop  offset="0" style="stop-color:#262262"/>
			<stop  offset="1" style="stop-color:#1C75BC"/>
		</linearGradient>
		<path class="st13" d="M300.5-1061.8c8-15.9,31.2-31.2,27.9-61.6c19.1,12.2,29.6,55.1,29.9,75.5c0,0.1,0,0.2,0,0.3v0.1
			c0,0.9,0,1.8-0.1,2.7c-1.4,16.4-16.3,28.5-33.2,27.1c-17-1.4-29.6-15.9-28.2-32.3C297.2-1054.3,298.5-1058.3,300.5-1061.8z"/>
		
			<linearGradient id="SVGID_14_" gradientUnits="userSpaceOnUse" x1="327.6001" y1="1863.5" x2="327.6001" y2="1813.5508" gradientTransform="matrix(1 0 0 -1 0 795.9999)">
			<stop  offset="0" style="stop-color:#00A79D"/>
			<stop  offset="1" style="stop-color:#1C75BC"/>
		</linearGradient>
		<path class="st14" d="M343.9-1042.7c-3.8-9.9-19.7-6.8-16.3-24.8c-11.6,6.3-16.6,18-17.8,30.2c0,0.1,0,0.1,0,0.2c0,0,0,0,0,0.1
			c0,0.5-0.1,1.1-0.1,1.6c0,9.9,8,17.9,17.9,17.9c9.9,0,17.9-8,17.9-17.9C345.4-1038,344.9-1040.5,343.9-1042.7z"/>
		
			<linearGradient id="SVGID_15_" gradientUnits="userSpaceOnUse" x1="-262.0638" y1="1813.564" x2="-262.0638" y2="1848.3356" gradientTransform="matrix(-1 0 0 -1 65.6105 795.9999)">
			<stop  offset="0" style="stop-color:#D1D3D4"/>
			<stop  offset="1" style="stop-color:#FFFFFF"/>
		</linearGradient>
		<path class="st15" d="M316.2-1035.1c2.7-6.9,13.7-4.8,11.4-17.3c8.1,4.4,11.5,12.5,12.4,21v0.1l0,0c0,0.4,0.1,0.8,0.1,1.1
			c0,6.9-5.6,12.4-12.4,12.4c-6.9,0-12.4-5.6-12.4-12.4C315.1-1031.8,315.5-1033.5,316.2-1035.1z"/>
	</g>
	<text transform="matrix(1 0 0 1 680.8052 -1010.5078)" class="st0" style="font-family:'Tahoma'; font-size:20.5065px;">The Fire Techs.</text>
	<text transform="matrix(1 0 0 1 612.0865 -596.5078)" class="st0" style="font-family:'Tahoma'; font-size:34.408px;">The Fire Techs.</text>
	<text transform="matrix(1 0 0 1 59.8052 -1244.5078)" class="st0" style="font-family:'Tahoma-Bold'; font-size:54.8556px;">Constructions</text>
	<g>
		
			<linearGradient id="SVGID_16_" gradientUnits="userSpaceOnUse" x1="456.3179" y1="1957.1709" x2="456.3179" y2="2081.6282" gradientTransform="matrix(0.9772 -0.2125 -0.2125 -0.9772 468.8051 750.4105)">
			<stop  offset="0" style="stop-color:#2B3990"/>
			<stop  offset="1" style="stop-color:#1C75BC"/>
		</linearGradient>
		<path class="st16" d="M519.8-1314.1c-11.5-17.4-40.1-32-41.1-68c-19.7,17-25,68.6-22.2,92.4c0,0.1,0,0.3,0,0.4v0.1
			c0.1,1.1,0.3,2.1,0.5,3.2c4.1,19,22.8,31,41.8,26.9c19-4.1,31-22.8,26.9-41.8C524.7-1305.8,522.6-1310.3,519.8-1314.1z"/>
		
			<linearGradient id="SVGID_17_" gradientUnits="userSpaceOnUse" x1="-314.583" y1="2054.0801" x2="-314.583" y2="2193.0896" gradientTransform="matrix(-1.2498 -0.1067 0.1031 -1.2081 -103.224 1201.1694)">
			<stop  offset="0" style="stop-color:#262262"/>
			<stop  offset="1" style="stop-color:#1C75BC"/>
		</linearGradient>
		<path class="st17" d="M462.6-1317.3c12.7-25.3,49.8-49.8,44.5-98.2c30.4,19.5,47.3,87.9,47.8,120.4c0,0.2,0,0.4,0,0.5s0,0.1,0,0.2
			c0,1.4,0,2.9-0.2,4.4c-2.2,26.2-26,45.5-53,43.2c-27.1-2.3-47.2-25.4-44.9-51.5C457.3-1305.2,459.3-1311.6,462.6-1317.3z"/>
		
			<linearGradient id="SVGID_18_" gradientUnits="userSpaceOnUse" x1="505.7001" y1="2122.3999" x2="505.7001" y2="2042.7158" gradientTransform="matrix(1 0 0 -1 0 795.9999)">
			<stop  offset="0" style="stop-color:#00A79D"/>
			<stop  offset="1" style="stop-color:#1C75BC"/>
		</linearGradient>
		<path class="st18" d="M531.7-1286.8c-6.1-15.8-31.5-10.9-26.1-39.6c-18.5,10.1-26.5,28.8-28.3,48.1c0,0.1,0,0.2,0,0.3v0.1
			c-0.1,0.9-0.1,1.7-0.1,2.6c0,15.7,12.8,28.5,28.5,28.5c15.7,0,28.5-12.8,28.5-28.5C534.2-1279.3,533.3-1283.2,531.7-1286.8z"/>
		
			<linearGradient id="SVGID_19_" gradientUnits="userSpaceOnUse" x1="-440.0847" y1="2042.6792" x2="-440.0847" y2="2098.1504" gradientTransform="matrix(-1 0 0 -1 65.6105 795.9999)">
			<stop  offset="0" style="stop-color:#D1D3D4"/>
			<stop  offset="1" style="stop-color:#FFFFFF"/>
		</linearGradient>
		<path class="st19" d="M487.6-1274.6c4.2-11,21.9-7.6,18.1-27.6c12.9,7,18.4,20,19.7,33.5c0,0.1,0,0.1,0,0.2v0.1
			c0.1,0.6,0.1,1.2,0.1,1.8c0,11-8.9,19.8-19.8,19.8c-10.9,0-19.8-8.9-19.8-19.8C485.8-1269.4,486.5-1272.1,487.6-1274.6z"/>
	</g>
	<text transform="matrix(1 0 0 1 563.8052 -1300.6792)" class="st0" style="font-family:'Tahoma-Bold'; font-size:148.8401px;">VDR </text>
	
		<text transform="matrix(1 0 0 1 455.8052 -1219.6794)" class="st0" style="font-family:'MSReferenceSansSerif'; font-size:11.4421px;">Passieve Brandprevents |  Wanden en Plafonds | Thermisch en Akoestische Insulatie</text>
	<text transform="matrix(1 0 0 1 563.8052 -1246.6792)" class="st0" style="font-family:'Tahoma-Bold'; font-size:54.8556px;">Constructions</text>
	<g>
		
			<linearGradient id="SVGID_20_" gradientUnits="userSpaceOnUse" x1="-964.8225" y1="1908.6041" x2="-964.8225" y2="1953.4419" gradientTransform="matrix(0.9772 -0.2125 -0.2125 -0.9772 468.8051 750.4105)">
			<stop  offset="0" style="stop-color:#2B3990"/>
			<stop  offset="1" style="stop-color:#1C75BC"/>
		</linearGradient>
		<path class="st20" d="M-872.1-929.5c-4.1-6.3-14.5-11.5-14.8-24.5c-7.1,6.1-9,24.7-8,33.3v0.1l0,0c0,0.4,0.1,0.8,0.2,1.2
			c1.5,6.8,8.2,11.2,15.1,9.7c6.8-1.5,11.2-8.2,9.7-15.1C-870.3-926.5-871.1-928.1-872.1-929.5z"/>
		
			<linearGradient id="SVGID_21_" gradientUnits="userSpaceOnUse" x1="758.7738" y1="1676.553" x2="758.7738" y2="1726.6206" gradientTransform="matrix(-1.2498 -0.1067 0.1031 -1.2081 -103.224 1201.1694)">
			<stop  offset="0" style="stop-color:#262262"/>
			<stop  offset="1" style="stop-color:#1C75BC"/>
		</linearGradient>
		<path class="st21" d="M-892.7-930.6c4.6-9.1,17.9-17.9,16-35.4c11,7,17,31.7,17.2,43.4c0,0.1,0,0.1,0,0.2c0,0,0,0,0,0.1
			c0,0.5,0,1-0.1,1.6c-0.8,9.4-9.4,16.4-19.1,15.6c-9.7-0.8-17-9.1-16.2-18.6C-894.6-926.3-893.9-928.6-892.7-930.6z"/>
		
			<linearGradient id="SVGID_22_" gradientUnits="userSpaceOnUse" x1="-877.1" y1="1729.8682" x2="-877.1" y2="1701.1581" gradientTransform="matrix(1 0 0 -1 0 795.9999)">
			<stop  offset="0" style="stop-color:#00A79D"/>
			<stop  offset="1" style="stop-color:#1C75BC"/>
		</linearGradient>
		<path class="st22" d="M-867.8-919.6c-2.2-5.7-11.3-3.9-9.4-14.3c-6.7,3.6-9.5,10.4-10.2,17.3v0.1l0,0c0,0.3,0,0.6,0,0.9
			c0,5.7,4.6,10.3,10.3,10.3s10.3-4.6,10.3-10.3C-866.9-916.9-867.2-918.3-867.8-919.6z"/>
		
			<linearGradient id="SVGID_23_" gradientUnits="userSpaceOnUse" x1="942.8105" y1="1701.1581" x2="942.8105" y2="1721.158" gradientTransform="matrix(-1 0 0 -1 65.6105 795.9999)">
			<stop  offset="0" style="stop-color:#D1D3D4"/>
			<stop  offset="1" style="stop-color:#FFFFFF"/>
		</linearGradient>
		<path class="st23" d="M-883.7-915.2c1.5-4,7.9-2.7,6.5-9.9c4.7,2.5,6.6,7.2,7.1,12.1v0.1l0,0c0,0.2,0,0.4,0,0.7
			c0,3.9-3.2,7.1-7.1,7.1c-3.9,0-7.1-3.2-7.1-7.1C-884.3-913.3-884.1-914.3-883.7-915.2z"/>
	</g>
	<g>
		<path class="st0" d="M-801.6-958.3l-17.2,50.1H-832l-17.2-50.1h13.1l10.9,33.9l10.9-33.9H-801.6z"/>
		<path class="st0" d="M-752.2-933.2c0,4.7-1,8.8-3.1,12.5c-2,3.7-4.6,6.5-7.7,8.5c-2.6,1.7-5.4,2.8-8.5,3.2
			c-3.1,0.5-6.3,0.7-9.8,0.7H-797v-50.1h15.5c3.5,0,6.8,0.2,9.9,0.7c3.1,0.4,6,1.5,8.6,3.3c3.3,2.1,5.9,5,7.8,8.5
			C-753.2-942.2-752.2-938-752.2-933.2z M-765.2-933.3c0-3.3-0.6-6.1-1.7-8.5c-1.1-2.3-2.9-4.2-5.2-5.5c-1.7-0.9-3.5-1.5-5.4-1.5
			c-1.9-0.1-4.1-0.1-6.7-0.1h-0.2v31.4h0.2c2.8,0,5.2-0.1,7.1-0.2c1.9-0.1,3.8-0.7,5.5-1.8c2.1-1.3,3.6-3.1,4.7-5.4
			C-765.7-927.2-765.2-930-765.2-933.3z"/>
		<path class="st0" d="M-698.5-908.2h-15.3l-14-18.4h-4.5v18.4h-12.5v-50.1h20.1c2.8,0,5.2,0.2,7.3,0.5s4,1.1,5.7,2.2
			c1.8,1.1,3.2,2.6,4.3,4.4s1.6,4,1.6,6.7c0,3.8-0.9,6.9-2.6,9.3c-1.7,2.4-4,4.3-6.9,5.7L-698.5-908.2z M-718.7-942.9
			c0-1.3-0.2-2.3-0.7-3.2c-0.5-0.9-1.3-1.6-2.4-2.1c-0.8-0.3-1.7-0.5-2.6-0.6c-1-0.1-2.2-0.1-3.6-0.1h-4.2v13.5h3.6
			c1.7,0,3.2-0.1,4.5-0.3c1.2-0.2,2.3-0.7,3.1-1.4c0.8-0.6,1.4-1.4,1.8-2.3C-718.9-940.4-718.7-941.5-718.7-942.9z"/>
	</g>
	<g>
		<path class="st0" d="M-666.1-908.3c-3.2,0-6.1-0.5-8.8-1.6c-2.7-1.1-5-2.7-6.9-4.8c-1.9-2.1-3.4-4.8-4.5-7.9
			c-1.1-3.2-1.6-6.8-1.6-10.9s0.5-7.6,1.6-10.7c1-3,2.5-5.7,4.5-7.9c1.9-2.2,4.2-3.8,6.9-5c2.7-1.1,5.6-1.7,8.9-1.7
			c1.6,0,3.2,0.1,4.6,0.4c1.4,0.2,2.8,0.5,4,0.9c1,0.3,2.1,0.7,3.2,1.2c1.1,0.5,2.2,1,3.3,1.6v7.8h-0.5c-0.6-0.5-1.3-1.2-2.2-1.9
			c-0.9-0.7-2-1.5-3.3-2.2c-1.2-0.7-2.6-1.2-4.1-1.7c-1.5-0.4-3.2-0.7-5.1-0.7c-2.1,0-4,0.4-5.9,1.3c-1.9,0.9-3.5,2.1-4.9,3.8
			c-1.4,1.7-2.4,3.7-3.2,6.2s-1.1,5.3-1.1,8.5c0,3.3,0.4,6.2,1.2,8.6s1.9,4.4,3.3,6.1c1.4,1.6,2.9,2.8,4.8,3.6
			c1.8,0.8,3.8,1.2,5.8,1.2c1.9,0,3.6-0.2,5.2-0.7c1.6-0.5,3-1,4.3-1.7c1.2-0.7,2.2-1.4,3.1-2.1c0.9-0.7,1.6-1.3,2.1-1.8h0.5v7.7
			c-1.1,0.5-2.1,1-3,1.4c-0.9,0.4-2.1,0.9-3.5,1.3c-1.4,0.5-2.7,0.8-3.9,1C-662.6-908.4-664.2-908.3-666.1-908.3z"/>
		<path class="st0" d="M-615.3-927.5c0,6.2-1.5,10.9-4.5,14.3c-3,3.3-6.9,5-11.8,5c-5.1,0-9.1-1.7-12-5.2c-2.9-3.5-4.4-8.2-4.4-14.1
			c0-6.1,1.5-10.9,4.5-14.2c3-3.4,7-5.1,11.9-5.1c4.9,0,8.9,1.7,11.8,5.1C-616.8-938.3-615.3-933.6-615.3-927.5z M-621.7-927.5
			c0-4.7-0.9-8.3-2.6-10.6c-1.7-2.3-4.2-3.5-7.4-3.5s-5.7,1.2-7.4,3.5c-1.7,2.3-2.6,5.8-2.6,10.6c0,4.6,0.9,8.1,2.6,10.4
			c1.7,2.4,4.2,3.6,7.4,3.6c3.2,0,5.6-1.2,7.3-3.5C-622.5-919.3-621.7-922.8-621.7-927.5z"/>
		<path class="st0" d="M-580.3-909.2h-6.2V-930c0-1.7-0.1-3.2-0.2-4.7c-0.1-1.5-0.5-2.6-0.9-3.5c-0.5-0.9-1.2-1.6-2.1-2
			c-0.9-0.4-2.1-0.7-3.7-0.7c-1.5,0-3.1,0.4-4.7,1.2c-1.6,0.8-3.2,1.9-4.8,3.2v27.3h-6.2v-36.6h6.2v4.1c1.8-1.6,3.6-2.9,5.4-3.8
			s3.7-1.3,5.7-1.3c3.6,0,6.4,1.2,8.4,3.6s3,5.8,3,10.3v23.7H-580.3z"/>
		<path class="st0" d="M-561.8-908.3c-2.4,0-4.7-0.3-6.9-1c-2.1-0.7-3.9-1.4-5.3-2.1v-6.9h0.3c0.5,0.4,1.1,0.9,1.8,1.4
			s1.7,1,2.8,1.6c1,0.5,2.2,0.9,3.5,1.3s2.6,0.6,3.9,0.6c1,0,2-0.1,3.1-0.3c1.1-0.2,1.9-0.5,2.5-0.9c0.8-0.5,1.3-1,1.7-1.6
			c0.3-0.6,0.5-1.4,0.5-2.6c0-1.5-0.4-2.6-1.2-3.3c-0.8-0.7-2.2-1.4-4.2-1.9c-0.8-0.2-1.8-0.4-3.1-0.7c-1.3-0.3-2.4-0.5-3.5-0.9
			c-2.8-0.8-4.8-2.1-6.1-3.7c-1.3-1.7-1.9-3.7-1.9-6.1c0-3.3,1.2-6,3.7-8c2.5-2.1,5.8-3.1,9.9-3.1c2,0,4.1,0.3,6.1,0.8
			c2.1,0.5,3.8,1.1,5.2,1.9v6.6h-0.3c-1.6-1.2-3.3-2.2-5.3-2.9c-1.9-0.7-3.9-1.1-5.8-1.1c-2,0-3.7,0.4-5.1,1.3
			c-1.4,0.9-2.1,2.1-2.1,3.9c0,1.5,0.4,2.7,1.2,3.4c0.8,0.7,2.2,1.4,4,1.8c0.9,0.2,1.9,0.5,3.1,0.7c1.1,0.2,2.3,0.5,3.6,0.8
			c2.7,0.7,4.7,1.8,6.1,3.4c1.4,1.6,2,3.7,2,6.4c0,1.6-0.3,3.1-0.9,4.5c-0.6,1.4-1.5,2.6-2.7,3.6c-1.3,1.1-2.8,1.9-4.4,2.5
			C-557.2-908.6-559.3-908.3-561.8-908.3z"/>
		<path class="st0" d="M-530.7-908.5c-3.4,0-6-1-7.9-2.9c-1.9-1.9-2.8-4.9-2.8-9v-20.3h-4.2v-5.1h4.2v-10.5h6.2v10.5h11.3v5.1h-11.3
			v17.4c0,1.9,0,3.3,0.1,4.3c0.1,1,0.3,1.9,0.8,2.8c0.4,0.8,1,1.3,1.8,1.7s2,0.6,3.4,0.6c1,0,2-0.1,2.9-0.4c0.9-0.3,1.6-0.5,2-0.7
			h0.4v5.5c-1.2,0.3-2.3,0.6-3.5,0.8S-529.7-908.5-530.7-908.5z"/>
		<path class="st0" d="M-499.9-939.1h-0.3c-0.5-0.1-0.9-0.2-1.5-0.2c-0.5,0-1.1,0-1.8,0c-1.7,0-3.3,0.4-4.9,1.1s-3.2,1.8-4.6,3.2
			v25.9h-6.2v-36.6h6.2v5.4c2.2-2,4.2-3.4,5.9-4.2c1.7-0.8,3.3-1.2,4.9-1.2c0.6,0,1.1,0,1.4,0s0.7,0.1,1.1,0.1v6.5H-499.9z"/>
		<path class="st0" d="M-466.7-909.2h-6.2v-4.1c-1.9,1.7-3.7,2.9-5.4,3.8c-1.7,0.9-3.6,1.3-5.7,1.3c-1.6,0-3.1-0.3-4.5-0.8
			s-2.6-1.4-3.7-2.5c-1-1.1-1.9-2.6-2.4-4.3c-0.6-1.7-0.9-3.8-0.9-6.3v-23.7h6.2v20.8c0,1.9,0.1,3.6,0.2,4.8s0.5,2.4,1,3.4
			c0.5,0.9,1.2,1.6,2,2.1c0.9,0.4,2.1,0.7,3.7,0.7c1.5,0,3.1-0.4,4.8-1.3c1.7-0.9,3.3-1.9,4.7-3.1v-27.3h6.2L-466.7-909.2
			L-466.7-909.2z"/>
		<path class="st0" d="M-443.3-908.4c-2.5,0-4.8-0.4-6.9-1.2c-2.1-0.8-3.9-1.9-5.4-3.5s-2.7-3.6-3.5-5.9c-0.8-2.4-1.2-5.2-1.2-8.4
			c0-3.2,0.4-6,1.3-8.3s2-4.3,3.5-5.9c1.4-1.6,3.2-2.8,5.4-3.7c2.1-0.9,4.5-1.3,6.9-1.3c2,0,3.9,0.3,5.8,0.9s3.5,1.2,5,2v6.9h-0.4
			c-0.4-0.4-1-0.8-1.7-1.3c-0.7-0.5-1.5-1-2.5-1.5c-0.9-0.4-1.9-0.8-3-1.1s-2.3-0.5-3.3-0.5c-3.2,0-5.7,1.2-7.7,3.6
			c-1.9,2.4-2.9,5.8-2.9,10.2c0,4.3,0.9,7.7,2.8,10.1s4.5,3.6,7.8,3.6c2,0,3.9-0.4,5.7-1.2c1.8-0.8,3.4-1.9,4.8-3.2h0.4v6.9
			c-0.6,0.3-1.4,0.6-2.3,1s-1.7,0.7-2.5,0.9c-1,0.3-2,0.5-2.8,0.7S-442-908.4-443.3-908.4z"/>
		<path class="st0" d="M-415.8-908.5c-3.4,0-6-1-7.9-2.9s-2.8-4.9-2.8-9v-20.3h-4.2v-5.1h4.2v-10.5h6.2v10.5h11.3v5.1h-11.3v17.4
			c0,1.9,0,3.3,0.1,4.3s0.3,1.9,0.8,2.8c0.4,0.8,1,1.3,1.8,1.7c0.8,0.4,2,0.6,3.4,0.6c1,0,2-0.1,2.9-0.4s1.6-0.5,2-0.7h0.4v5.5
			c-1.2,0.3-2.3,0.6-3.5,0.8C-413.7-908.6-414.8-908.5-415.8-908.5z"/>
		<path class="st0" d="M-397.7-951.9h-7v-6.4h7V-951.9z M-398.2-909.2h-6.2v-36.6h6.2V-909.2z"/>
		<path class="st0" d="M-359.1-927.5c0,6.2-1.5,10.9-4.5,14.3s-6.9,5-11.8,5c-5.1,0-9.1-1.7-12-5.2s-4.4-8.2-4.4-14.1
			c0-6.1,1.5-10.9,4.5-14.2c3-3.4,7-5.1,11.9-5.1s8.9,1.7,11.8,5.1C-360.5-938.3-359.1-933.6-359.1-927.5z M-365.4-927.5
			c0-4.7-0.9-8.3-2.6-10.6c-1.7-2.3-4.2-3.5-7.4-3.5c-3.2,0-5.7,1.2-7.4,3.5c-1.7,2.3-2.6,5.8-2.6,10.6c0,4.6,0.9,8.1,2.6,10.4
			s4.2,3.6,7.4,3.6c3.2,0,5.6-1.2,7.3-3.5C-366.3-919.3-365.4-922.8-365.4-927.5z"/>
		<path class="st0" d="M-324-909.2h-6.2V-930c0-1.7-0.1-3.2-0.2-4.7c-0.1-1.5-0.5-2.6-0.9-3.5c-0.5-0.9-1.2-1.6-2.1-2
			s-2.1-0.7-3.7-0.7c-1.5,0-3.1,0.4-4.7,1.2c-1.6,0.8-3.2,1.9-4.8,3.2v27.3h-6.2v-36.6h6.2v4.1c1.8-1.6,3.6-2.9,5.4-3.8
			c1.8-0.9,3.7-1.3,5.7-1.3c3.6,0,6.4,1.2,8.4,3.6s3,5.8,3,10.3v23.7H-324z"/>
		<path class="st0" d="M-305.5-908.3c-2.4,0-4.7-0.3-6.9-1c-2.1-0.7-3.9-1.4-5.3-2.1v-6.9h0.3c0.5,0.4,1.1,0.9,1.8,1.4
			c0.7,0.5,1.7,1,2.8,1.6c1,0.5,2.2,0.9,3.5,1.3c1.3,0.4,2.6,0.6,3.9,0.6c1,0,2-0.1,3.1-0.3c1.1-0.2,1.9-0.5,2.5-0.9
			c0.8-0.5,1.3-1,1.7-1.6c0.3-0.6,0.5-1.4,0.5-2.6c0-1.5-0.4-2.6-1.2-3.3c-0.8-0.7-2.2-1.4-4.2-1.9c-0.8-0.2-1.8-0.4-3.1-0.7
			c-1.3-0.3-2.4-0.5-3.5-0.9c-2.8-0.8-4.8-2.1-6.1-3.7c-1.3-1.7-1.9-3.7-1.9-6.1c0-3.3,1.2-6,3.7-8c2.5-2.1,5.8-3.1,9.9-3.1
			c2,0,4.1,0.3,6.1,0.8c2.1,0.5,3.8,1.1,5.2,1.9v6.6h-0.3c-1.6-1.2-3.3-2.2-5.3-2.9c-1.9-0.7-3.9-1.1-5.8-1.1c-2,0-3.7,0.4-5.1,1.3
			c-1.4,0.9-2.1,2.1-2.1,3.9c0,1.5,0.4,2.7,1.2,3.4c0.8,0.7,2.2,1.4,4,1.8c0.9,0.2,1.9,0.5,3.1,0.7c1.1,0.2,2.3,0.5,3.6,0.8
			c2.7,0.7,4.7,1.8,6.1,3.4s2,3.7,2,6.4c0,1.6-0.3,3.1-0.9,4.5c-0.6,1.4-1.5,2.6-2.7,3.6c-1.3,1.1-2.8,1.9-4.4,2.5
			C-300.9-908.6-303-908.3-305.5-908.3z"/>
	</g>
	<g id="Layer_2">
		
			<radialGradient id="SVGID_24_" cx="432.4714" cy="1866.5" r="56.9877" gradientTransform="matrix(1.4564 0 0 -1 -302.5514 795.9999)" gradientUnits="userSpaceOnUse">
			<stop  offset="0" style="stop-color:#262262"/>
			<stop  offset="0.1417" style="stop-color:#272866"/>
			<stop  offset="0.3741" style="stop-color:#273874"/>
			<stop  offset="0.6685" style="stop-color:#27528F"/>
			<stop  offset="1" style="stop-color:#1C75BC"/>
		</radialGradient>
		<path class="st24" d="M327.5-1005.8c-34.7,0-62.8-28.9-62.8-64.7s28.1-64.7,62.8-64.7s62.8,28.9,62.8,64.7c0-37.5-28.2-68-63-68
			s-63,30.4-63,68c0,37.5,28.2,68,63,68s63-30.4,63-68C390.3-1034.8,362.2-1005.8,327.5-1005.8z"/>
	</g>
	<rect x="-1167.2" y="232.5" class="st25" width="598.5" height="262"/>
	<rect x="-1199.2" y="-697.5" width="833.8" height="682"/>
	<g>
		<path class="st0" d="M397.5-1042.2c-7,0-12.5-2.1-16.6-6.3c-4.1-4.2-6.1-10.1-6.1-17.7c0-7.3,2-13.2,6.1-17.6s9.6-6.6,16.6-6.6
			c1.8,0,3.5,0.1,5,0.3c1.5,0.2,2.9,0.5,4.2,0.9c1.1,0.3,2.2,0.7,3.5,1.3s2.3,1,3,1.4v11H412c-0.6-0.5-1.3-1.1-2.1-1.8
			c-0.9-0.7-1.8-1.4-2.9-2c-1.1-0.7-2.3-1.2-3.6-1.7s-2.7-0.7-4.1-0.7c-1.7,0-3.2,0.3-4.6,0.8c-1.4,0.5-2.7,1.4-4,2.8
			c-1.2,1.2-2.1,2.8-2.8,4.8s-1.1,4.4-1.1,7.1c0,2.9,0.4,5.3,1.2,7.3s1.8,3.5,3,4.7s2.5,2,4,2.5s3,0.8,4.4,0.8c1.5,0,3-0.3,4.4-0.8
			s2.6-1.1,3.5-1.7c1-0.6,1.9-1.3,2.7-2s1.5-1.3,2.1-1.8h1.1v10.9c-0.9,0.4-1.8,0.8-3,1.4c-1.1,0.5-2.3,0.9-3.5,1.3
			c-1.5,0.4-2.8,0.8-4.1,1C401.5-1042.3,399.7-1042.2,397.5-1042.2z"/>
		<path class="st0" d="M453-1060.5c0,5.7-1.6,10.3-4.7,13.6c-3.1,3.3-7.6,5-13.3,5s-10.1-1.7-13.3-5s-4.7-7.8-4.7-13.6
			c0-5.8,1.6-10.4,4.7-13.6c3.2-3.3,7.6-4.9,13.3-4.9s10.2,1.7,13.3,5C451.4-1070.9,453-1066.3,453-1060.5z M441.8-1060.5
			c0-2.1-0.2-3.8-0.5-5.2c-0.3-1.4-0.8-2.5-1.4-3.3c-0.6-0.9-1.4-1.5-2.2-1.8s-1.7-0.5-2.8-0.5c-1,0-1.9,0.2-2.6,0.5
			c-0.8,0.3-1.5,0.9-2.2,1.7c-0.6,0.8-1.1,1.9-1.5,3.3s-0.6,3.2-0.6,5.3c0,2.1,0.2,3.9,0.5,5.2c0.4,1.3,0.8,2.4,1.4,3.2
			c0.6,0.8,1.3,1.4,2.2,1.8s1.8,0.6,2.9,0.6c0.9,0,1.8-0.2,2.7-0.6s1.6-0.9,2.2-1.7c0.6-0.9,1.1-2,1.5-3.2
			C441.6-1056.5,441.8-1058.3,441.8-1060.5z"/>
		<path class="st0" d="M491.5-1043.1h-11v-17.3c0-1.4-0.1-2.8-0.2-4.2s-0.3-2.4-0.6-3.1c-0.4-0.8-0.9-1.4-1.6-1.7
			c-0.7-0.3-1.6-0.5-2.8-0.5c-0.9,0-1.8,0.2-2.7,0.5s-1.9,0.9-2.9,1.6v24.8h-10.9v-34.9h10.9v3.9c1.8-1.5,3.5-2.7,5.2-3.5
			c1.7-0.9,3.6-1.3,5.6-1.3c3.6,0,6.3,1.1,8.2,3.4s2.8,5.5,2.8,9.8V-1043.1z"/>
		<path class="st0" d="M510.2-1042.1c-2.6,0-5-0.3-7.3-0.8s-4.2-1.2-5.7-2v-9.2h0.9c0.5,0.4,1.1,0.8,1.8,1.3s1.6,1,2.8,1.5
			c1,0.5,2.2,0.9,3.4,1.2c1.3,0.3,2.7,0.5,4.2,0.5s2.9-0.2,4.1-0.7c1.2-0.5,1.8-1.2,1.8-2.3c0-0.8-0.3-1.4-0.8-1.8s-1.6-0.8-3.1-1.2
			c-0.8-0.2-1.9-0.4-3.1-0.7c-1.3-0.2-2.4-0.5-3.4-0.8c-2.7-0.9-4.8-2.1-6.2-3.8c-1.4-1.7-2.1-3.9-2.1-6.6c0-1.6,0.4-3,1.1-4.4
			c0.7-1.4,1.8-2.6,3.2-3.7s3.1-1.9,5.2-2.5c2-0.6,4.4-0.9,6.9-0.9c2.4,0,4.7,0.2,6.8,0.7s3.8,1.1,5.2,1.8v8.8H525
			c-0.4-0.3-1-0.7-1.8-1.2s-1.6-0.9-2.4-1.3c-0.9-0.4-1.9-0.8-3.1-1c-1.1-0.3-2.3-0.4-3.5-0.4c-1.6,0-2.9,0.3-4,0.8
			s-1.6,1.3-1.6,2.1c0,0.8,0.3,1.4,0.8,1.9s1.7,0.9,3.5,1.3c0.9,0.2,2,0.5,3.2,0.7s2.4,0.5,3.5,0.9c2.5,0.8,4.4,2,5.7,3.6
			s1.9,3.6,1.9,6.2c0,1.6-0.4,3.2-1.2,4.7s-1.9,2.7-3.3,3.8c-1.5,1.1-3.3,2-5.3,2.6C515.4-1042.4,513-1042.1,510.2-1042.1z"/>
		<path class="st0" d="M545.7-1042.4c-4.4,0-7.7-0.9-9.7-2.7c-2-1.8-3-4.8-3-9v-16.3h-4.2v-7.6h4.2v-10h10.9v10h10.5v7.6h-10.5v12.4
			c0,1.2,0,2.3,0,3.2c0,0.9,0.2,1.7,0.5,2.5c0.3,0.7,0.8,1.3,1.5,1.7s1.8,0.6,3.2,0.6c0.6,0,1.3-0.1,2.3-0.4c0.9-0.2,1.6-0.5,2-0.7
			h0.9v7.7c-1.2,0.3-2.4,0.6-3.8,0.7C549.3-1042.5,547.7-1042.4,545.7-1042.4z"/>
		<path class="st0" d="M582.3-1067.7h-0.9c-0.4-0.1-1-0.3-1.8-0.3c-0.8-0.1-1.7-0.1-2.6-0.1c-1.1,0-2.3,0.2-3.6,0.5
			s-2.5,0.7-3.7,1.2v23.4h-10.9v-34.9h10.9v5c0.5-0.5,1.2-1,2.1-1.7c0.9-0.7,1.7-1.2,2.4-1.7c0.8-0.5,1.7-0.9,2.8-1.2s2-0.5,3-0.5
			c0.4,0,0.7,0,1.2,0c0.4,0,0.8,0.1,1.2,0.1v10.2H582.3z"/>
		<path class="st0" d="M618.9-1043.1H608v-3.9c-1.9,1.6-3.6,2.8-5.2,3.6c-1.6,0.8-3.5,1.2-5.6,1.2c-3.5,0-6.2-1.1-8.1-3.3
			c-1.9-2.2-2.9-5.5-2.9-9.9v-22.7h11v17.3c0,1.8,0,3.3,0.1,4.4s0.3,2.1,0.7,2.9c0.3,0.7,0.8,1.3,1.5,1.6s1.7,0.6,2.9,0.6
			c0.8,0,1.7-0.2,2.7-0.6s2-0.9,2.9-1.5v-24.8h10.9L618.9-1043.1L618.9-1043.1z"/>
		<path class="st0" d="M644.4-1042.2c-2.9,0-5.5-0.4-7.9-1.1s-4.5-1.8-6.2-3.4c-1.7-1.5-3.1-3.4-4.1-5.7c-1-2.3-1.5-5-1.5-8.1
			c0-3.3,0.5-6.2,1.6-8.5s2.5-4.3,4.3-5.8c1.7-1.5,3.8-2.5,6.1-3.2c2.4-0.7,4.8-1,7.4-1c1.9,0,3.9,0.2,5.8,0.7
			c1.9,0.4,3.9,1.2,5.8,2.1v9.3h-1.4c-0.4-0.4-1-0.9-1.6-1.4s-1.3-1-2.1-1.4s-1.7-0.8-2.7-1.1s-2.1-0.5-3.3-0.5
			c-2.8,0-4.9,1-6.5,2.9c-1.5,1.9-2.3,4.5-2.3,7.8c0,3.5,0.8,6.1,2.4,7.8c1.6,1.7,3.8,2.6,6.5,2.6c1.4,0,2.6-0.2,3.6-0.5
			s1.9-0.7,2.7-1.1c0.7-0.4,1.3-0.9,1.9-1.4c0.5-0.5,1-0.9,1.3-1.3h1.4v9.3c-0.6,0.3-1.3,0.6-2.2,0.9c-0.8,0.4-1.7,0.6-2.5,0.9
			c-1.1,0.3-2,0.5-3,0.7C647.1-1042.2,645.9-1042.2,644.4-1042.2z"/>
		<path class="st0" d="M674.3-1042.4c-4.4,0-7.7-0.9-9.7-2.7c-2-1.8-3-4.8-3-9v-16.3h-4.2v-7.6h4.2v-10h10.9v10H683v7.6h-10.5v12.4
			c0,1.2,0,2.3,0,3.2c0,0.9,0.2,1.7,0.5,2.5c0.3,0.7,0.8,1.3,1.5,1.7s1.8,0.6,3.2,0.6c0.6,0,1.3-0.1,2.3-0.4c0.9-0.2,1.6-0.5,2-0.7
			h0.9v7.7c-1.2,0.3-2.4,0.6-3.8,0.7C677.8-1042.5,676.2-1042.4,674.3-1042.4z"/>
		<path class="st0" d="M698.6-1083H687v-8.5h11.5L698.6-1083L698.6-1083z M698.2-1043.1h-10.9v-34.9h10.9V-1043.1z"/>
		<path class="st0" d="M740.1-1060.5c0,5.7-1.6,10.3-4.7,13.6c-3.1,3.3-7.6,5-13.3,5s-10.1-1.7-13.3-5s-4.7-7.8-4.7-13.6
			c0-5.8,1.6-10.4,4.7-13.6c3.2-3.3,7.6-4.9,13.3-4.9s10.2,1.7,13.3,5S740.1-1066.3,740.1-1060.5z M729-1060.5
			c0-2.1-0.2-3.8-0.5-5.2c-0.3-1.4-0.8-2.5-1.4-3.3c-0.6-0.9-1.4-1.5-2.2-1.8s-1.7-0.5-2.8-0.5c-1,0-1.9,0.2-2.6,0.5
			c-0.8,0.3-1.5,0.9-2.2,1.7c-0.6,0.8-1.1,1.9-1.5,3.3s-0.6,3.2-0.6,5.3c0,2.1,0.2,3.9,0.5,5.2c0.4,1.3,0.8,2.4,1.4,3.2
			c0.6,0.8,1.3,1.4,2.2,1.8s1.8,0.6,2.9,0.6c0.9,0,1.8-0.2,2.7-0.6s1.6-0.9,2.2-1.7c0.6-0.9,1.1-2,1.5-3.2
			C728.8-1056.5,729-1058.3,729-1060.5z"/>
		<path class="st0" d="M778.7-1043.1h-11v-17.3c0-1.4-0.1-2.8-0.2-4.2s-0.3-2.4-0.6-3.1c-0.4-0.8-0.9-1.4-1.6-1.7
			c-0.7-0.3-1.6-0.5-2.8-0.5c-0.9,0-1.8,0.2-2.7,0.5s-1.9,0.9-2.9,1.6v24.8H746v-34.9h10.9v3.9c1.8-1.5,3.5-2.7,5.2-3.5
			c1.7-0.9,3.6-1.3,5.6-1.3c3.6,0,6.3,1.1,8.2,3.4s2.8,5.5,2.8,9.8V-1043.1z"/>
		<path class="st0" d="M797.4-1042.1c-2.6,0-5-0.3-7.3-0.8s-4.2-1.2-5.7-2v-9.2h0.9c0.5,0.4,1.1,0.8,1.8,1.3s1.6,1,2.8,1.5
			c1,0.5,2.2,0.9,3.4,1.2c1.3,0.3,2.7,0.5,4.2,0.5s2.9-0.2,4.1-0.7c1.2-0.5,1.8-1.2,1.8-2.3c0-0.8-0.3-1.4-0.8-1.8s-1.6-0.8-3.1-1.2
			c-0.8-0.2-1.9-0.4-3.1-0.7c-1.3-0.2-2.4-0.5-3.4-0.8c-2.7-0.9-4.8-2.1-6.2-3.8c-1.4-1.7-2.1-3.9-2.1-6.6c0-1.6,0.4-3,1.1-4.4
			c0.7-1.4,1.8-2.6,3.2-3.7s3.1-1.9,5.2-2.5c2-0.6,4.4-0.9,6.9-0.9c2.4,0,4.7,0.2,6.8,0.7s3.8,1.1,5.2,1.8v8.8h-0.9
			c-0.4-0.3-1-0.7-1.8-1.2s-1.6-0.9-2.4-1.3c-0.9-0.4-1.9-0.8-3.1-1c-1.1-0.3-2.3-0.4-3.5-0.4c-1.6,0-2.9,0.3-4,0.8
			s-1.6,1.3-1.6,2.1c0,0.8,0.3,1.4,0.8,1.9s1.7,0.9,3.5,1.3c0.9,0.2,2,0.5,3.2,0.7s2.4,0.5,3.5,0.9c2.5,0.8,4.4,2,5.7,3.6
			s1.9,3.6,1.9,6.2c0,1.6-0.4,3.2-1.2,4.7s-1.9,2.7-3.3,3.8c-1.5,1.1-3.3,2-5.3,2.6C802.6-1042.4,800.2-1042.1,797.4-1042.1z"/>
	</g>
	<g>
		<path class="st0" d="M198.4-1091.5l-15.9,46.3h-12.1l-15.9-46.3h12.1l10.1,31.4l10.1-31.4H198.4z"/>
		<path class="st0" d="M244.1-1068.3c0,4.3-0.9,8.2-2.8,11.6s-4.3,6-7.2,7.9c-2.4,1.6-5,2.6-7.9,3c-2.8,0.4-5.8,0.7-9,0.7h-14.5
			v-46.3h14.4c3.3,0,6.3,0.2,9.1,0.6s5.5,1.4,8,3c3,2,5.5,4.6,7.2,7.9C243.2-1076.7,244.1-1072.8,244.1-1068.3z M232.1-1068.4
			c0-3-0.5-5.7-1.6-7.8c-1-2.2-2.7-3.9-4.8-5.1c-1.6-0.9-3.2-1.3-5-1.4c-1.7-0.1-3.8-0.1-6.2-0.1h-0.2v29h0.2c2.6,0,4.8,0,6.6-0.1
			c1.8-0.1,3.5-0.6,5.1-1.7c1.9-1.2,3.4-2.9,4.4-5C231.6-1062.8,232.1-1065.3,232.1-1068.4z"/>
		<path class="st0" d="M293.8-1045.2h-14.2l-12.9-17h-4.2v17H251v-46.3h18.6c2.6,0,4.8,0.2,6.7,0.5c1.9,0.3,3.7,1,5.3,2
			c1.7,1.1,3,2.4,4,4s1.5,3.7,1.5,6.2c0,3.5-0.8,6.4-2.4,8.6s-3.7,4-6.4,5.3L293.8-1045.2z M275.1-1077.3c0-1.2-0.2-2.2-0.7-3
			c-0.4-0.8-1.2-1.5-2.2-1.9c-0.7-0.3-1.5-0.5-2.4-0.6s-2-0.1-3.3-0.1h-3.9v12.5h3.3c1.6,0,3-0.1,4.1-0.3c1.1-0.2,2.1-0.6,2.9-1.3
			c0.7-0.6,1.3-1.3,1.7-2.1C274.9-1075,275.1-1076,275.1-1077.3z"/>
	</g>
	
		<text transform="matrix(1.5799 0 0 1 617.8056 -722.5078)" class="st0" style="font-family:'MyriadPro-Cond'; font-size:39.4403px;">CONSTRUCTIONS</text>
	<path class="st0" d="M716.8-894.5"/>
	<path class="st0" d="M716.8-894.5"/>
	<g>
		
			<text transform="matrix(1 0 0 1 -1155.5808 -213.7243)" class="st0" style="font-family:'MSReferenceSansSerif'; font-size:17.4713px;">Passieve Brandpreventie |  Wanden en Plafonds | Thermisch en Akoestische Insulatie</text>
		<g>
			<g>
				<g>
					
						<linearGradient id="SVGID_25_" gradientUnits="userSpaceOnUse" x1="-1258.2656" y1="1538.6423" x2="-1258.2656" y2="1673.761" gradientTransform="matrix(0.9636 -0.2672 -0.3029 -1.0921 670.5895 1060.8792)">
						<stop  offset="0" style="stop-color:#2B3990"/>
						<stop  offset="1" style="stop-color:#1C75BC"/>
					</linearGradient>
					<path class="st26" d="M-987.9-359.8c-16.2-23.5-67.8-28.1-30.4-79.5c-26.3,16.1-51.7,82.8-45.6,115.5c0,0.2,0.1,0.4,0.1,0.5
						s0,0.1,0,0.2c0.3,1.5,0.6,2.9,1,4.4c7.2,25.9,31.8,41.8,55,35.4c23.1-6.3,36-32.5,28.7-58.4
						C-980.9-348.5-983.9-354.6-987.9-359.8z"/>
					
						<linearGradient id="SVGID_26_" gradientUnits="userSpaceOnUse" x1="824.1026" y1="1151.7529" x2="824.1026" y2="1315.6409" gradientTransform="matrix(-1.2498 -0.1067 0.1031 -1.2081 -103.224 1201.1694)">
						<stop  offset="0" style="stop-color:#262262"/>
						<stop  offset="1" style="stop-color:#1C75BC"/>
					</linearGradient>
					<path class="st27" d="M-1062.7-364.4c15.7-31,88.6-55.2,45.1-113.5c37.6,23.8,68.3,100.9,68.9,140.6c0,0.2,0,0.4,0,0.7
						c0,0.1,0,0.1,0,0.2c0,1.8,0,3.6-0.2,5.4c-2.8,32-32.1,55.7-65.6,52.8c-33.4-2.8-58.3-31.1-55.6-63.1
						C-1069.2-349.7-1066.6-357.5-1062.7-364.4z"/>
					
						<linearGradient id="SVGID_27_" gradientUnits="userSpaceOnUse" x1="-1009.3" y1="1171.6" x2="-1009.3" y2="1074.0999" gradientTransform="matrix(1 0 0 -1 0 795.9999)">
						<stop  offset="0" style="stop-color:#00A79D"/>
						<stop  offset="1" style="stop-color:#1C75BC"/>
					</linearGradient>
					<path class="st28" d="M-977.1-327.1c-7.5-19.3-38.9-13.3-32.2-48.5c-22.9,12.3-32.7,35.2-35,58.9c0,0.1,0,0.3,0,0.4v0.1
						c-0.1,1.1-0.2,2.1-0.2,3.2c0,19.3,15.8,34.9,35.2,34.9c19.5,0,35.2-15.6,35.2-34.9C-974.1-318-975.2-322.7-977.1-327.1z"/>
					
						<linearGradient id="SVGID_28_" gradientUnits="userSpaceOnUse" x1="1075.0105" y1="1074" x2="1075.0105" y2="1141.9" gradientTransform="matrix(-1 0 0 -1 65.6105 795.9999)">
						<stop  offset="0" style="stop-color:#D1D3D4"/>
						<stop  offset="1" style="stop-color:#FFFFFF"/>
					</linearGradient>
					<path class="st29" d="M-1031.8-312.2c5.3-13.4,27.1-9.3,22.4-33.7c16,8.6,22.8,24.5,24.4,41c0,0.1,0,0.2,0,0.3v0.1
						c0.1,0.7,0.1,1.5,0.1,2.2c0,13.4-11,24.3-24.5,24.3s-24.5-10.9-24.5-24.3C-1033.9-305.8-1033.1-309.2-1031.8-312.2z"/>
				</g>
				<path class="st0" d="M-558.1-363.5c10.3-5,18.6-11.8,24.7-20.3c6.2-8.5,9.2-19.6,9.2-33.3c0-9.7-1.9-17.7-5.6-23.9
					c-3.8-6.3-8.8-11.5-15.2-15.5c-6.2-3.9-13-6.5-20.4-7.7c-7.4-1.2-16-1.9-25.9-1.9h-71.8v31.4c1.7,2.6,3.4,5.3,4.9,8.2
					c7.6,14.2,11.4,31,11.4,50c0,18.4-4.1,35.1-12.2,49.8c-1.3,2.4-2.7,4.6-4.1,6.8v32.5h44.6v-65.5h16.1l49.8,65.5h54.7
					L-558.1-363.5z M-572.3-399.3c-1.4,3.1-3.5,5.8-6.4,8c-3,2.5-6.7,4.1-11.1,4.9c-4.4,0.8-9.7,1.1-15.9,1.1h-12.8v-48.1h15
					c5.1,0,9.4,0.2,12.8,0.5c3.4,0.3,6.6,1.1,9.4,2.3c4,1.8,6.9,4.3,8.6,7.5s2.6,7.1,2.6,11.6C-570.2-406.4-570.9-402.4-572.3-399.3
					z"/>
				<path class="st0" d="M-667.5-421.7c-6.8-12.8-16.1-22.9-27.8-30.4c-9.6-6.2-19.9-10-30.8-11.6c-11-1.6-22.7-2.4-35.3-2.4h-31.5
					l-23.9,69.4v109.2h55.9c12.3,0,23.9-0.9,34.8-2.6c10.9-1.7,21-5.6,30.3-11.6c11.1-7,20.3-17.1,27.6-30.3
					c7.3-13.2,10.9-28,10.9-44.7C-657.3-393.9-660.7-408.9-667.5-421.7z M-709.1-347.1c-3.8,8.2-9.4,14.6-16.8,19.2
					c-6.2,3.9-12.8,6.1-19.7,6.4c-6.9,0.4-15.4,0.5-25.5,0.5h-0.8v-111.8h0.8c9.3,0,17.3,0.2,23.9,0.5c6.7,0.3,13.1,2.2,19.1,5.5
					c8.4,4.7,14.6,11.3,18.7,19.6c4,8.4,6.1,18.4,6.1,30.2C-703.3-365.2-705.2-355.3-709.1-347.1z"/>
				<path class="st0" d="M-804-466.1l-61.4,178.6h-46.8l-61.4-178.6h46.5l38.9,121l38.9-121H-804z"/>
			</g>
			<g>
				<path class="st0" d="M-1036-245.6c-1.1,0.6-3.3,1.1-6.1,1.1c-6.5,0-11.4-4.1-11.4-11.7c0-7.2,4.9-12.1,12.1-12.1
					c2.9,0,4.7,0.6,5.5,1l-0.7,2.4c-1.1-0.6-2.7-1-4.7-1c-5.4,0-9,3.5-9,9.5c0,5.7,3.3,9.3,8.9,9.3c1.8,0,3.7-0.4,4.9-1L-1036-245.6
					z"/>
				<path class="st0" d="M-985.8-256.7c0,8-4.8,12.2-10.7,12.2c-6.1,0-10.4-4.7-10.4-11.7c0-7.3,4.6-12.1,10.7-12.1
					C-989.9-268.4-985.8-263.5-985.8-256.7z M-1003.8-256.3c0,4.9,2.7,9.4,7.4,9.4s7.4-4.4,7.4-9.6c0-4.6-2.4-9.4-7.4-9.4
					C-1001.3-265.9-1003.8-261.4-1003.8-256.3z"/>
				<path class="st0" d="M-954.5-244.9V-268h3.3l7.4,11.7c1.7,2.7,3.1,5.1,4.1,7.5h0.1c-0.3-3.1-0.3-5.9-0.3-9.5v-9.7h2.8v23.1h-3
					l-7.3-11.7c-1.6-2.6-3.2-5.2-4.3-7.7h-0.1c0.2,2.9,0.2,5.7,0.2,9.5v9.9H-954.5z"/>
				<path class="st0" d="M-904.9-248.5c1.3,0.8,3.3,1.5,5.4,1.5c3.1,0,4.8-1.6,4.8-3.9c0-2.2-1.2-3.4-4.4-4.6
					c-3.8-1.3-6.1-3.3-6.1-6.6c0-3.6,3-6.3,7.5-6.3c2.4,0,4.1,0.5,5.1,1.1l-0.8,2.4c-0.8-0.4-2.3-1.1-4.4-1.1
					c-3.2,0-4.4,1.9-4.4,3.5c0,2.2,1.4,3.2,4.6,4.5c3.9,1.5,5.9,3.4,5.9,6.8c0,3.6-2.6,6.7-8.1,6.7c-2.2,0-4.7-0.7-5.9-1.5
					L-904.9-248.5z"/>
				<path class="st0" d="M-855.8-265.5h-7v-2.5h17.1v2.5h-7.1v20.6h-3V-265.5z"/>
				<path class="st0" d="M-815.7-267.7c1.5-0.3,3.7-0.5,5.7-0.5c3.2,0,5.3,0.6,6.7,1.9c1.2,1,1.8,2.6,1.8,4.4c0,3-1.9,5.1-4.4,5.9
					v0.1c1.8,0.6,2.8,2.3,3.4,4.7c0.8,3.2,1.3,5.5,1.8,6.3h-3.1c-0.4-0.7-0.9-2.6-1.5-5.5c-0.7-3.2-1.9-4.4-4.6-4.5h-2.8v10h-3
					L-815.7-267.7L-815.7-267.7z M-812.7-257.2h3.1c3.2,0,5.2-1.8,5.2-4.4c0-3-2.2-4.3-5.3-4.3c-1.4,0-2.5,0.1-2.9,0.3L-812.7-257.2
					L-812.7-257.2z"/>
				<path class="st0" d="M-766.9-268v13.7c0,5.2,2.3,7.4,5.4,7.4c3.4,0,5.6-2.3,5.6-7.4V-268h3v13.5c0,7.1-3.7,10-8.7,10
					c-4.7,0-8.3-2.7-8.3-9.9V-268H-766.9z"/>
				<path class="st0" d="M-704.1-245.6c-1.1,0.6-3.3,1.1-6.1,1.1c-6.5,0-11.4-4.1-11.4-11.7c0-7.2,4.9-12.1,12.1-12.1
					c2.9,0,4.7,0.6,5.5,1l-0.7,2.4c-1.1-0.6-2.7-1-4.7-1c-5.4,0-9,3.5-9,9.5c0,5.7,3.3,9.3,8.9,9.3c1.8,0,3.7-0.4,4.9-1
					L-704.1-245.6z"/>
				<path class="st0" d="M-667.6-265.5h-7v-2.5h17.1v2.5h-7.1v20.6h-3V-265.5z"/>
				<path class="st0" d="M-608.6-256.7c0,8-4.8,12.2-10.7,12.2c-6.1,0-10.4-4.7-10.4-11.7c0-7.3,4.6-12.1,10.7-12.1
					C-612.7-268.4-608.6-263.5-608.6-256.7z M-626.6-256.3c0,4.9,2.7,9.4,7.4,9.4c4.7,0,7.4-4.4,7.4-9.6c0-4.6-2.4-9.4-7.4-9.4
					C-624.1-265.9-626.6-261.4-626.6-256.3z"/>
				<path class="st0" d="M-577.3-244.9V-268h3.3l7.4,11.7c1.7,2.7,3.1,5.1,4.1,7.5h0.1c-0.3-3.1-0.3-5.9-0.3-9.5v-9.7h2.8v23.1h-3
					l-7.3-11.7c-1.6-2.6-3.2-5.2-4.3-7.7h-0.1c0.2,2.9,0.2,5.7,0.2,9.5v9.9H-577.3z"/>
				<path class="st0" d="M-527.8-248.5c1.3,0.8,3.3,1.5,5.4,1.5c3.1,0,4.8-1.6,4.8-3.9c0-2.2-1.2-3.4-4.4-4.6
					c-3.8-1.3-6.1-3.3-6.1-6.6c0-3.6,3-6.3,7.5-6.3c2.4,0,4.1,0.5,5.1,1.1l-0.8,2.4c-0.8-0.4-2.3-1.1-4.4-1.1
					c-3.2,0-4.4,1.9-4.4,3.5c0,2.2,1.4,3.2,4.6,4.5c3.9,1.5,5.9,3.4,5.9,6.8c0,3.6-2.6,6.7-8.1,6.7c-2.2,0-4.7-0.7-5.9-1.5
					L-527.8-248.5z"/>
			</g>
		</g>
	</g>
	<g>
		<g>
			<g>
				
					<linearGradient id="SVGID_29_" gradientUnits="userSpaceOnUse" x1="-1527.1758" y1="943.324" x2="-1527.1758" y2="1078.4426" gradientTransform="matrix(0.9636 -0.2672 -0.3029 -1.0921 670.5895 1060.8792)">
					<stop  offset="0" style="stop-color:#2B3990"/>
					<stop  offset="1" style="stop-color:#1C75BC"/>
				</linearGradient>
				<path class="st30" d="M-1066.7,362.2c-16.2-23.5-67.8-28.1-30.4-79.5c-26.3,16.1-51.7,82.8-45.6,115.5c0,0.2,0.1,0.4,0.1,0.5
					c0,0.1,0,0.1,0,0.2c0.3,1.5,0.6,2.9,1,4.4c7.2,25.9,31.8,41.8,55,35.4c23.1-6.3,36-32.5,28.7-58.4
					C-1059.7,373.5-1062.7,367.4-1066.7,362.2z"/>
				
					<linearGradient id="SVGID_30_" gradientUnits="userSpaceOnUse" x1="837.6732" y1="552.9218" x2="837.6732" y2="716.8026" gradientTransform="matrix(-1.2498 -0.1067 0.1031 -1.2081 -103.224 1201.1694)">
					<stop  offset="0" style="stop-color:#262262"/>
					<stop  offset="1" style="stop-color:#1C75BC"/>
				</linearGradient>
				<path class="st31" d="M-1141.5,357.6c15.7-31,88.6-55.2,45.1-113.5c37.7,23.8,68.4,100.9,69,140.6c0,0.2,0,0.4,0,0.7
					c0,0.1,0,0.1,0,0.2c0,1.8,0,3.6-0.2,5.4c-2.8,32-32.1,55.7-65.6,52.8c-33.4-2.8-58.3-31.1-55.6-63.1
					C-1148,372.3-1145.4,364.5-1141.5,357.6z"/>
				
					<linearGradient id="SVGID_31_" gradientUnits="userSpaceOnUse" x1="-1088.1" y1="449.6" x2="-1088.1" y2="352.1" gradientTransform="matrix(1 0 0 -1 0 795.9999)">
					<stop  offset="0" style="stop-color:#00A79D"/>
					<stop  offset="1" style="stop-color:#1C75BC"/>
				</linearGradient>
				<path class="st32" d="M-1055.9,394.9c-7.5-19.3-38.9-13.3-32.2-48.5c-22.9,12.3-32.7,35.2-35,58.9c0,0.1,0,0.3,0,0.4v0.1
					c-0.1,1.1-0.2,2.1-0.2,3.2c0,19.3,15.8,34.9,35.2,34.9c19.5,0,35.2-15.6,35.2-34.9C-1052.9,404-1054,399.3-1055.9,394.9z"/>
				
					<linearGradient id="SVGID_32_" gradientUnits="userSpaceOnUse" x1="1153.8104" y1="352" x2="1153.8104" y2="419.9" gradientTransform="matrix(-1 0 0 -1 65.6105 795.9999)">
					<stop  offset="0" style="stop-color:#D1D3D4"/>
					<stop  offset="1" style="stop-color:#FFFFFF"/>
				</linearGradient>
				<path class="st33" d="M-1110.6,409.8c5.3-13.4,27.1-9.3,22.4-33.7c16,8.6,22.8,24.5,24.4,41c0,0.1,0,0.2,0,0.3v0.1
					c0.1,0.7,0.1,1.5,0.1,2.2c0,13.4-11,24.3-24.5,24.3s-24.5-10.9-24.5-24.3C-1112.7,416.2-1111.9,412.8-1110.6,409.8z"/>
			</g>
			<path class="st0" d="M-636.9,358.5c10.3-5,18.6-11.8,24.7-20.3c6.2-8.5,9.2-19.6,9.2-33.3c0-9.7-1.9-17.7-5.6-23.9
				c-3.8-6.3-8.8-11.5-15.2-15.5c-6.2-3.9-13-6.5-20.4-7.7c-7.4-1.2-16-1.9-25.9-1.9h-71.8v31.4c1.7,2.6,3.4,5.3,4.9,8.2
				c7.6,14.2,11.4,31,11.4,50c0,18.4-4.1,35.1-12.2,49.8c-1.3,2.4-2.7,4.6-4.1,6.8v32.5h44.6v-65.7h16.1l49.8,65.5h54.7
				L-636.9,358.5z M-651.1,322.7c-1.4,3.1-3.5,5.8-6.4,8c-3,2.5-6.7,4.1-11.1,4.9c-4.4,0.8-9.7,1.1-15.9,1.1h-12.8v-48h15
				c5.1,0,9.4,0.2,12.8,0.5c3.4,0.3,6.6,1.1,9.4,2.3c4,1.8,6.9,4.3,8.6,7.5s2.6,7.1,2.6,11.6C-649,315.6-649.7,319.6-651.1,322.7z"
				/>
			<path class="st0" d="M-746.3,300.3c-6.8-12.8-16.1-22.9-27.8-30.4c-9.6-6.2-19.9-10-30.8-11.6c-11-1.6-22.7-2.4-35.3-2.4h-31.5
				l-23.9,69.4v109.2h55.9c12.3,0,23.9-0.9,34.8-2.6c10.9-1.7,21-5.6,30.3-11.6c11.1-7,20.3-17.1,27.6-30.3
				c7.3-13.2,10.9-28,10.9-44.7C-736.1,328.1-739.5,313.1-746.3,300.3z M-787.9,374.9c-3.8,8.2-9.4,14.6-16.8,19.2
				c-6.2,3.9-12.8,6.1-19.7,6.4c-6.9,0.4-15.4,0.5-25.5,0.5h-0.8V289.2h0.8c9.3,0,17.3,0.2,23.9,0.5c6.7,0.3,13.1,2.2,19.1,5.5
				c8.4,4.7,14.6,11.3,18.7,19.6c4,8.4,6.1,18.4,6.1,30.2C-782.1,356.8-784,366.7-787.9,374.9z"/>
			<path class="st0" d="M-882.8,255.9l-61.4,178.6H-991l-61.4-178.6h46.5l38.9,121l38.9-121C-928.1,255.9-882.8,255.9-882.8,255.9z"
				/>
		</g>
		<g>
			<path class="st0" d="M-1114.8,476.4c-1.1,0.6-3.3,1.1-6.1,1.1c-6.5,0-11.4-4.1-11.4-11.7c0-7.2,4.9-12.1,12.1-12.1
				c2.9,0,4.7,0.6,5.5,1l-0.7,2.4c-1.1-0.6-2.7-1-4.7-1c-5.4,0-9,3.5-9,9.5c0,5.7,3.3,9.3,8.9,9.3c1.8,0,3.7-0.4,4.9-1
				L-1114.8,476.4z"/>
			<path class="st0" d="M-1064.6,465.3c0,8-4.8,12.2-10.7,12.2c-6.1,0-10.4-4.7-10.4-11.7c0-7.3,4.6-12.1,10.7-12.1
				C-1068.7,453.6-1064.6,458.5-1064.6,465.3z M-1082.6,465.7c0,4.9,2.7,9.4,7.4,9.4c4.7,0,7.4-4.4,7.4-9.6c0-4.6-2.4-9.4-7.4-9.4
				C-1080.1,456.1-1082.6,460.6-1082.6,465.7z"/>
			<path class="st0" d="M-1033.3,477.1V454h3.3l7.4,11.7c1.7,2.7,3.1,5.1,4.1,7.5h0.1c-0.3-3.1-0.3-5.9-0.3-9.5V454h2.8v23.1h-3
				l-7.3-11.7c-1.6-2.6-3.2-5.2-4.3-7.7h-0.1c0.2,2.9,0.2,5.7,0.2,9.5v9.9H-1033.3z"/>
			<path class="st0" d="M-983.7,473.5c1.3,0.8,3.3,1.5,5.4,1.5c3.1,0,4.8-1.6,4.8-3.9c0-2.2-1.2-3.4-4.4-4.6
				c-3.8-1.3-6.1-3.3-6.1-6.6c0-3.6,3-6.3,7.5-6.3c2.4,0,4.1,0.5,5.1,1.1l-0.8,2.4c-0.8-0.4-2.3-1.1-4.4-1.1c-3.2,0-4.4,1.9-4.4,3.5
				c0,2.2,1.4,3.2,4.6,4.5c3.9,1.5,5.9,3.4,5.9,6.8c0,3.6-2.6,6.7-8.1,6.7c-2.2,0-4.7-0.7-5.9-1.5L-983.7,473.5z"/>
			<path class="st0" d="M-934.6,456.5h-7V454h17.1v2.5h-7.1v20.6h-3V456.5z"/>
			<path class="st0" d="M-894.5,454.3c1.5-0.3,3.7-0.5,5.7-0.5c3.2,0,5.3,0.6,6.7,1.9c1.2,1,1.8,2.6,1.8,4.4c0,3-1.9,5.1-4.4,5.9
				v0.1c1.8,0.6,2.8,2.3,3.4,4.7c0.8,3.2,1.3,5.5,1.8,6.3h-3.1c-0.4-0.7-0.9-2.6-1.5-5.5c-0.7-3.2-1.9-4.4-4.6-4.5h-2.8v10h-3
				L-894.5,454.3L-894.5,454.3z M-891.5,464.8h3.1c3.2,0,5.2-1.8,5.2-4.4c0-3-2.2-4.3-5.3-4.3c-1.4,0-2.5,0.1-2.9,0.3L-891.5,464.8
				L-891.5,464.8z"/>
			<path class="st0" d="M-845.7,454v13.7c0,5.2,2.3,7.4,5.4,7.4c3.4,0,5.6-2.3,5.6-7.4V454h3v13.5c0,7.1-3.7,10-8.7,10
				c-4.7,0-8.3-2.7-8.3-9.9V454H-845.7z"/>
			<path class="st0" d="M-782.9,476.4c-1.1,0.6-3.3,1.1-6.1,1.1c-6.5,0-11.4-4.1-11.4-11.7c0-7.2,4.9-12.1,12.1-12.1
				c2.9,0,4.7,0.6,5.5,1l-0.7,2.4c-1.1-0.6-2.7-1-4.7-1c-5.4,0-9,3.5-9,9.5c0,5.7,3.3,9.3,8.9,9.3c1.8,0,3.7-0.4,4.9-1L-782.9,476.4
				z"/>
			<path class="st0" d="M-746.4,456.5h-7V454h17.1v2.5h-7.1v20.6h-3V456.5z"/>
			<path class="st0" d="M-687.4,465.3c0,8-4.8,12.2-10.7,12.2c-6.1,0-10.4-4.7-10.4-11.7c0-7.3,4.6-12.1,10.7-12.1
				C-691.5,453.6-687.4,458.5-687.4,465.3z M-705.4,465.7c0,4.9,2.7,9.4,7.4,9.4s7.4-4.4,7.4-9.6c0-4.6-2.4-9.4-7.4-9.4
				C-702.9,456.1-705.4,460.6-705.4,465.7z"/>
			<path class="st0" d="M-656.1,477.1V454h3.3l7.4,11.7c1.7,2.7,3.1,5.1,4.1,7.5h0.1c-0.3-3.1-0.3-5.9-0.3-9.5V454h2.8v23.1h-3
				l-7.3-11.7c-1.6-2.6-3.2-5.2-4.3-7.7h-0.1c0.2,2.9,0.2,5.7,0.2,9.5v9.9H-656.1z"/>
			<path class="st0" d="M-606.6,473.5c1.3,0.8,3.3,1.5,5.4,1.5c3.1,0,4.8-1.6,4.8-3.9c0-2.2-1.2-3.4-4.4-4.6
				c-3.8-1.3-6.1-3.3-6.1-6.6c0-3.6,3-6.3,7.5-6.3c2.4,0,4.1,0.5,5.1,1.1l-0.8,2.4c-0.8-0.4-2.3-1.1-4.4-1.1c-3.2,0-4.4,1.9-4.4,3.5
				c0,2.2,1.4,3.2,4.6,4.5c3.9,1.5,5.9,3.4,5.9,6.8c0,3.6-2.6,6.7-8.1,6.7c-2.2,0-4.7-0.7-5.9-1.5L-606.6,473.5z"/>
		</g>
	</g>
	<g>
		<g>
			<g>
				
					<linearGradient id="SVGID_33_" gradientUnits="userSpaceOnUse" x1="-1613.1052" y1="669.9611" x2="-1613.1052" y2="805.0797" gradientTransform="matrix(0.9636 -0.2672 -0.3029 -1.0921 670.5895 1060.8792)">
					<stop  offset="0" style="stop-color:#2B3990"/>
					<stop  offset="1" style="stop-color:#1C75BC"/>
				</linearGradient>
				<path class="st34" d="M-1066.7,683.7c-16.2-23.5-67.8-28.1-30.4-79.5c-26.3,16.1-51.7,82.8-45.6,115.5c0,0.2,0.1,0.4,0.1,0.5
					c0,0.1,0,0.1,0,0.2c0.3,1.5,0.6,2.9,1,4.4c7.2,25.9,31.8,41.8,55,35.4c23.1-6.3,36-32.5,28.7-58.4
					C-1059.7,695-1062.7,688.9-1066.7,683.7z"/>
				
					<linearGradient id="SVGID_34_" gradientUnits="userSpaceOnUse" x1="815.9583" y1="288.7192" x2="815.9583" y2="452.6071" gradientTransform="matrix(-1.2498 -0.1067 0.1031 -1.2081 -103.224 1201.1694)">
					<stop  offset="0" style="stop-color:#262262"/>
					<stop  offset="1" style="stop-color:#1C75BC"/>
				</linearGradient>
				<path class="st35" d="M-1141.5,679.1c15.7-31,88.6-55.2,45.1-113.5c37.6,23.8,68.3,100.9,68.9,140.6c0,0.2,0,0.4,0,0.7
					c0,0.1,0,0.1,0,0.2c0,1.8,0,3.6-0.2,5.4c-2.8,32-32.1,55.7-65.6,52.8c-33.4-2.8-58.3-31.1-55.6-63.1
					C-1148,693.8-1145.4,686-1141.5,679.1z"/>
				
					<linearGradient id="SVGID_35_" gradientUnits="userSpaceOnUse" x1="-1088.1" y1="128.1" x2="-1088.1" y2="30.6" gradientTransform="matrix(1 0 0 -1 0 795.9999)">
					<stop  offset="0" style="stop-color:#00A79D"/>
					<stop  offset="1" style="stop-color:#1C75BC"/>
				</linearGradient>
				<path class="st36" d="M-1055.9,716.4c-7.5-19.3-38.9-13.3-32.2-48.5c-22.9,12.3-32.7,35.2-35,58.9c0,0.1,0,0.3,0,0.4v0.1
					c-0.1,1.1-0.2,2.1-0.2,3.2c0,19.3,15.8,34.9,35.2,34.9c19.5,0,35.2-15.6,35.2-34.9C-1052.9,725.5-1054,720.7-1055.9,716.4z"/>
				
					<linearGradient id="SVGID_36_" gradientUnits="userSpaceOnUse" x1="1153.8104" y1="30.5" x2="1153.8104" y2="98.4" gradientTransform="matrix(-1 0 0 -1 65.6105 795.9999)">
					<stop  offset="0" style="stop-color:#D1D3D4"/>
					<stop  offset="1" style="stop-color:#FFFFFF"/>
				</linearGradient>
				<path class="st37" d="M-1110.6,731.3c5.3-13.4,27.1-9.3,22.4-33.7c16,8.6,22.8,24.5,24.4,41c0,0.1,0,0.2,0,0.3v0.1
					c0.1,0.7,0.1,1.5,0.1,2.2c0,13.4-11,24.3-24.5,24.3s-24.5-10.9-24.5-24.3C-1112.7,737.7-1111.9,734.3-1110.6,731.3z"/>
			</g>
			<path class="st0" d="M-636.9,680c10.3-5,18.6-11.8,24.7-20.3c6.2-8.5,9.2-19.6,9.2-33.3c0-9.7-1.9-17.7-5.6-23.9
				c-3.8-6.3-8.8-11.5-15.2-15.5c-6.2-3.9-13-6.5-20.4-7.7c-7.4-1.2-16-1.9-25.9-1.9h-71.8v31.4c1.7,2.6,3.4,5.3,4.9,8.2
				c7.6,14.2,11.4,31,11.4,50c0,18.4-4.1,35.1-12.2,49.8c-1.3,2.4-2.7,4.6-4.1,6.8v32.5h44.6v-65.5h16.1l49.8,65.5h54.7L-636.9,680z
				 M-651.1,644.2c-1.4,3.1-3.5,5.8-6.4,8c-3,2.5-6.7,4.1-11.1,4.9c-4.4,0.8-9.7,1.1-15.9,1.1h-12.8v-48.1h15
				c5.1,0,9.4,0.2,12.8,0.5c3.4,0.3,6.6,1.1,9.4,2.3c4,1.8,6.9,4.3,8.6,7.5s2.6,7.1,2.6,11.6C-649,637-649.7,641.1-651.1,644.2z"/>
			<path class="st0" d="M-746.3,621.8c-6.8-12.8-16.1-22.9-27.8-30.4c-9.6-6.2-19.9-10-30.8-11.6c-11-1.6-22.7-2.4-35.3-2.4h-31.5
				l-23.9,69.4V756h55.9c12.3,0,23.9-0.9,34.8-2.6c10.9-1.7,21-5.6,30.3-11.6c11.1-7,20.3-17.1,27.6-30.3
				c7.3-13.2,10.9-28,10.9-44.7C-736.1,649.6-739.5,634.6-746.3,621.8z M-787.9,696.4c-3.8,8.2-9.4,14.6-16.8,19.2
				c-6.2,3.9-12.8,6.1-19.7,6.4c-6.9,0.4-15.4,0.5-25.5,0.5h-0.8V610.7h0.8c9.3,0,17.3,0.2,23.9,0.5c6.7,0.3,13.1,2.2,19.1,5.5
				c8.4,4.7,14.6,11.3,18.7,19.6c4,8.4,6.1,18.4,6.1,30.2C-782.1,678.2-784,688.2-787.9,696.4z"/>
			<path class="st0" d="M-882.8,577.4L-944.2,756H-991l-61.4-178.6h46.5l38.9,121l38.9-121H-882.8z"/>
		</g>
	</g>
	<g>
		
			<linearGradient id="SVGID_37_" gradientUnits="userSpaceOnUse" x1="-548.9119" y1="641.9076" x2="-548.9119" y2="799.2788" gradientTransform="matrix(0.9636 -0.2672 -0.3029 -1.0921 670.5895 1060.8792)">
			<stop  offset="0" style="stop-color:#2B3990"/>
			<stop  offset="1" style="stop-color:#1C75BC"/>
		</linearGradient>
		<path class="st38" d="M-29.5,417.4c-18.9-27.4-79-32.8-35.4-92.6c-30.6,18.8-60.3,96.5-53.1,134.5c0,0.2,0.1,0.4,0.1,0.6
			c0,0.1,0,0.1,0,0.2c0.3,1.7,0.7,3.4,1.2,5.1c8.4,30.2,37.1,48.7,64,41.3c26.9-7.4,41.9-37.9,33.5-68.1
			C-21.4,430.6-25,423.5-29.5,417.4z"/>
		
			<linearGradient id="SVGID_38_" gradientUnits="userSpaceOnUse" x1="12.6001" y1="569.0068" x2="12.6001" y2="759.8884" gradientTransform="matrix(-1.2498 -0.1067 0.1031 -1.2081 -103.224 1201.1694)">
			<stop  offset="0" style="stop-color:#262262"/>
			<stop  offset="1" style="stop-color:#1C75BC"/>
		</linearGradient>
		<path class="st39" d="M-116.7,412.1c18.3-36.1,103.2-64.3,52.6-132.3c43.8,27.8,79.6,117.5,80.3,163.8c0,0.3,0,0.5,0,0.8
			c0,0.1,0,0.2,0,0.3c0,2.1-0.1,4.1-0.2,6.2c-3.2,37.3-37.4,64.8-76.4,61.5s-67.9-36.2-64.7-73.4
			C-124.3,429.2-121.3,420.1-116.7,412.1z"/>
		
			<linearGradient id="SVGID_39_" gradientUnits="userSpaceOnUse" x1="-54.4" y1="396.9" x2="-54.4" y2="283.3" gradientTransform="matrix(1 0 0 -1 0 795.9999)">
			<stop  offset="0" style="stop-color:#00A79D"/>
			<stop  offset="1" style="stop-color:#1C75BC"/>
		</linearGradient>
		<path class="st40" d="M-17,455.6c-8.8-22.5-45.4-15.5-37.5-56.5c-26.7,14.4-38.1,41-40.8,68.6c0,0.2,0,0.3,0,0.5
			c0,0.1,0,0.1,0,0.2c-0.1,1.2-0.2,2.5-0.2,3.7c0,22.4,18.4,40.6,41.1,40.6s41.1-18.2,41.1-40.6C-13.5,466.2-14.8,460.6-17,455.6z"
			/>
		
			<linearGradient id="SVGID_40_" gradientUnits="userSpaceOnUse" x1="120.2105" y1="283.3" x2="120.2105" y2="362.4" gradientTransform="matrix(-1 0 0 -1 65.6105 795.9999)">
			<stop  offset="0" style="stop-color:#D1D3D4"/>
			<stop  offset="1" style="stop-color:#FFFFFF"/>
		</linearGradient>
		<path class="st41" d="M-80.7,472.9c6.1-15.7,31.6-10.8,26.1-39.3c18.6,10,26.5,28.5,28.4,47.8c0,0.1,0,0.2,0,0.3v0.1
			c0.1,0.9,0.1,1.7,0.1,2.6c0,15.6-12.8,28.3-28.6,28.3s-28.4-12.7-28.4-28.3C-83.1,480.3-82.3,476.4-80.7,472.9z"/>
	</g>
</g>
</svg>
